M48
; DRILL file {KiCad 8.0.6} date 2024-12-21T17:19:33-0800
; FORMAT={-:-/ absolute / inch / decimal}
; #@! TF.CreationDate,2024-12-21T17:19:33-08:00
; #@! TF.GenerationSoftware,Kicad,Pcbnew,8.0.6
; #@! TF.FileFunction,MixedPlating,1,2
FMAT,2
INCH
; #@! TA.AperFunction,Plated,PTH,ViaDrill
T1C0.0118
; #@! TA.AperFunction,Plated,PTH,ComponentDrill
T2C0.0236
; #@! TA.AperFunction,Plated,PTH,ComponentDrill
T3C0.0276
; #@! TA.AperFunction,Plated,PTH,ComponentDrill
T4C0.0315
; #@! TA.AperFunction,Plated,PTH,ComponentDrill
T5C0.0354
; #@! TA.AperFunction,Plated,PTH,ComponentDrill
T6C0.0394
; #@! TA.AperFunction,Plated,PTH,ComponentDrill
T7C0.0433
; #@! TA.AperFunction,NonPlated,NPTH,ComponentDrill
T8C0.1378
%
G90
G05
T1
X2.72Y-2.69
X2.89Y-2.67
X3.56Y-3.95
X3.6Y-3.11
X3.7Y-3.11
X3.7Y-3.62
X3.8Y-3.11
X3.8Y-3.62
X3.9Y-3.11
X3.9Y-3.62
X4.0Y-3.11
X4.0Y-3.62
X4.1Y-3.11
X4.1Y-3.62
X4.2Y-3.11
X4.6Y-3.11
X4.7Y-3.11
X4.8Y-3.11
X4.9Y-3.11
X4.99Y-3.37
X5.05Y-3.19
X5.1Y-3.11
T2
X3.2963Y-4.115
X3.3409Y-3.825
X3.375Y-4.115
X3.4Y-3.825
T3
X3.0Y-2.8
X3.0Y-3.0
X3.35Y-2.8
X3.35Y-3.0
T4
X3.55Y-3.225
X3.55Y-3.525
X3.65Y-3.225
X3.65Y-3.525
X3.75Y-3.225
X3.75Y-3.525
X3.85Y-3.225
X3.85Y-3.525
X3.95Y-3.225
X3.95Y-3.525
X4.05Y-3.225
X4.05Y-3.525
X4.15Y-3.225
X4.15Y-3.525
X4.25Y-3.225
X4.25Y-3.525
X4.3Y-3.6266
X4.3Y-3.725
X4.35Y-3.225
X4.35Y-3.525
X4.3516Y-3.075
X4.45Y-3.075
X4.45Y-3.225
X4.45Y-3.525
X4.55Y-3.225
X4.55Y-3.525
X4.55Y-3.6266
X4.55Y-3.725
X4.65Y-3.225
X4.65Y-3.525
X4.75Y-3.225
X4.75Y-3.525
X4.7516Y-3.9392
X4.85Y-3.225
X4.85Y-3.525
X4.85Y-3.9392
T5
X3.175Y-2.9
X3.175Y-3.0
T6
X2.6Y-2.575
X2.7Y-2.575
X2.8Y-2.575
X2.9Y-2.575
X3.0Y-2.575
X3.55Y-2.575
X3.65Y-2.575
X3.65Y-4.15
X3.75Y-2.575
X3.75Y-4.15
X3.85Y-2.575
X3.85Y-4.15
X3.95Y-2.575
X3.95Y-4.15
X4.05Y-2.575
X4.05Y-4.15
X4.15Y-2.575
X4.15Y-4.15
X4.25Y-2.575
X4.325Y-3.849
X4.35Y-4.15
X4.425Y-3.849
X4.45Y-2.575
X4.45Y-4.15
X4.525Y-3.849
X4.55Y-2.575
X4.55Y-4.15
X4.65Y-2.575
X4.65Y-4.15
X4.75Y-2.575
X4.75Y-4.15
X4.85Y-2.575
X4.85Y-4.15
X4.95Y-2.575
X4.95Y-4.15
X5.05Y-2.575
X5.05Y-4.15
X5.15Y-2.575
X5.15Y-3.425
X5.15Y-3.525
X5.15Y-4.15
T7
X2.5941Y-2.8228
X2.5941Y-3.0
X2.85Y-2.8228
X2.85Y-3.0
X3.2884Y-3.35
X3.2884Y-3.45
X3.2884Y-3.55
T8
X2.6325Y-3.45
T6
G00X2.825Y-3.9006
M15
G01X2.825Y-3.9793
M16
G05
G00X2.9037Y-4.125
M15
G01X2.9825Y-4.125
M16
G05
G00X3.0612Y-3.9006
M15
G01X3.0612Y-3.9793
M16
G05
M30
