%TF.GenerationSoftware,KiCad,Pcbnew,8.0.6*%
%TF.CreationDate,2024-12-21T17:19:29-08:00*%
%TF.ProjectId,PIC18F_DevBoard,50494331-3846-45f4-9465-76426f617264,rev?*%
%TF.SameCoordinates,Original*%
%TF.FileFunction,Copper,L2,Bot*%
%TF.FilePolarity,Positive*%
%FSLAX46Y46*%
G04 Gerber Fmt 4.6, Leading zero omitted, Abs format (unit mm)*
G04 Created by KiCad (PCBNEW 8.0.6) date 2024-12-21 17:19:29*
%MOMM*%
%LPD*%
G01*
G04 APERTURE LIST*
G04 Aperture macros list*
%AMRoundRect*
0 Rectangle with rounded corners*
0 $1 Rounding radius*
0 $2 $3 $4 $5 $6 $7 $8 $9 X,Y pos of 4 corners*
0 Add a 4 corners polygon primitive as box body*
4,1,4,$2,$3,$4,$5,$6,$7,$8,$9,$2,$3,0*
0 Add four circle primitives for the rounded corners*
1,1,$1+$1,$2,$3*
1,1,$1+$1,$4,$5*
1,1,$1+$1,$6,$7*
1,1,$1+$1,$8,$9*
0 Add four rect primitives between the rounded corners*
20,1,$1+$1,$2,$3,$4,$5,0*
20,1,$1+$1,$4,$5,$6,$7,0*
20,1,$1+$1,$6,$7,$8,$9,0*
20,1,$1+$1,$8,$9,$2,$3,0*%
G04 Aperture macros list end*
%TA.AperFunction,ComponentPad*%
%ADD10R,2.000000X1.905000*%
%TD*%
%TA.AperFunction,ComponentPad*%
%ADD11O,2.000000X1.905000*%
%TD*%
%TA.AperFunction,ComponentPad*%
%ADD12R,1.600000X1.600000*%
%TD*%
%TA.AperFunction,ComponentPad*%
%ADD13O,1.600000X1.600000*%
%TD*%
%TA.AperFunction,ComponentPad*%
%ADD14C,2.000000*%
%TD*%
%TA.AperFunction,ComponentPad*%
%ADD15C,1.400000*%
%TD*%
%TA.AperFunction,ComponentPad*%
%ADD16O,1.400000X1.400000*%
%TD*%
%TA.AperFunction,ComponentPad*%
%ADD17O,1.700000X1.700000*%
%TD*%
%TA.AperFunction,ComponentPad*%
%ADD18R,1.700000X1.700000*%
%TD*%
%TA.AperFunction,ComponentPad*%
%ADD19R,3.500000X3.500000*%
%TD*%
%TA.AperFunction,ComponentPad*%
%ADD20RoundRect,0.750000X-0.750000X-1.000000X0.750000X-1.000000X0.750000X1.000000X-0.750000X1.000000X0*%
%TD*%
%TA.AperFunction,ComponentPad*%
%ADD21RoundRect,0.875000X-0.875000X-0.875000X0.875000X-0.875000X0.875000X0.875000X-0.875000X0.875000X0*%
%TD*%
%TA.AperFunction,ComponentPad*%
%ADD22R,1.800000X1.800000*%
%TD*%
%TA.AperFunction,ComponentPad*%
%ADD23C,1.800000*%
%TD*%
%TA.AperFunction,ComponentPad*%
%ADD24C,1.600000*%
%TD*%
%TA.AperFunction,ComponentPad*%
%ADD25R,1.200000X1.200000*%
%TD*%
%TA.AperFunction,ComponentPad*%
%ADD26C,1.200000*%
%TD*%
%TA.AperFunction,ViaPad*%
%ADD27C,0.600000*%
%TD*%
%TA.AperFunction,Conductor*%
%ADD28C,0.400000*%
%TD*%
%TA.AperFunction,Conductor*%
%ADD29C,0.250000*%
%TD*%
G04 APERTURE END LIST*
D10*
%TO.P,U2,1,IN*%
%TO.N,Vin*%
X83525000Y-90170000D03*
D11*
%TO.P,U2,2,GND*%
%TO.N,GND*%
X83525000Y-87630000D03*
%TO.P,U2,3,OUT*%
%TO.N,+5V*%
X83525000Y-85090000D03*
%TD*%
D12*
%TO.P,U1,1,Vpp/~{MCLR}/RE3*%
%TO.N,MCLR*%
X90170000Y-89535000D03*
D13*
%TO.P,U1,2,RA0/AN0*%
%TO.N,RA0*%
X92710000Y-89535000D03*
%TO.P,U1,3,RA1/AN1*%
%TO.N,RA1*%
X95250000Y-89535000D03*
%TO.P,U1,4,RA2/AN2/Vref-/CVref*%
%TO.N,RA2*%
X97790000Y-89535000D03*
%TO.P,U1,5,RA3/AN3/Vref+*%
%TO.N,RA3*%
X100330000Y-89535000D03*
%TO.P,U1,6,RA4/T0CKI/C1OUT/RCV*%
%TO.N,RA4*%
X102870000Y-89535000D03*
%TO.P,U1,7,RA5/AN4/~{SS}/HLVDIN/C2OUT*%
%TO.N,RA5*%
X105410000Y-89535000D03*
%TO.P,U1,8,VSS*%
%TO.N,GND*%
X107950000Y-89535000D03*
%TO.P,U1,9,OSC1/CLKI*%
%TO.N,OSC1*%
X110490000Y-89535000D03*
%TO.P,U1,10,RA6/OSC2/CLKO*%
%TO.N,OSC2*%
X113030000Y-89535000D03*
%TO.P,U1,11,T1OSO/T13CKI/RC0*%
%TO.N,RC0*%
X115570000Y-89535000D03*
%TO.P,U1,12,~{UOE}/CCP2/T1OSI/RC1*%
%TO.N,RC1*%
X118110000Y-89535000D03*
%TO.P,U1,13,CCP1/RC2*%
%TO.N,RC2*%
X120650000Y-89535000D03*
%TO.P,U1,14,VUSB*%
%TO.N,Vu*%
X123190000Y-89535000D03*
%TO.P,U1,15,VM/D-/RC4*%
%TO.N,RC4*%
X123190000Y-81915000D03*
%TO.P,U1,16,VP/D+/RC5*%
%TO.N,RC5*%
X120650000Y-81915000D03*
%TO.P,U1,17,TX/CK/RC6*%
%TO.N,RC6*%
X118110000Y-81915000D03*
%TO.P,U1,18,SDO/RX/DT/RC7*%
%TO.N,RC7*%
X115570000Y-81915000D03*
%TO.P,U1,19,VSS*%
%TO.N,GND*%
X113030000Y-81915000D03*
%TO.P,U1,20,VDD*%
%TO.N,+5V*%
X110490000Y-81915000D03*
%TO.P,U1,21,RB0/AN12/INT0/FLT0/SDI/SDA*%
%TO.N,RB0*%
X107950000Y-81915000D03*
%TO.P,U1,22,RB1/AN10/INT1/SCK/SCL*%
%TO.N,RB1*%
X105410000Y-81915000D03*
%TO.P,U1,23,RB2/AN8/INT2/VMO*%
%TO.N,RB2*%
X102870000Y-81915000D03*
%TO.P,U1,24,RB3/AN9/CCP2/VPO*%
%TO.N,RB3*%
X100330000Y-81915000D03*
%TO.P,U1,25,RB4/AN11/KBI0*%
%TO.N,RB4*%
X97790000Y-81915000D03*
%TO.P,U1,26,RB5/KBI1/PGM*%
%TO.N,RB5*%
X95250000Y-81915000D03*
%TO.P,U1,27,RB6/KBI2/PGC*%
%TO.N,RB6*%
X92710000Y-81915000D03*
%TO.P,U1,28,RB7/KBI3/PGD*%
%TO.N,RB7*%
X90170000Y-81915000D03*
%TD*%
D14*
%TO.P,SW1,1,1*%
%TO.N,MCLR*%
X65890000Y-71700000D03*
X72390000Y-71700000D03*
%TO.P,SW1,2,2*%
%TO.N,GND*%
X65890000Y-76200000D03*
X72390000Y-76200000D03*
%TD*%
D15*
%TO.P,R2,1*%
%TO.N,Net-(D1-K)*%
X85090000Y-71120000D03*
D16*
%TO.P,R2,2*%
%TO.N,GND*%
X85090000Y-76200000D03*
%TD*%
D15*
%TO.P,R1,1*%
%TO.N,+5V*%
X76200000Y-76200000D03*
D16*
%TO.P,R1,2*%
%TO.N,MCLR*%
X76200000Y-71120000D03*
%TD*%
D17*
%TO.P,J8,5,Pin_5*%
%TO.N,RB6*%
X76200000Y-65405000D03*
%TO.P,J8,4,Pin_4*%
%TO.N,RB7*%
X73660000Y-65405000D03*
%TO.P,J8,3,Pin_3*%
%TO.N,GND*%
X71120000Y-65405000D03*
%TO.P,J8,2,Pin_2*%
%TO.N,+5V*%
X68580000Y-65405000D03*
D18*
%TO.P,J8,1,Pin_1*%
%TO.N,MCLR*%
X66040000Y-65405000D03*
%TD*%
%TO.P,J7,1,Pin_1*%
%TO.N,OSC1*%
X109855000Y-97765000D03*
D17*
%TO.P,J7,2,Pin_2*%
%TO.N,GND*%
X112395000Y-97765000D03*
%TO.P,J7,3,Pin_3*%
%TO.N,OSC2*%
X114935000Y-97765000D03*
%TD*%
D18*
%TO.P,J6,1,Pin_1*%
%TO.N,RA0*%
X92710000Y-105410000D03*
D17*
%TO.P,J6,2,Pin_2*%
%TO.N,RA1*%
X95250000Y-105410000D03*
%TO.P,J6,3,Pin_3*%
%TO.N,RA2*%
X97790000Y-105410000D03*
%TO.P,J6,4,Pin_4*%
%TO.N,RA3*%
X100330000Y-105410000D03*
%TO.P,J6,5,Pin_5*%
%TO.N,RA4*%
X102870000Y-105410000D03*
%TO.P,J6,6,Pin_6*%
%TO.N,RA5*%
X105410000Y-105410000D03*
%TD*%
D18*
%TO.P,J5,1,Pin_1*%
%TO.N,RB0*%
X107950000Y-65405000D03*
D17*
%TO.P,J5,2,Pin_2*%
%TO.N,RB1*%
X105410000Y-65405000D03*
%TO.P,J5,3,Pin_3*%
%TO.N,RB2*%
X102870000Y-65405000D03*
%TO.P,J5,4,Pin_4*%
%TO.N,RB3*%
X100330000Y-65405000D03*
%TO.P,J5,5,Pin_5*%
%TO.N,RB4*%
X97790000Y-65405000D03*
%TO.P,J5,6,Pin_6*%
%TO.N,RB5*%
X95250000Y-65405000D03*
%TO.P,J5,7,Pin_7*%
%TO.N,RB6*%
X92710000Y-65405000D03*
%TO.P,J5,8,Pin_8*%
%TO.N,RB7*%
X90170000Y-65405000D03*
%TD*%
D18*
%TO.P,J4,1,Pin_1*%
%TO.N,Vu*%
X130810000Y-65405000D03*
D17*
%TO.P,J4,2,Pin_2*%
%TO.N,RC0*%
X128270000Y-65405000D03*
%TO.P,J4,3,Pin_3*%
%TO.N,RC1*%
X125730000Y-65405000D03*
%TO.P,J4,4,Pin_4*%
%TO.N,RC2*%
X123190000Y-65405000D03*
%TO.P,J4,5,Pin_5*%
%TO.N,RC4*%
X120650000Y-65405000D03*
%TO.P,J4,6,Pin_6*%
%TO.N,RC5*%
X118110000Y-65405000D03*
%TO.P,J4,7,Pin_7*%
%TO.N,RC6*%
X115570000Y-65405000D03*
%TO.P,J4,8,Pin_8*%
%TO.N,RC7*%
X113030000Y-65405000D03*
%TD*%
D18*
%TO.P,J3,1,Pin_1*%
%TO.N,GND*%
X130810000Y-86995000D03*
D17*
%TO.P,J3,2,Pin_2*%
X130810000Y-89535000D03*
%TD*%
D18*
%TO.P,J2,1,Pin_1*%
%TO.N,Vin*%
X110490000Y-105410000D03*
D17*
%TO.P,J2,2,Pin_2*%
%TO.N,GND*%
X113030000Y-105410000D03*
%TO.P,J2,3,Pin_3*%
X115570000Y-105410000D03*
%TO.P,J2,4,Pin_4*%
X118110000Y-105410000D03*
%TO.P,J2,5,Pin_5*%
X120650000Y-105410000D03*
%TO.P,J2,6,Pin_6*%
%TO.N,+5V*%
X123190000Y-105410000D03*
%TO.P,J2,7,Pin_7*%
X125730000Y-105410000D03*
%TO.P,J2,8,Pin_8*%
X128270000Y-105410000D03*
%TO.P,J2,9,Pin_9*%
X130810000Y-105410000D03*
%TD*%
D19*
%TO.P,J1,1*%
%TO.N,Vin*%
X77755000Y-100075000D03*
D20*
%TO.P,J1,2*%
%TO.N,GND*%
X71755000Y-100075000D03*
D21*
%TO.P,J1,3*%
%TO.N,N/C*%
X74755000Y-104775000D03*
%TD*%
D22*
%TO.P,D1,1,K*%
%TO.N,Net-(D1-K)*%
X80645000Y-73660000D03*
D23*
%TO.P,D1,2,A*%
%TO.N,+5V*%
X80645000Y-76200000D03*
%TD*%
D24*
%TO.P,C6,1*%
%TO.N,OSC2*%
X115570000Y-94615000D03*
%TO.P,C6,2*%
%TO.N,GND*%
X115570000Y-92115000D03*
%TD*%
%TO.P,C5,1*%
%TO.N,OSC1*%
X109220000Y-94615000D03*
%TO.P,C5,2*%
%TO.N,GND*%
X109220000Y-92115000D03*
%TD*%
%TO.P,C4,1*%
%TO.N,+5V*%
X123190000Y-100056000D03*
%TO.P,C4,2*%
%TO.N,GND*%
X120690000Y-100056000D03*
%TD*%
%TO.P,C3,1*%
%TO.N,+5V*%
X110530000Y-78105000D03*
%TO.P,C3,2*%
%TO.N,GND*%
X113030000Y-78105000D03*
%TD*%
D25*
%TO.P,C2,1*%
%TO.N,+5V*%
X84860000Y-97155000D03*
D26*
%TO.P,C2,2*%
%TO.N,GND*%
X86360000Y-97155000D03*
%TD*%
D25*
%TO.P,C1,1*%
%TO.N,Vin*%
X83725000Y-104520000D03*
D26*
%TO.P,C1,2*%
%TO.N,GND*%
X85725000Y-104520000D03*
%TD*%
D27*
%TO.N,GND*%
X69088000Y-68326000D03*
X73406000Y-67818000D03*
X104140000Y-91948000D03*
X101600000Y-91948000D03*
X99060000Y-91948000D03*
X96520000Y-91948000D03*
X93980000Y-91948000D03*
X91440000Y-78994000D03*
X93980000Y-78994000D03*
X96520000Y-78994000D03*
X99060000Y-78994000D03*
X101600000Y-78994000D03*
X104140000Y-78994000D03*
X106680000Y-78994000D03*
X129540000Y-78994000D03*
X124460000Y-78994000D03*
X121920000Y-78994000D03*
X119380000Y-78994000D03*
X116840000Y-78994000D03*
%TO.N,+5V*%
X90424000Y-100330000D03*
%TO.N,RC0*%
X128270000Y-81026000D03*
%TO.N,RC1*%
X126746000Y-85598000D03*
%TD*%
D28*
%TO.N,MCLR*%
X75216000Y-81026000D02*
X65890000Y-71700000D01*
X85598000Y-81026000D02*
X75216000Y-81026000D01*
X85598000Y-81534000D02*
X85598000Y-81026000D01*
X90170000Y-86106000D02*
X85598000Y-81534000D01*
X90170000Y-89535000D02*
X90170000Y-86106000D01*
%TO.N,OSC2*%
X114935000Y-95250000D02*
X115570000Y-94615000D01*
X114935000Y-97765000D02*
X114935000Y-95250000D01*
%TO.N,OSC1*%
X109855000Y-97765000D02*
X109855000Y-95250000D01*
X109855000Y-95250000D02*
X109220000Y-94615000D01*
%TO.N,Vin*%
X84867000Y-103378000D02*
X83725000Y-104520000D01*
X108458000Y-103378000D02*
X84867000Y-103378000D01*
X110490000Y-105410000D02*
X108585000Y-103505000D01*
%TO.N,+5V*%
X120142000Y-102362000D02*
X123190000Y-105410000D01*
X108966000Y-102362000D02*
X120142000Y-102362000D01*
X106934000Y-100330000D02*
X108966000Y-102362000D01*
X90424000Y-100330000D02*
X106934000Y-100330000D01*
D29*
%TO.N,RC0*%
X127762000Y-81534000D02*
X128270000Y-81026000D01*
X127762000Y-84074000D02*
X127762000Y-81534000D01*
X115570000Y-89535000D02*
X121031000Y-84074000D01*
X121031000Y-84074000D02*
X127762000Y-84074000D01*
%TO.N,RC1*%
X122047000Y-85598000D02*
X126746000Y-85598000D01*
X118110000Y-89535000D02*
X122047000Y-85598000D01*
D28*
%TO.N,+5V*%
X123190000Y-100056000D02*
X123190000Y-105410000D01*
X130810000Y-105410000D02*
X123190000Y-105410000D01*
%TO.N,Vin*%
X83525000Y-93767000D02*
X83525000Y-90170000D01*
X77755000Y-99537000D02*
X83525000Y-93767000D01*
X77755000Y-100075000D02*
X77755000Y-99537000D01*
X82200000Y-104520000D02*
X83725000Y-104520000D01*
X77755000Y-100075000D02*
X82200000Y-104520000D01*
X108585000Y-103505000D02*
X108458000Y-103378000D01*
%TD*%
%TA.AperFunction,Conductor*%
%TO.N,GND*%
G36*
X115104075Y-105217007D02*
G01*
X115070000Y-105344174D01*
X115070000Y-105475826D01*
X115104075Y-105602993D01*
X115136988Y-105660000D01*
X113463012Y-105660000D01*
X113495925Y-105602993D01*
X113530000Y-105475826D01*
X113530000Y-105344174D01*
X113495925Y-105217007D01*
X113463012Y-105160000D01*
X115136988Y-105160000D01*
X115104075Y-105217007D01*
G37*
%TD.AperFunction*%
%TA.AperFunction,Conductor*%
G36*
X117644075Y-105217007D02*
G01*
X117610000Y-105344174D01*
X117610000Y-105475826D01*
X117644075Y-105602993D01*
X117676988Y-105660000D01*
X116003012Y-105660000D01*
X116035925Y-105602993D01*
X116070000Y-105475826D01*
X116070000Y-105344174D01*
X116035925Y-105217007D01*
X116003012Y-105160000D01*
X117676988Y-105160000D01*
X117644075Y-105217007D01*
G37*
%TD.AperFunction*%
%TA.AperFunction,Conductor*%
G36*
X120184075Y-105217007D02*
G01*
X120150000Y-105344174D01*
X120150000Y-105475826D01*
X120184075Y-105602993D01*
X120216988Y-105660000D01*
X118543012Y-105660000D01*
X118575925Y-105602993D01*
X118610000Y-105475826D01*
X118610000Y-105344174D01*
X118575925Y-105217007D01*
X118543012Y-105160000D01*
X120216988Y-105160000D01*
X120184075Y-105217007D01*
G37*
%TD.AperFunction*%
%TA.AperFunction,Conductor*%
G36*
X119867520Y-103082185D02*
G01*
X119888162Y-103098819D01*
X120863681Y-104074338D01*
X120897166Y-104135661D01*
X120900000Y-104162019D01*
X120900000Y-104976988D01*
X120842993Y-104944075D01*
X120715826Y-104910000D01*
X120584174Y-104910000D01*
X120457007Y-104944075D01*
X120400000Y-104976988D01*
X120400000Y-104079364D01*
X120399999Y-104079364D01*
X120186513Y-104136567D01*
X120186507Y-104136570D01*
X119972422Y-104236399D01*
X119972420Y-104236400D01*
X119778926Y-104371886D01*
X119778920Y-104371891D01*
X119611891Y-104538920D01*
X119611890Y-104538922D01*
X119481575Y-104725031D01*
X119426998Y-104768655D01*
X119357499Y-104775848D01*
X119295145Y-104744326D01*
X119278425Y-104725031D01*
X119148109Y-104538922D01*
X119148108Y-104538920D01*
X118981082Y-104371894D01*
X118787578Y-104236399D01*
X118573492Y-104136570D01*
X118573486Y-104136567D01*
X118360000Y-104079364D01*
X118360000Y-104976988D01*
X118302993Y-104944075D01*
X118175826Y-104910000D01*
X118044174Y-104910000D01*
X117917007Y-104944075D01*
X117860000Y-104976988D01*
X117860000Y-104079364D01*
X117859999Y-104079364D01*
X117646513Y-104136567D01*
X117646507Y-104136570D01*
X117432422Y-104236399D01*
X117432420Y-104236400D01*
X117238926Y-104371886D01*
X117238920Y-104371891D01*
X117071891Y-104538920D01*
X117071890Y-104538922D01*
X116941575Y-104725031D01*
X116886998Y-104768655D01*
X116817499Y-104775848D01*
X116755145Y-104744326D01*
X116738425Y-104725031D01*
X116608109Y-104538922D01*
X116608108Y-104538920D01*
X116441082Y-104371894D01*
X116247578Y-104236399D01*
X116033492Y-104136570D01*
X116033486Y-104136567D01*
X115820000Y-104079364D01*
X115820000Y-104976988D01*
X115762993Y-104944075D01*
X115635826Y-104910000D01*
X115504174Y-104910000D01*
X115377007Y-104944075D01*
X115320000Y-104976988D01*
X115320000Y-104079364D01*
X115319999Y-104079364D01*
X115106513Y-104136567D01*
X115106507Y-104136570D01*
X114892422Y-104236399D01*
X114892420Y-104236400D01*
X114698926Y-104371886D01*
X114698920Y-104371891D01*
X114531891Y-104538920D01*
X114531890Y-104538922D01*
X114401575Y-104725031D01*
X114346998Y-104768655D01*
X114277499Y-104775848D01*
X114215145Y-104744326D01*
X114198425Y-104725031D01*
X114068109Y-104538922D01*
X114068108Y-104538920D01*
X113901082Y-104371894D01*
X113707578Y-104236399D01*
X113493492Y-104136570D01*
X113493486Y-104136567D01*
X113280000Y-104079364D01*
X113280000Y-104976988D01*
X113222993Y-104944075D01*
X113095826Y-104910000D01*
X112964174Y-104910000D01*
X112837007Y-104944075D01*
X112780000Y-104976988D01*
X112780000Y-104079364D01*
X112779999Y-104079364D01*
X112566513Y-104136567D01*
X112566507Y-104136570D01*
X112352422Y-104236399D01*
X112352420Y-104236400D01*
X112158926Y-104371886D01*
X112036865Y-104493947D01*
X111975542Y-104527431D01*
X111905850Y-104522447D01*
X111849917Y-104480575D01*
X111833002Y-104449598D01*
X111783797Y-104317671D01*
X111783793Y-104317664D01*
X111697547Y-104202455D01*
X111697544Y-104202452D01*
X111582335Y-104116206D01*
X111582328Y-104116202D01*
X111447482Y-104065908D01*
X111447483Y-104065908D01*
X111387883Y-104059501D01*
X111387881Y-104059500D01*
X111387873Y-104059500D01*
X111387865Y-104059500D01*
X110181519Y-104059500D01*
X110114480Y-104039815D01*
X110093838Y-104023181D01*
X109344838Y-103274181D01*
X109311353Y-103212858D01*
X109316337Y-103143166D01*
X109358209Y-103087233D01*
X109423673Y-103062816D01*
X109432519Y-103062500D01*
X119800481Y-103062500D01*
X119867520Y-103082185D01*
G37*
%TD.AperFunction*%
%TA.AperFunction,Conductor*%
G36*
X131060000Y-89101988D02*
G01*
X131002993Y-89069075D01*
X130875826Y-89035000D01*
X130744174Y-89035000D01*
X130617007Y-89069075D01*
X130560000Y-89101988D01*
X130560000Y-87428012D01*
X130617007Y-87460925D01*
X130744174Y-87495000D01*
X130875826Y-87495000D01*
X131002993Y-87460925D01*
X131060000Y-87428012D01*
X131060000Y-89101988D01*
G37*
%TD.AperFunction*%
%TA.AperFunction,Conductor*%
G36*
X133427539Y-62242185D02*
G01*
X133473294Y-62294989D01*
X133484500Y-62346500D01*
X133484500Y-108468500D01*
X133464815Y-108535539D01*
X133412011Y-108581294D01*
X133360500Y-108592500D01*
X64124500Y-108592500D01*
X64057461Y-108572815D01*
X64011706Y-108520011D01*
X64000500Y-108468500D01*
X64000500Y-103806386D01*
X72504500Y-103806386D01*
X72504500Y-105743613D01*
X72504501Y-105743652D01*
X72507295Y-105796243D01*
X72507295Y-105796244D01*
X72522706Y-105875925D01*
X72551755Y-106026126D01*
X72587088Y-106119752D01*
X72634425Y-106245189D01*
X72752929Y-106447131D01*
X72752934Y-106447138D01*
X72903856Y-106626141D01*
X72903858Y-106626143D01*
X73082861Y-106777065D01*
X73082868Y-106777070D01*
X73284810Y-106895574D01*
X73503874Y-106978245D01*
X73733759Y-107022705D01*
X73786378Y-107025500D01*
X73786386Y-107025500D01*
X75723614Y-107025500D01*
X75723622Y-107025500D01*
X75776241Y-107022705D01*
X76006126Y-106978245D01*
X76225190Y-106895574D01*
X76427132Y-106777070D01*
X76446786Y-106760499D01*
X76606141Y-106626143D01*
X76606143Y-106626141D01*
X76757065Y-106447138D01*
X76757065Y-106447137D01*
X76757070Y-106447132D01*
X76875574Y-106245190D01*
X76958245Y-106026126D01*
X77002705Y-105796241D01*
X77005500Y-105743622D01*
X77005500Y-103806378D01*
X77002705Y-103753759D01*
X76958245Y-103523874D01*
X76875574Y-103304810D01*
X76757070Y-103102868D01*
X76757065Y-103102861D01*
X76606143Y-102923858D01*
X76606141Y-102923856D01*
X76427138Y-102772934D01*
X76427131Y-102772929D01*
X76225189Y-102654425D01*
X76127513Y-102617564D01*
X76006126Y-102571755D01*
X76006121Y-102571754D01*
X76006116Y-102571752D01*
X76003470Y-102571240D01*
X76002451Y-102570713D01*
X76001050Y-102570317D01*
X76001130Y-102570031D01*
X75941392Y-102539177D01*
X75906503Y-102478641D01*
X75909881Y-102408853D01*
X75950452Y-102351970D01*
X76015337Y-102326052D01*
X76027009Y-102325499D01*
X78963480Y-102325499D01*
X79030519Y-102345184D01*
X79051161Y-102361818D01*
X81753457Y-105064114D01*
X81799409Y-105094817D01*
X81799411Y-105094819D01*
X81799412Y-105094819D01*
X81868189Y-105140775D01*
X81933608Y-105167872D01*
X81933609Y-105167873D01*
X81949840Y-105174596D01*
X81995671Y-105193580D01*
X81995680Y-105193581D01*
X81995681Y-105193582D01*
X82022545Y-105198925D01*
X82022551Y-105198926D01*
X82022591Y-105198934D01*
X82112937Y-105216905D01*
X82131006Y-105220500D01*
X82131007Y-105220500D01*
X82542209Y-105220500D01*
X82609248Y-105240185D01*
X82655003Y-105292989D01*
X82658391Y-105301167D01*
X82681202Y-105362328D01*
X82681206Y-105362335D01*
X82767452Y-105477544D01*
X82767455Y-105477547D01*
X82882664Y-105563793D01*
X82882671Y-105563797D01*
X83017517Y-105614091D01*
X83017516Y-105614091D01*
X83024444Y-105614835D01*
X83077127Y-105620500D01*
X84372872Y-105620499D01*
X84432483Y-105614091D01*
X84567331Y-105563796D01*
X84682546Y-105477546D01*
X84699993Y-105454240D01*
X85144311Y-105454240D01*
X85232585Y-105508897D01*
X85422678Y-105582539D01*
X85623072Y-105620000D01*
X85826928Y-105620000D01*
X86027322Y-105582539D01*
X86217412Y-105508899D01*
X86217416Y-105508897D01*
X86305686Y-105454241D01*
X86305686Y-105454240D01*
X85725001Y-104873553D01*
X85725000Y-104873553D01*
X85144311Y-105454240D01*
X84699993Y-105454240D01*
X84768796Y-105362331D01*
X84819091Y-105227483D01*
X84820217Y-105217007D01*
X84825499Y-105167886D01*
X84825500Y-105167871D01*
X84825500Y-105160000D01*
X84825499Y-105117305D01*
X84845182Y-105050269D01*
X84861818Y-105029626D01*
X85430145Y-104461298D01*
X85425000Y-104480504D01*
X85425000Y-104559496D01*
X85445444Y-104635796D01*
X85484940Y-104704205D01*
X85540795Y-104760060D01*
X85609204Y-104799556D01*
X85685504Y-104820000D01*
X85764496Y-104820000D01*
X85840796Y-104799556D01*
X85909205Y-104760060D01*
X85965060Y-104704205D01*
X86004556Y-104635796D01*
X86025000Y-104559496D01*
X86025000Y-104480504D01*
X86019854Y-104461301D01*
X86662465Y-105103912D01*
X86664247Y-105101553D01*
X86664248Y-105101551D01*
X86755113Y-104919069D01*
X86755116Y-104919063D01*
X86810902Y-104722992D01*
X86810903Y-104722989D01*
X86829713Y-104520000D01*
X86829713Y-104519999D01*
X86810903Y-104317011D01*
X86787977Y-104236435D01*
X86788563Y-104166567D01*
X86826830Y-104108109D01*
X86890627Y-104079618D01*
X86907243Y-104078500D01*
X91347524Y-104078500D01*
X91414563Y-104098185D01*
X91460318Y-104150989D01*
X91470262Y-104220147D01*
X91446790Y-104276812D01*
X91416204Y-104317668D01*
X91416202Y-104317671D01*
X91365908Y-104452517D01*
X91359501Y-104512116D01*
X91359500Y-104512135D01*
X91359500Y-106307870D01*
X91359501Y-106307876D01*
X91365908Y-106367483D01*
X91416202Y-106502328D01*
X91416206Y-106502335D01*
X91502452Y-106617544D01*
X91502455Y-106617547D01*
X91617664Y-106703793D01*
X91617671Y-106703797D01*
X91752517Y-106754091D01*
X91752516Y-106754091D01*
X91759444Y-106754835D01*
X91812127Y-106760500D01*
X93607872Y-106760499D01*
X93667483Y-106754091D01*
X93802331Y-106703796D01*
X93917546Y-106617546D01*
X94003796Y-106502331D01*
X94052810Y-106370916D01*
X94094681Y-106314984D01*
X94160145Y-106290566D01*
X94228418Y-106305417D01*
X94256673Y-106326569D01*
X94378599Y-106448495D01*
X94475384Y-106516265D01*
X94572165Y-106584032D01*
X94572167Y-106584033D01*
X94572170Y-106584035D01*
X94786337Y-106683903D01*
X95014592Y-106745063D01*
X95191034Y-106760500D01*
X95249999Y-106765659D01*
X95250000Y-106765659D01*
X95250001Y-106765659D01*
X95308966Y-106760500D01*
X95485408Y-106745063D01*
X95713663Y-106683903D01*
X95927830Y-106584035D01*
X96121401Y-106448495D01*
X96288495Y-106281401D01*
X96418425Y-106095842D01*
X96473002Y-106052217D01*
X96542500Y-106045023D01*
X96604855Y-106076546D01*
X96621575Y-106095842D01*
X96751500Y-106281395D01*
X96751505Y-106281401D01*
X96918599Y-106448495D01*
X97015384Y-106516265D01*
X97112165Y-106584032D01*
X97112167Y-106584033D01*
X97112170Y-106584035D01*
X97326337Y-106683903D01*
X97554592Y-106745063D01*
X97731034Y-106760500D01*
X97789999Y-106765659D01*
X97790000Y-106765659D01*
X97790001Y-106765659D01*
X97848966Y-106760500D01*
X98025408Y-106745063D01*
X98253663Y-106683903D01*
X98467830Y-106584035D01*
X98661401Y-106448495D01*
X98828495Y-106281401D01*
X98958425Y-106095842D01*
X99013002Y-106052217D01*
X99082500Y-106045023D01*
X99144855Y-106076546D01*
X99161575Y-106095842D01*
X99291500Y-106281395D01*
X99291505Y-106281401D01*
X99458599Y-106448495D01*
X99555384Y-106516265D01*
X99652165Y-106584032D01*
X99652167Y-106584033D01*
X99652170Y-106584035D01*
X99866337Y-106683903D01*
X100094592Y-106745063D01*
X100271034Y-106760500D01*
X100329999Y-106765659D01*
X100330000Y-106765659D01*
X100330001Y-106765659D01*
X100388966Y-106760500D01*
X100565408Y-106745063D01*
X100793663Y-106683903D01*
X101007830Y-106584035D01*
X101201401Y-106448495D01*
X101368495Y-106281401D01*
X101498425Y-106095842D01*
X101553002Y-106052217D01*
X101622500Y-106045023D01*
X101684855Y-106076546D01*
X101701575Y-106095842D01*
X101831500Y-106281395D01*
X101831505Y-106281401D01*
X101998599Y-106448495D01*
X102095384Y-106516265D01*
X102192165Y-106584032D01*
X102192167Y-106584033D01*
X102192170Y-106584035D01*
X102406337Y-106683903D01*
X102634592Y-106745063D01*
X102811034Y-106760500D01*
X102869999Y-106765659D01*
X102870000Y-106765659D01*
X102870001Y-106765659D01*
X102928966Y-106760500D01*
X103105408Y-106745063D01*
X103333663Y-106683903D01*
X103547830Y-106584035D01*
X103741401Y-106448495D01*
X103908495Y-106281401D01*
X104038425Y-106095842D01*
X104093002Y-106052217D01*
X104162500Y-106045023D01*
X104224855Y-106076546D01*
X104241575Y-106095842D01*
X104371500Y-106281395D01*
X104371505Y-106281401D01*
X104538599Y-106448495D01*
X104635384Y-106516265D01*
X104732165Y-106584032D01*
X104732167Y-106584033D01*
X104732170Y-106584035D01*
X104946337Y-106683903D01*
X105174592Y-106745063D01*
X105351034Y-106760500D01*
X105409999Y-106765659D01*
X105410000Y-106765659D01*
X105410001Y-106765659D01*
X105468966Y-106760500D01*
X105645408Y-106745063D01*
X105873663Y-106683903D01*
X106087830Y-106584035D01*
X106281401Y-106448495D01*
X106448495Y-106281401D01*
X106584035Y-106087830D01*
X106683903Y-105873663D01*
X106745063Y-105645408D01*
X106765659Y-105410000D01*
X106745063Y-105174592D01*
X106683903Y-104946337D01*
X106584035Y-104732171D01*
X106578425Y-104724158D01*
X106448494Y-104538597D01*
X106281402Y-104371506D01*
X106281401Y-104371505D01*
X106185100Y-104304074D01*
X106141477Y-104249498D01*
X106134284Y-104179999D01*
X106165806Y-104117645D01*
X106226036Y-104082231D01*
X106256225Y-104078500D01*
X108116481Y-104078500D01*
X108183520Y-104098185D01*
X108204162Y-104114819D01*
X109103181Y-105013838D01*
X109136666Y-105075161D01*
X109139500Y-105101519D01*
X109139500Y-106307870D01*
X109139501Y-106307876D01*
X109145908Y-106367483D01*
X109196202Y-106502328D01*
X109196206Y-106502335D01*
X109282452Y-106617544D01*
X109282455Y-106617547D01*
X109397664Y-106703793D01*
X109397671Y-106703797D01*
X109532517Y-106754091D01*
X109532516Y-106754091D01*
X109539444Y-106754835D01*
X109592127Y-106760500D01*
X111387872Y-106760499D01*
X111447483Y-106754091D01*
X111582331Y-106703796D01*
X111697546Y-106617546D01*
X111783796Y-106502331D01*
X111833002Y-106370401D01*
X111874872Y-106314468D01*
X111940337Y-106290050D01*
X112008610Y-106304901D01*
X112036865Y-106326053D01*
X112158917Y-106448105D01*
X112352421Y-106583600D01*
X112566507Y-106683429D01*
X112566516Y-106683433D01*
X112780000Y-106740634D01*
X112780000Y-105843012D01*
X112837007Y-105875925D01*
X112964174Y-105910000D01*
X113095826Y-105910000D01*
X113222993Y-105875925D01*
X113280000Y-105843012D01*
X113280000Y-106740633D01*
X113493483Y-106683433D01*
X113493492Y-106683429D01*
X113707578Y-106583600D01*
X113901082Y-106448105D01*
X114068105Y-106281082D01*
X114198425Y-106094968D01*
X114253002Y-106051344D01*
X114322501Y-106044151D01*
X114384855Y-106075673D01*
X114401575Y-106094968D01*
X114531894Y-106281082D01*
X114698917Y-106448105D01*
X114892421Y-106583600D01*
X115106507Y-106683429D01*
X115106516Y-106683433D01*
X115320000Y-106740634D01*
X115320000Y-105843012D01*
X115377007Y-105875925D01*
X115504174Y-105910000D01*
X115635826Y-105910000D01*
X115762993Y-105875925D01*
X115820000Y-105843012D01*
X115820000Y-106740633D01*
X116033483Y-106683433D01*
X116033492Y-106683429D01*
X116247578Y-106583600D01*
X116441082Y-106448105D01*
X116608105Y-106281082D01*
X116738425Y-106094968D01*
X116793002Y-106051344D01*
X116862501Y-106044151D01*
X116924855Y-106075673D01*
X116941575Y-106094968D01*
X117071894Y-106281082D01*
X117238917Y-106448105D01*
X117432421Y-106583600D01*
X117646507Y-106683429D01*
X117646516Y-106683433D01*
X117860000Y-106740634D01*
X117860000Y-105843012D01*
X117917007Y-105875925D01*
X118044174Y-105910000D01*
X118175826Y-105910000D01*
X118302993Y-105875925D01*
X118360000Y-105843012D01*
X118360000Y-106740633D01*
X118573483Y-106683433D01*
X118573492Y-106683429D01*
X118787578Y-106583600D01*
X118981082Y-106448105D01*
X119148105Y-106281082D01*
X119278425Y-106094968D01*
X119333002Y-106051344D01*
X119402501Y-106044151D01*
X119464855Y-106075673D01*
X119481575Y-106094968D01*
X119611894Y-106281082D01*
X119778917Y-106448105D01*
X119972421Y-106583600D01*
X120186507Y-106683429D01*
X120186516Y-106683433D01*
X120400000Y-106740634D01*
X120400000Y-105843012D01*
X120457007Y-105875925D01*
X120584174Y-105910000D01*
X120715826Y-105910000D01*
X120842993Y-105875925D01*
X120900000Y-105843012D01*
X120900000Y-106740633D01*
X121113483Y-106683433D01*
X121113492Y-106683429D01*
X121327578Y-106583600D01*
X121521082Y-106448105D01*
X121688105Y-106281082D01*
X121818119Y-106095405D01*
X121872696Y-106051781D01*
X121942195Y-106044588D01*
X122004549Y-106076110D01*
X122021269Y-106095405D01*
X122151505Y-106281401D01*
X122318599Y-106448495D01*
X122415384Y-106516265D01*
X122512165Y-106584032D01*
X122512167Y-106584033D01*
X122512170Y-106584035D01*
X122726337Y-106683903D01*
X122954592Y-106745063D01*
X123131034Y-106760500D01*
X123189999Y-106765659D01*
X123190000Y-106765659D01*
X123190001Y-106765659D01*
X123248966Y-106760500D01*
X123425408Y-106745063D01*
X123653663Y-106683903D01*
X123867830Y-106584035D01*
X124061401Y-106448495D01*
X124228495Y-106281401D01*
X124311136Y-106163376D01*
X124365713Y-106119752D01*
X124412711Y-106110500D01*
X124507289Y-106110500D01*
X124574328Y-106130185D01*
X124608864Y-106163377D01*
X124691505Y-106281402D01*
X124777587Y-106367483D01*
X124858599Y-106448495D01*
X124955384Y-106516265D01*
X125052165Y-106584032D01*
X125052167Y-106584033D01*
X125052170Y-106584035D01*
X125266337Y-106683903D01*
X125494592Y-106745063D01*
X125671034Y-106760500D01*
X125729999Y-106765659D01*
X125730000Y-106765659D01*
X125730001Y-106765659D01*
X125788966Y-106760500D01*
X125965408Y-106745063D01*
X126193663Y-106683903D01*
X126407830Y-106584035D01*
X126601401Y-106448495D01*
X126768495Y-106281401D01*
X126851136Y-106163376D01*
X126905713Y-106119752D01*
X126952711Y-106110500D01*
X127047289Y-106110500D01*
X127114328Y-106130185D01*
X127148864Y-106163377D01*
X127231505Y-106281402D01*
X127317587Y-106367483D01*
X127398599Y-106448495D01*
X127495384Y-106516265D01*
X127592165Y-106584032D01*
X127592167Y-106584033D01*
X127592170Y-106584035D01*
X127806337Y-106683903D01*
X128034592Y-106745063D01*
X128211034Y-106760500D01*
X128269999Y-106765659D01*
X128270000Y-106765659D01*
X128270001Y-106765659D01*
X128328966Y-106760500D01*
X128505408Y-106745063D01*
X128733663Y-106683903D01*
X128947830Y-106584035D01*
X129141401Y-106448495D01*
X129308495Y-106281401D01*
X129391136Y-106163376D01*
X129445713Y-106119752D01*
X129492711Y-106110500D01*
X129587289Y-106110500D01*
X129654328Y-106130185D01*
X129688864Y-106163377D01*
X129771505Y-106281402D01*
X129857587Y-106367483D01*
X129938599Y-106448495D01*
X130035384Y-106516265D01*
X130132165Y-106584032D01*
X130132167Y-106584033D01*
X130132170Y-106584035D01*
X130346337Y-106683903D01*
X130574592Y-106745063D01*
X130751034Y-106760500D01*
X130809999Y-106765659D01*
X130810000Y-106765659D01*
X130810001Y-106765659D01*
X130868966Y-106760500D01*
X131045408Y-106745063D01*
X131273663Y-106683903D01*
X131487830Y-106584035D01*
X131681401Y-106448495D01*
X131848495Y-106281401D01*
X131984035Y-106087830D01*
X132083903Y-105873663D01*
X132145063Y-105645408D01*
X132165659Y-105410000D01*
X132145063Y-105174592D01*
X132083903Y-104946337D01*
X131984035Y-104732171D01*
X131978425Y-104724158D01*
X131848494Y-104538597D01*
X131681402Y-104371506D01*
X131681395Y-104371501D01*
X131487834Y-104235967D01*
X131487830Y-104235965D01*
X131435039Y-104211348D01*
X131273663Y-104136097D01*
X131273659Y-104136096D01*
X131273655Y-104136094D01*
X131045413Y-104074938D01*
X131045403Y-104074936D01*
X130810001Y-104054341D01*
X130809999Y-104054341D01*
X130574596Y-104074936D01*
X130574586Y-104074938D01*
X130346344Y-104136094D01*
X130346335Y-104136098D01*
X130132171Y-104235964D01*
X130132169Y-104235965D01*
X129938597Y-104371505D01*
X129771506Y-104538596D01*
X129688864Y-104656623D01*
X129634287Y-104700248D01*
X129587289Y-104709500D01*
X129492711Y-104709500D01*
X129425672Y-104689815D01*
X129391136Y-104656623D01*
X129308494Y-104538597D01*
X129141402Y-104371506D01*
X129141395Y-104371501D01*
X128947834Y-104235967D01*
X128947830Y-104235965D01*
X128895039Y-104211348D01*
X128733663Y-104136097D01*
X128733659Y-104136096D01*
X128733655Y-104136094D01*
X128505413Y-104074938D01*
X128505403Y-104074936D01*
X128270001Y-104054341D01*
X128269999Y-104054341D01*
X128034596Y-104074936D01*
X128034586Y-104074938D01*
X127806344Y-104136094D01*
X127806335Y-104136098D01*
X127592171Y-104235964D01*
X127592169Y-104235965D01*
X127398597Y-104371505D01*
X127231506Y-104538596D01*
X127148864Y-104656623D01*
X127094287Y-104700248D01*
X127047289Y-104709500D01*
X126952711Y-104709500D01*
X126885672Y-104689815D01*
X126851136Y-104656623D01*
X126768494Y-104538597D01*
X126601402Y-104371506D01*
X126601395Y-104371501D01*
X126407834Y-104235967D01*
X126407830Y-104235965D01*
X126355039Y-104211348D01*
X126193663Y-104136097D01*
X126193659Y-104136096D01*
X126193655Y-104136094D01*
X125965413Y-104074938D01*
X125965403Y-104074936D01*
X125730001Y-104054341D01*
X125729999Y-104054341D01*
X125494596Y-104074936D01*
X125494586Y-104074938D01*
X125266344Y-104136094D01*
X125266335Y-104136098D01*
X125052171Y-104235964D01*
X125052169Y-104235965D01*
X124858597Y-104371505D01*
X124691506Y-104538596D01*
X124608864Y-104656623D01*
X124554287Y-104700248D01*
X124507289Y-104709500D01*
X124412711Y-104709500D01*
X124345672Y-104689815D01*
X124311136Y-104656623D01*
X124228494Y-104538597D01*
X124061404Y-104371508D01*
X124061402Y-104371506D01*
X124061401Y-104371505D01*
X124061396Y-104371501D01*
X124061393Y-104371499D01*
X123943376Y-104288861D01*
X123899751Y-104234284D01*
X123890500Y-104187287D01*
X123890500Y-101217672D01*
X123910185Y-101150633D01*
X123943375Y-101116098D01*
X124029139Y-101056047D01*
X124190047Y-100895139D01*
X124320568Y-100708734D01*
X124416739Y-100502496D01*
X124475635Y-100282692D01*
X124495468Y-100056000D01*
X124475635Y-99829308D01*
X124416739Y-99609504D01*
X124320568Y-99403266D01*
X124190047Y-99216861D01*
X124190045Y-99216858D01*
X124029141Y-99055954D01*
X123842734Y-98925432D01*
X123842732Y-98925431D01*
X123636497Y-98829261D01*
X123636488Y-98829258D01*
X123416697Y-98770366D01*
X123416693Y-98770365D01*
X123416692Y-98770365D01*
X123416691Y-98770364D01*
X123416686Y-98770364D01*
X123190002Y-98750532D01*
X123189998Y-98750532D01*
X122963313Y-98770364D01*
X122963302Y-98770366D01*
X122743511Y-98829258D01*
X122743502Y-98829261D01*
X122537267Y-98925431D01*
X122537265Y-98925432D01*
X122350858Y-99055954D01*
X122189954Y-99216858D01*
X122059432Y-99403265D01*
X122059429Y-99403270D01*
X122052104Y-99418979D01*
X122005929Y-99471417D01*
X121938735Y-99490566D01*
X121871855Y-99470347D01*
X121827341Y-99418973D01*
X121820133Y-99403515D01*
X121820132Y-99403513D01*
X121769025Y-99330526D01*
X121090000Y-100009551D01*
X121090000Y-100003339D01*
X121062741Y-99901606D01*
X121010080Y-99810394D01*
X120935606Y-99735920D01*
X120844394Y-99683259D01*
X120742661Y-99656000D01*
X120736448Y-99656000D01*
X121415472Y-98976974D01*
X121342478Y-98925863D01*
X121136331Y-98829735D01*
X121136317Y-98829730D01*
X120916610Y-98770860D01*
X120916599Y-98770858D01*
X120690002Y-98751034D01*
X120689998Y-98751034D01*
X120463400Y-98770858D01*
X120463389Y-98770860D01*
X120243682Y-98829730D01*
X120243673Y-98829734D01*
X120037516Y-98925866D01*
X120037512Y-98925868D01*
X119964526Y-98976973D01*
X119964526Y-98976974D01*
X120643553Y-99656000D01*
X120637339Y-99656000D01*
X120535606Y-99683259D01*
X120444394Y-99735920D01*
X120369920Y-99810394D01*
X120317259Y-99901606D01*
X120290000Y-100003339D01*
X120290000Y-100009552D01*
X119610974Y-99330526D01*
X119610973Y-99330526D01*
X119559868Y-99403512D01*
X119559866Y-99403516D01*
X119463734Y-99609673D01*
X119463730Y-99609682D01*
X119404860Y-99829389D01*
X119404858Y-99829400D01*
X119385034Y-100055997D01*
X119385034Y-100056002D01*
X119404858Y-100282599D01*
X119404860Y-100282610D01*
X119463730Y-100502317D01*
X119463735Y-100502331D01*
X119559863Y-100708478D01*
X119610974Y-100781472D01*
X120290000Y-100102446D01*
X120290000Y-100108661D01*
X120317259Y-100210394D01*
X120369920Y-100301606D01*
X120444394Y-100376080D01*
X120535606Y-100428741D01*
X120637339Y-100456000D01*
X120643553Y-100456000D01*
X119964526Y-101135025D01*
X120037513Y-101186132D01*
X120037521Y-101186136D01*
X120243668Y-101282264D01*
X120243682Y-101282269D01*
X120463389Y-101341139D01*
X120463400Y-101341141D01*
X120689998Y-101360966D01*
X120690002Y-101360966D01*
X120916599Y-101341141D01*
X120916610Y-101341139D01*
X121136317Y-101282269D01*
X121136331Y-101282264D01*
X121342478Y-101186136D01*
X121415471Y-101135024D01*
X120736447Y-100456000D01*
X120742661Y-100456000D01*
X120844394Y-100428741D01*
X120935606Y-100376080D01*
X121010080Y-100301606D01*
X121062741Y-100210394D01*
X121090000Y-100108661D01*
X121090000Y-100102447D01*
X121769024Y-100781471D01*
X121820134Y-100708481D01*
X121827340Y-100693028D01*
X121873511Y-100640587D01*
X121940704Y-100621433D01*
X122007585Y-100641646D01*
X122052105Y-100693022D01*
X122059430Y-100708730D01*
X122059432Y-100708734D01*
X122189954Y-100895141D01*
X122350857Y-101056044D01*
X122350860Y-101056046D01*
X122350861Y-101056047D01*
X122436623Y-101116097D01*
X122480248Y-101170673D01*
X122489500Y-101217672D01*
X122489500Y-103419480D01*
X122469815Y-103486519D01*
X122417011Y-103532274D01*
X122347853Y-103542218D01*
X122284297Y-103513193D01*
X122277819Y-103507161D01*
X120588545Y-101817887D01*
X120473807Y-101741222D01*
X120346332Y-101688421D01*
X120346322Y-101688418D01*
X120210996Y-101661500D01*
X120210994Y-101661500D01*
X120210993Y-101661500D01*
X109307519Y-101661500D01*
X109240480Y-101641815D01*
X109219838Y-101625181D01*
X107380546Y-99785888D01*
X107380545Y-99785887D01*
X107265807Y-99709222D01*
X107138332Y-99656421D01*
X107138322Y-99656418D01*
X107002996Y-99629500D01*
X107002994Y-99629500D01*
X107002993Y-99629500D01*
X90849494Y-99629500D01*
X90783523Y-99610494D01*
X90773525Y-99604212D01*
X90603254Y-99544631D01*
X90603249Y-99544630D01*
X90424004Y-99524435D01*
X90423996Y-99524435D01*
X90244750Y-99544630D01*
X90244745Y-99544631D01*
X90074476Y-99604211D01*
X89921737Y-99700184D01*
X89794184Y-99827737D01*
X89698211Y-99980476D01*
X89638631Y-100150745D01*
X89638630Y-100150750D01*
X89618435Y-100329996D01*
X89618435Y-100330003D01*
X89638630Y-100509249D01*
X89638631Y-100509254D01*
X89698211Y-100679523D01*
X89716566Y-100708734D01*
X89794184Y-100832262D01*
X89921738Y-100959816D01*
X90012080Y-101016582D01*
X90074474Y-101055787D01*
X90074478Y-101055789D01*
X90244745Y-101115368D01*
X90244750Y-101115369D01*
X90423996Y-101135565D01*
X90424000Y-101135565D01*
X90424004Y-101135565D01*
X90603249Y-101115369D01*
X90603252Y-101115368D01*
X90603255Y-101115368D01*
X90773522Y-101055789D01*
X90774488Y-101055181D01*
X90783523Y-101049506D01*
X90849494Y-101030500D01*
X106592481Y-101030500D01*
X106659520Y-101050185D01*
X106680162Y-101066819D01*
X108079162Y-102465819D01*
X108112647Y-102527142D01*
X108107663Y-102596834D01*
X108065791Y-102652767D01*
X108000327Y-102677184D01*
X107991481Y-102677500D01*
X84798004Y-102677500D01*
X84662677Y-102704418D01*
X84662667Y-102704421D01*
X84535192Y-102757222D01*
X84420454Y-102833887D01*
X83871160Y-103383181D01*
X83809837Y-103416666D01*
X83783479Y-103419500D01*
X83077129Y-103419500D01*
X83077123Y-103419501D01*
X83017516Y-103425908D01*
X82882671Y-103476202D01*
X82882664Y-103476206D01*
X82767455Y-103562452D01*
X82767452Y-103562455D01*
X82681206Y-103677664D01*
X82681202Y-103677671D01*
X82658391Y-103738833D01*
X82616520Y-103794767D01*
X82551056Y-103819184D01*
X82542209Y-103819500D01*
X82541519Y-103819500D01*
X82474480Y-103799815D01*
X82453838Y-103783181D01*
X80041818Y-101371161D01*
X80008333Y-101309838D01*
X80005499Y-101283480D01*
X80005499Y-98328519D01*
X80025184Y-98261480D01*
X80041818Y-98240838D01*
X81775521Y-96507135D01*
X83759500Y-96507135D01*
X83759500Y-97802870D01*
X83759501Y-97802876D01*
X83765908Y-97862483D01*
X83816202Y-97997328D01*
X83816206Y-97997335D01*
X83902452Y-98112544D01*
X83902455Y-98112547D01*
X84017664Y-98198793D01*
X84017671Y-98198797D01*
X84152517Y-98249091D01*
X84152516Y-98249091D01*
X84159444Y-98249835D01*
X84212127Y-98255500D01*
X85507872Y-98255499D01*
X85567483Y-98249091D01*
X85702329Y-98198797D01*
X85702329Y-98198796D01*
X85702331Y-98198796D01*
X85751993Y-98161618D01*
X85817454Y-98137201D01*
X85871097Y-98145258D01*
X86057678Y-98217539D01*
X86258072Y-98255000D01*
X86461928Y-98255000D01*
X86662322Y-98217539D01*
X86852412Y-98143899D01*
X86852416Y-98143897D01*
X86940686Y-98089241D01*
X86940686Y-98089240D01*
X86301300Y-97449854D01*
X86320504Y-97455000D01*
X86399496Y-97455000D01*
X86475796Y-97434556D01*
X86544205Y-97395060D01*
X86600060Y-97339205D01*
X86639556Y-97270796D01*
X86660000Y-97194496D01*
X86660000Y-97155000D01*
X86713553Y-97155000D01*
X87297465Y-97738912D01*
X87299247Y-97736553D01*
X87299248Y-97736551D01*
X87390113Y-97554069D01*
X87390116Y-97554063D01*
X87445902Y-97357992D01*
X87445903Y-97357989D01*
X87464713Y-97155000D01*
X87464713Y-97154999D01*
X87445903Y-96952010D01*
X87445902Y-96952007D01*
X87390116Y-96755936D01*
X87390113Y-96755930D01*
X87299249Y-96573449D01*
X87299247Y-96573447D01*
X87297465Y-96571087D01*
X86713553Y-97155000D01*
X86660000Y-97155000D01*
X86660000Y-97115504D01*
X86639556Y-97039204D01*
X86600060Y-96970795D01*
X86544205Y-96914940D01*
X86475796Y-96875444D01*
X86399496Y-96855000D01*
X86320504Y-96855000D01*
X86301301Y-96860145D01*
X86360000Y-96801447D01*
X86940687Y-96220758D01*
X86852413Y-96166101D01*
X86852411Y-96166100D01*
X86662321Y-96092460D01*
X86461928Y-96055000D01*
X86258072Y-96055000D01*
X86057677Y-96092460D01*
X85871098Y-96164741D01*
X85801474Y-96170603D01*
X85751993Y-96148381D01*
X85702331Y-96111204D01*
X85702329Y-96111203D01*
X85702328Y-96111202D01*
X85567482Y-96060908D01*
X85567483Y-96060908D01*
X85507883Y-96054501D01*
X85507881Y-96054500D01*
X85507873Y-96054500D01*
X85507864Y-96054500D01*
X84212129Y-96054500D01*
X84212123Y-96054501D01*
X84152516Y-96060908D01*
X84017671Y-96111202D01*
X84017664Y-96111206D01*
X83902455Y-96197452D01*
X83902452Y-96197455D01*
X83816206Y-96312664D01*
X83816202Y-96312671D01*
X83765908Y-96447517D01*
X83759501Y-96507116D01*
X83759500Y-96507135D01*
X81775521Y-96507135D01*
X84069111Y-94213546D01*
X84069112Y-94213545D01*
X84069112Y-94213544D01*
X84069114Y-94213543D01*
X84145775Y-94098811D01*
X84198580Y-93971329D01*
X84209884Y-93914500D01*
X84225500Y-93835993D01*
X84225500Y-91746999D01*
X84245185Y-91679960D01*
X84297989Y-91634205D01*
X84349500Y-91622999D01*
X84572871Y-91622999D01*
X84572872Y-91622999D01*
X84632483Y-91616591D01*
X84767331Y-91566296D01*
X84882546Y-91480046D01*
X84968796Y-91364831D01*
X85019091Y-91229983D01*
X85025500Y-91170373D01*
X85025499Y-89169628D01*
X85019091Y-89110017D01*
X85011067Y-89088504D01*
X84968797Y-88975171D01*
X84968793Y-88975164D01*
X84882547Y-88859955D01*
X84882544Y-88859952D01*
X84767335Y-88773706D01*
X84767326Y-88773701D01*
X84738974Y-88763127D01*
X84683040Y-88721257D01*
X84658622Y-88655792D01*
X84673473Y-88587519D01*
X84681988Y-88574059D01*
X84814788Y-88391276D01*
X84918582Y-88187570D01*
X84989234Y-87970128D01*
X85003509Y-87880000D01*
X84015748Y-87880000D01*
X84037518Y-87842292D01*
X84075000Y-87702409D01*
X84075000Y-87557591D01*
X84037518Y-87417708D01*
X84015748Y-87380000D01*
X85003509Y-87380000D01*
X84989234Y-87289871D01*
X84918582Y-87072429D01*
X84814788Y-86868723D01*
X84680402Y-86683757D01*
X84518742Y-86522097D01*
X84434135Y-86460626D01*
X84391470Y-86405296D01*
X84385491Y-86335682D01*
X84418097Y-86273887D01*
X84434125Y-86259999D01*
X84519066Y-86198286D01*
X84680786Y-86036566D01*
X84815217Y-85851538D01*
X84919048Y-85647758D01*
X84946949Y-85561887D01*
X84989721Y-85430249D01*
X84989721Y-85430248D01*
X84989722Y-85430245D01*
X85025500Y-85204354D01*
X85025500Y-84975646D01*
X85021991Y-84953494D01*
X85014264Y-84904703D01*
X84989722Y-84749755D01*
X84989721Y-84749751D01*
X84989721Y-84749750D01*
X84919049Y-84532244D01*
X84836527Y-84370286D01*
X84815217Y-84328462D01*
X84680786Y-84143434D01*
X84519066Y-83981714D01*
X84334038Y-83847283D01*
X84130255Y-83743450D01*
X83912748Y-83672778D01*
X83743326Y-83645944D01*
X83686854Y-83637000D01*
X83363146Y-83637000D01*
X83287849Y-83648926D01*
X83137253Y-83672778D01*
X83137250Y-83672778D01*
X82919744Y-83743450D01*
X82715961Y-83847283D01*
X82610396Y-83923980D01*
X82530934Y-83981714D01*
X82530932Y-83981716D01*
X82530931Y-83981716D01*
X82369216Y-84143431D01*
X82369216Y-84143432D01*
X82369214Y-84143434D01*
X82311480Y-84222896D01*
X82234783Y-84328461D01*
X82130950Y-84532244D01*
X82060278Y-84749750D01*
X82060278Y-84749753D01*
X82024500Y-84975645D01*
X82024500Y-85204353D01*
X82060278Y-85430246D01*
X82060278Y-85430249D01*
X82130950Y-85647755D01*
X82229275Y-85840727D01*
X82234783Y-85851538D01*
X82369214Y-86036566D01*
X82530934Y-86198286D01*
X82615864Y-86259991D01*
X82658529Y-86315321D01*
X82664508Y-86384935D01*
X82631902Y-86446730D01*
X82615864Y-86460627D01*
X82531257Y-86522097D01*
X82369597Y-86683757D01*
X82235211Y-86868723D01*
X82131417Y-87072429D01*
X82060765Y-87289871D01*
X82046491Y-87380000D01*
X83034252Y-87380000D01*
X83012482Y-87417708D01*
X82975000Y-87557591D01*
X82975000Y-87702409D01*
X83012482Y-87842292D01*
X83034252Y-87880000D01*
X82046491Y-87880000D01*
X82060765Y-87970128D01*
X82131417Y-88187570D01*
X82235213Y-88391279D01*
X82368011Y-88574060D01*
X82391491Y-88639866D01*
X82375666Y-88707920D01*
X82325560Y-88756615D01*
X82311026Y-88763127D01*
X82282671Y-88773702D01*
X82282664Y-88773706D01*
X82167455Y-88859952D01*
X82167452Y-88859955D01*
X82081206Y-88975164D01*
X82081202Y-88975171D01*
X82030908Y-89110017D01*
X82028101Y-89136131D01*
X82024501Y-89169623D01*
X82024500Y-89169635D01*
X82024500Y-91170370D01*
X82024501Y-91170376D01*
X82030908Y-91229983D01*
X82081202Y-91364828D01*
X82081206Y-91364835D01*
X82167452Y-91480044D01*
X82167455Y-91480047D01*
X82282664Y-91566293D01*
X82282671Y-91566297D01*
X82327618Y-91583061D01*
X82417517Y-91616591D01*
X82477127Y-91623000D01*
X82700500Y-91622999D01*
X82767539Y-91642683D01*
X82813294Y-91695487D01*
X82824500Y-91746999D01*
X82824500Y-93425480D01*
X82804815Y-93492519D01*
X82788181Y-93513161D01*
X78513160Y-97788181D01*
X78451837Y-97821666D01*
X78425479Y-97824500D01*
X75957129Y-97824500D01*
X75957123Y-97824501D01*
X75897516Y-97830908D01*
X75762671Y-97881202D01*
X75762664Y-97881206D01*
X75647455Y-97967452D01*
X75647452Y-97967455D01*
X75561206Y-98082664D01*
X75561202Y-98082671D01*
X75510908Y-98217517D01*
X75504501Y-98277116D01*
X75504500Y-98277135D01*
X75504500Y-101872870D01*
X75504501Y-101872876D01*
X75510908Y-101932483D01*
X75561202Y-102067328D01*
X75561206Y-102067335D01*
X75647452Y-102182544D01*
X75647455Y-102182547D01*
X75762664Y-102268793D01*
X75762673Y-102268798D01*
X75809937Y-102286426D01*
X75865871Y-102328296D01*
X75890289Y-102393760D01*
X75875438Y-102462033D01*
X75826033Y-102511439D01*
X75760028Y-102526433D01*
X75723657Y-102524501D01*
X75723628Y-102524500D01*
X75723622Y-102524500D01*
X73786378Y-102524500D01*
X73786370Y-102524500D01*
X73786347Y-102524501D01*
X73733756Y-102527295D01*
X73733755Y-102527295D01*
X73503878Y-102571754D01*
X73503876Y-102571754D01*
X73503874Y-102571755D01*
X73437419Y-102596834D01*
X73284810Y-102654425D01*
X73082868Y-102772929D01*
X73082861Y-102772934D01*
X72903858Y-102923856D01*
X72903856Y-102923858D01*
X72752934Y-103102861D01*
X72752929Y-103102868D01*
X72634425Y-103304810D01*
X72588726Y-103425908D01*
X72551755Y-103523874D01*
X72551754Y-103523876D01*
X72551754Y-103523878D01*
X72507295Y-103753755D01*
X72507295Y-103753756D01*
X72504501Y-103806347D01*
X72504500Y-103806386D01*
X64000500Y-103806386D01*
X64000500Y-99010803D01*
X69755000Y-99010803D01*
X69755000Y-99825000D01*
X71255000Y-99825000D01*
X71255000Y-100325000D01*
X69755001Y-100325000D01*
X69755001Y-101139197D01*
X69765400Y-101271332D01*
X69820377Y-101489519D01*
X69913428Y-101694374D01*
X69913431Y-101694380D01*
X70041559Y-101879323D01*
X70041569Y-101879335D01*
X70200664Y-102038430D01*
X70200676Y-102038440D01*
X70385619Y-102166568D01*
X70385625Y-102166571D01*
X70590480Y-102259622D01*
X70808667Y-102314599D01*
X70940810Y-102324999D01*
X71504999Y-102324999D01*
X71505000Y-102324998D01*
X71505000Y-101508012D01*
X71562007Y-101540925D01*
X71689174Y-101575000D01*
X71820826Y-101575000D01*
X71947993Y-101540925D01*
X72005000Y-101508012D01*
X72005000Y-102324999D01*
X72569182Y-102324999D01*
X72569197Y-102324998D01*
X72701332Y-102314599D01*
X72919519Y-102259622D01*
X73124374Y-102166571D01*
X73124380Y-102166568D01*
X73309323Y-102038440D01*
X73309335Y-102038430D01*
X73468430Y-101879335D01*
X73468440Y-101879323D01*
X73596568Y-101694380D01*
X73596571Y-101694374D01*
X73689622Y-101489519D01*
X73744599Y-101271332D01*
X73754999Y-101139196D01*
X73755000Y-101139184D01*
X73755000Y-100325000D01*
X72255000Y-100325000D01*
X72255000Y-99825000D01*
X73754999Y-99825000D01*
X73754999Y-99010817D01*
X73754998Y-99010802D01*
X73744599Y-98878667D01*
X73689622Y-98660480D01*
X73596571Y-98455625D01*
X73596568Y-98455619D01*
X73468440Y-98270676D01*
X73468430Y-98270664D01*
X73309335Y-98111569D01*
X73309323Y-98111559D01*
X73124380Y-97983431D01*
X73124374Y-97983428D01*
X72919519Y-97890377D01*
X72701332Y-97835400D01*
X72569196Y-97825000D01*
X72005000Y-97825000D01*
X72005000Y-98641988D01*
X71947993Y-98609075D01*
X71820826Y-98575000D01*
X71689174Y-98575000D01*
X71562007Y-98609075D01*
X71505000Y-98641988D01*
X71505000Y-97825000D01*
X70940817Y-97825000D01*
X70940802Y-97825001D01*
X70808667Y-97835400D01*
X70590480Y-97890377D01*
X70385625Y-97983428D01*
X70385619Y-97983431D01*
X70200676Y-98111559D01*
X70200664Y-98111569D01*
X70041569Y-98270664D01*
X70041559Y-98270676D01*
X69913431Y-98455619D01*
X69913428Y-98455625D01*
X69820377Y-98660480D01*
X69765400Y-98878667D01*
X69755000Y-99010803D01*
X64000500Y-99010803D01*
X64000500Y-87629992D01*
X64609671Y-87629992D01*
X64609671Y-87630007D01*
X64628964Y-87924363D01*
X64628965Y-87924373D01*
X64628966Y-87924380D01*
X64679811Y-88180000D01*
X64686518Y-88213716D01*
X64686521Y-88213730D01*
X64781349Y-88493080D01*
X64911825Y-88757660D01*
X64911829Y-88757667D01*
X65075725Y-89002955D01*
X65270241Y-89224758D01*
X65492044Y-89419274D01*
X65665242Y-89535001D01*
X65737335Y-89583172D01*
X66001923Y-89713652D01*
X66281278Y-89808481D01*
X66570620Y-89866034D01*
X66598888Y-89867886D01*
X66864993Y-89885329D01*
X66865000Y-89885329D01*
X66865007Y-89885329D01*
X67100675Y-89869881D01*
X67159380Y-89866034D01*
X67448722Y-89808481D01*
X67728077Y-89713652D01*
X67992665Y-89583172D01*
X68237957Y-89419273D01*
X68459758Y-89224758D01*
X68654273Y-89002957D01*
X68818172Y-88757665D01*
X68948652Y-88493077D01*
X69043481Y-88213722D01*
X69101034Y-87924380D01*
X69120329Y-87630000D01*
X69120329Y-87629992D01*
X69101035Y-87335636D01*
X69101034Y-87335620D01*
X69043481Y-87046278D01*
X68948652Y-86766923D01*
X68818172Y-86502336D01*
X68813270Y-86495000D01*
X68753332Y-86405296D01*
X68654273Y-86257043D01*
X68602742Y-86198283D01*
X68459758Y-86035241D01*
X68237955Y-85840725D01*
X67992667Y-85676829D01*
X67992660Y-85676825D01*
X67728080Y-85546349D01*
X67448730Y-85451521D01*
X67448724Y-85451519D01*
X67448722Y-85451519D01*
X67159380Y-85393966D01*
X67159373Y-85393965D01*
X67159363Y-85393964D01*
X66865007Y-85374671D01*
X66864993Y-85374671D01*
X66570636Y-85393964D01*
X66570624Y-85393965D01*
X66570620Y-85393966D01*
X66570612Y-85393967D01*
X66570609Y-85393968D01*
X66281283Y-85451518D01*
X66281269Y-85451521D01*
X66001919Y-85546349D01*
X65737334Y-85676828D01*
X65492041Y-85840728D01*
X65270241Y-86035241D01*
X65075728Y-86257041D01*
X64911828Y-86502334D01*
X64781349Y-86766919D01*
X64686521Y-87046269D01*
X64686518Y-87046283D01*
X64628968Y-87335609D01*
X64628964Y-87335636D01*
X64609671Y-87629992D01*
X64000500Y-87629992D01*
X64000500Y-76199994D01*
X64384859Y-76199994D01*
X64384859Y-76200005D01*
X64405385Y-76447729D01*
X64405387Y-76447738D01*
X64466412Y-76688717D01*
X64566266Y-76916364D01*
X64666564Y-77069882D01*
X65366212Y-76370234D01*
X65377482Y-76412292D01*
X65449890Y-76537708D01*
X65552292Y-76640110D01*
X65677708Y-76712518D01*
X65719765Y-76723787D01*
X65019942Y-77423609D01*
X65066768Y-77460055D01*
X65066770Y-77460056D01*
X65285385Y-77578364D01*
X65285396Y-77578369D01*
X65520506Y-77659083D01*
X65765707Y-77700000D01*
X66014293Y-77700000D01*
X66259493Y-77659083D01*
X66494603Y-77578369D01*
X66494614Y-77578364D01*
X66713228Y-77460057D01*
X66713231Y-77460055D01*
X66760056Y-77423609D01*
X66060234Y-76723787D01*
X66102292Y-76712518D01*
X66227708Y-76640110D01*
X66330110Y-76537708D01*
X66402518Y-76412292D01*
X66413787Y-76370235D01*
X67113434Y-77069882D01*
X67213731Y-76916369D01*
X67313587Y-76688717D01*
X67374612Y-76447738D01*
X67374614Y-76447729D01*
X67395141Y-76200005D01*
X67395141Y-76199994D01*
X67374614Y-75952270D01*
X67374612Y-75952261D01*
X67313587Y-75711282D01*
X67213731Y-75483630D01*
X67113434Y-75330116D01*
X66413787Y-76029764D01*
X66402518Y-75987708D01*
X66330110Y-75862292D01*
X66227708Y-75759890D01*
X66102292Y-75687482D01*
X66060235Y-75676212D01*
X66760057Y-74976390D01*
X66760056Y-74976389D01*
X66713229Y-74939943D01*
X66494614Y-74821635D01*
X66494603Y-74821630D01*
X66259493Y-74740916D01*
X66014293Y-74700000D01*
X65765707Y-74700000D01*
X65520506Y-74740916D01*
X65285396Y-74821630D01*
X65285390Y-74821632D01*
X65066761Y-74939949D01*
X65019942Y-74976388D01*
X65019942Y-74976390D01*
X65719765Y-75676212D01*
X65677708Y-75687482D01*
X65552292Y-75759890D01*
X65449890Y-75862292D01*
X65377482Y-75987708D01*
X65366212Y-76029764D01*
X64666564Y-75330116D01*
X64566267Y-75483632D01*
X64466412Y-75711282D01*
X64405387Y-75952261D01*
X64405385Y-75952270D01*
X64384859Y-76199994D01*
X64000500Y-76199994D01*
X64000500Y-71699994D01*
X64384357Y-71699994D01*
X64384357Y-71700005D01*
X64404890Y-71947812D01*
X64404892Y-71947824D01*
X64465936Y-72188881D01*
X64565826Y-72416606D01*
X64701833Y-72624782D01*
X64701836Y-72624785D01*
X64870256Y-72807738D01*
X65066491Y-72960474D01*
X65285190Y-73078828D01*
X65520386Y-73159571D01*
X65765665Y-73200500D01*
X66014335Y-73200500D01*
X66259614Y-73159571D01*
X66260319Y-73159328D01*
X66260624Y-73159315D01*
X66264576Y-73158314D01*
X66264781Y-73159127D01*
X66330113Y-73156173D01*
X66388269Y-73188926D01*
X74769453Y-81570111D01*
X74769454Y-81570112D01*
X74884192Y-81646777D01*
X75011667Y-81699578D01*
X75011672Y-81699580D01*
X75011676Y-81699580D01*
X75011677Y-81699581D01*
X75147003Y-81726500D01*
X75147006Y-81726500D01*
X75147007Y-81726500D01*
X84836666Y-81726500D01*
X84903705Y-81746185D01*
X84949460Y-81798989D01*
X84951227Y-81803047D01*
X84977223Y-81865809D01*
X85053887Y-81980545D01*
X85053888Y-81980546D01*
X89433181Y-86359837D01*
X89466666Y-86421160D01*
X89469500Y-86447518D01*
X89469500Y-88110500D01*
X89449815Y-88177539D01*
X89397011Y-88223294D01*
X89345505Y-88234500D01*
X89322132Y-88234500D01*
X89322123Y-88234501D01*
X89262516Y-88240908D01*
X89127671Y-88291202D01*
X89127664Y-88291206D01*
X89012455Y-88377452D01*
X89012452Y-88377455D01*
X88926206Y-88492664D01*
X88926202Y-88492671D01*
X88875908Y-88627517D01*
X88869501Y-88687116D01*
X88869500Y-88687135D01*
X88869500Y-90382870D01*
X88869501Y-90382876D01*
X88875908Y-90442483D01*
X88926202Y-90577328D01*
X88926206Y-90577335D01*
X89012452Y-90692544D01*
X89012455Y-90692547D01*
X89127664Y-90778793D01*
X89127671Y-90778797D01*
X89262517Y-90829091D01*
X89262516Y-90829091D01*
X89269444Y-90829835D01*
X89322127Y-90835500D01*
X91017872Y-90835499D01*
X91077483Y-90829091D01*
X91212331Y-90778796D01*
X91327546Y-90692546D01*
X91413796Y-90577331D01*
X91464091Y-90442483D01*
X91467862Y-90407401D01*
X91494599Y-90342855D01*
X91551990Y-90303006D01*
X91621816Y-90300511D01*
X91681905Y-90336163D01*
X91692726Y-90349536D01*
X91709956Y-90374143D01*
X91870858Y-90535045D01*
X91870861Y-90535047D01*
X92057266Y-90665568D01*
X92263504Y-90761739D01*
X92483308Y-90820635D01*
X92645230Y-90834801D01*
X92709998Y-90840468D01*
X92710000Y-90840468D01*
X92710002Y-90840468D01*
X92766807Y-90835498D01*
X92936692Y-90820635D01*
X93156496Y-90761739D01*
X93362734Y-90665568D01*
X93549139Y-90535047D01*
X93710047Y-90374139D01*
X93840568Y-90187734D01*
X93867618Y-90129724D01*
X93913790Y-90077285D01*
X93980983Y-90058133D01*
X94047865Y-90078348D01*
X94092382Y-90129725D01*
X94119429Y-90187728D01*
X94119432Y-90187734D01*
X94249954Y-90374141D01*
X94410858Y-90535045D01*
X94410861Y-90535047D01*
X94597266Y-90665568D01*
X94803504Y-90761739D01*
X95023308Y-90820635D01*
X95185230Y-90834801D01*
X95249998Y-90840468D01*
X95250000Y-90840468D01*
X95250002Y-90840468D01*
X95306807Y-90835498D01*
X95476692Y-90820635D01*
X95696496Y-90761739D01*
X95902734Y-90665568D01*
X96089139Y-90535047D01*
X96250047Y-90374139D01*
X96380568Y-90187734D01*
X96407618Y-90129724D01*
X96453790Y-90077285D01*
X96520983Y-90058133D01*
X96587865Y-90078348D01*
X96632382Y-90129725D01*
X96659429Y-90187728D01*
X96659432Y-90187734D01*
X96789954Y-90374141D01*
X96950858Y-90535045D01*
X96950861Y-90535047D01*
X97137266Y-90665568D01*
X97343504Y-90761739D01*
X97563308Y-90820635D01*
X97725230Y-90834801D01*
X97789998Y-90840468D01*
X97790000Y-90840468D01*
X97790002Y-90840468D01*
X97846807Y-90835498D01*
X98016692Y-90820635D01*
X98236496Y-90761739D01*
X98442734Y-90665568D01*
X98629139Y-90535047D01*
X98790047Y-90374139D01*
X98920568Y-90187734D01*
X98947618Y-90129724D01*
X98993790Y-90077285D01*
X99060983Y-90058133D01*
X99127865Y-90078348D01*
X99172382Y-90129725D01*
X99199429Y-90187728D01*
X99199432Y-90187734D01*
X99329954Y-90374141D01*
X99490858Y-90535045D01*
X99490861Y-90535047D01*
X99677266Y-90665568D01*
X99883504Y-90761739D01*
X100103308Y-90820635D01*
X100265230Y-90834801D01*
X100329998Y-90840468D01*
X100330000Y-90840468D01*
X100330002Y-90840468D01*
X100386807Y-90835498D01*
X100556692Y-90820635D01*
X100776496Y-90761739D01*
X100982734Y-90665568D01*
X101169139Y-90535047D01*
X101330047Y-90374139D01*
X101460568Y-90187734D01*
X101487618Y-90129724D01*
X101533790Y-90077285D01*
X101600983Y-90058133D01*
X101667865Y-90078348D01*
X101712382Y-90129725D01*
X101739429Y-90187728D01*
X101739432Y-90187734D01*
X101869954Y-90374141D01*
X102030858Y-90535045D01*
X102030861Y-90535047D01*
X102217266Y-90665568D01*
X102423504Y-90761739D01*
X102643308Y-90820635D01*
X102805230Y-90834801D01*
X102869998Y-90840468D01*
X102870000Y-90840468D01*
X102870002Y-90840468D01*
X102926807Y-90835498D01*
X103096692Y-90820635D01*
X103316496Y-90761739D01*
X103522734Y-90665568D01*
X103709139Y-90535047D01*
X103870047Y-90374139D01*
X104000568Y-90187734D01*
X104027618Y-90129724D01*
X104073790Y-90077285D01*
X104140983Y-90058133D01*
X104207865Y-90078348D01*
X104252382Y-90129725D01*
X104279429Y-90187728D01*
X104279432Y-90187734D01*
X104409954Y-90374141D01*
X104570858Y-90535045D01*
X104570861Y-90535047D01*
X104757266Y-90665568D01*
X104963504Y-90761739D01*
X105183308Y-90820635D01*
X105345230Y-90834801D01*
X105409998Y-90840468D01*
X105410000Y-90840468D01*
X105410002Y-90840468D01*
X105466807Y-90835498D01*
X105636692Y-90820635D01*
X105856496Y-90761739D01*
X106062734Y-90665568D01*
X106249139Y-90535047D01*
X106410047Y-90374139D01*
X106540568Y-90187734D01*
X106567895Y-90129129D01*
X106614064Y-90076695D01*
X106681257Y-90057542D01*
X106748139Y-90077757D01*
X106792657Y-90129133D01*
X106819865Y-90187482D01*
X106950342Y-90373820D01*
X107111179Y-90534657D01*
X107297517Y-90665134D01*
X107503673Y-90761265D01*
X107503682Y-90761269D01*
X107699999Y-90813872D01*
X107700000Y-90813871D01*
X107700000Y-89850686D01*
X107704394Y-89855080D01*
X107795606Y-89907741D01*
X107897339Y-89935000D01*
X108002661Y-89935000D01*
X108104394Y-89907741D01*
X108195606Y-89855080D01*
X108200000Y-89850686D01*
X108200000Y-90813872D01*
X108396317Y-90761269D01*
X108396326Y-90761265D01*
X108602482Y-90665134D01*
X108788820Y-90534657D01*
X108949657Y-90373820D01*
X109080132Y-90187484D01*
X109107341Y-90129134D01*
X109153513Y-90076695D01*
X109220707Y-90057542D01*
X109287588Y-90077757D01*
X109332106Y-90129133D01*
X109359431Y-90187732D01*
X109359432Y-90187734D01*
X109489954Y-90374141D01*
X109650858Y-90535045D01*
X109650861Y-90535047D01*
X109837266Y-90665568D01*
X110043504Y-90761739D01*
X110263308Y-90820635D01*
X110425230Y-90834801D01*
X110489998Y-90840468D01*
X110490000Y-90840468D01*
X110490002Y-90840468D01*
X110546807Y-90835498D01*
X110716692Y-90820635D01*
X110936496Y-90761739D01*
X111142734Y-90665568D01*
X111329139Y-90535047D01*
X111490047Y-90374139D01*
X111620568Y-90187734D01*
X111647618Y-90129724D01*
X111693790Y-90077285D01*
X111760983Y-90058133D01*
X111827865Y-90078348D01*
X111872382Y-90129725D01*
X111899429Y-90187728D01*
X111899432Y-90187734D01*
X112029954Y-90374141D01*
X112190858Y-90535045D01*
X112190861Y-90535047D01*
X112377266Y-90665568D01*
X112583504Y-90761739D01*
X112803308Y-90820635D01*
X112965230Y-90834801D01*
X113029998Y-90840468D01*
X113030000Y-90840468D01*
X113030002Y-90840468D01*
X113086807Y-90835498D01*
X113256692Y-90820635D01*
X113476496Y-90761739D01*
X113682734Y-90665568D01*
X113869139Y-90535047D01*
X114030047Y-90374139D01*
X114160568Y-90187734D01*
X114187618Y-90129724D01*
X114233790Y-90077285D01*
X114300983Y-90058133D01*
X114367865Y-90078348D01*
X114412382Y-90129725D01*
X114439429Y-90187728D01*
X114439432Y-90187734D01*
X114569954Y-90374141D01*
X114730858Y-90535045D01*
X114730861Y-90535047D01*
X114917266Y-90665568D01*
X115018755Y-90712893D01*
X115071195Y-90759065D01*
X115090347Y-90826258D01*
X115070131Y-90893140D01*
X115018756Y-90937657D01*
X114917517Y-90984866D01*
X114917512Y-90984868D01*
X114844526Y-91035973D01*
X114844526Y-91035974D01*
X115523553Y-91715000D01*
X115517339Y-91715000D01*
X115415606Y-91742259D01*
X115324394Y-91794920D01*
X115249920Y-91869394D01*
X115197259Y-91960606D01*
X115170000Y-92062339D01*
X115170000Y-92068552D01*
X114490974Y-91389526D01*
X114490973Y-91389526D01*
X114439868Y-91462512D01*
X114439866Y-91462516D01*
X114343734Y-91668673D01*
X114343730Y-91668682D01*
X114284860Y-91888389D01*
X114284858Y-91888400D01*
X114265034Y-92114997D01*
X114265034Y-92115002D01*
X114284858Y-92341599D01*
X114284860Y-92341610D01*
X114343730Y-92561317D01*
X114343735Y-92561331D01*
X114439863Y-92767478D01*
X114490974Y-92840472D01*
X115170000Y-92161446D01*
X115170000Y-92167661D01*
X115197259Y-92269394D01*
X115249920Y-92360606D01*
X115324394Y-92435080D01*
X115415606Y-92487741D01*
X115517339Y-92515000D01*
X115523553Y-92515000D01*
X114844526Y-93194025D01*
X114917513Y-93245132D01*
X114917515Y-93245133D01*
X114932973Y-93252341D01*
X114985413Y-93298513D01*
X115004566Y-93365706D01*
X114984351Y-93432587D01*
X114932979Y-93477104D01*
X114917270Y-93484429D01*
X114917265Y-93484432D01*
X114730858Y-93614954D01*
X114569954Y-93775858D01*
X114439432Y-93962265D01*
X114439431Y-93962267D01*
X114343261Y-94168502D01*
X114343258Y-94168511D01*
X114284366Y-94388302D01*
X114284364Y-94388313D01*
X114264532Y-94614998D01*
X114264532Y-94615000D01*
X114284365Y-94841692D01*
X114284367Y-94841699D01*
X114297645Y-94891257D01*
X114295981Y-94961107D01*
X114292432Y-94970800D01*
X114261419Y-95045675D01*
X114261418Y-95045678D01*
X114234500Y-95181004D01*
X114234500Y-96542288D01*
X114214815Y-96609327D01*
X114181624Y-96643863D01*
X114063594Y-96726508D01*
X113896508Y-96893594D01*
X113766269Y-97079595D01*
X113711692Y-97123219D01*
X113642193Y-97130412D01*
X113579839Y-97098890D01*
X113563119Y-97079594D01*
X113433113Y-96893926D01*
X113433108Y-96893920D01*
X113266082Y-96726894D01*
X113072578Y-96591399D01*
X112858492Y-96491570D01*
X112858486Y-96491567D01*
X112645000Y-96434364D01*
X112645000Y-97331988D01*
X112587993Y-97299075D01*
X112460826Y-97265000D01*
X112329174Y-97265000D01*
X112202007Y-97299075D01*
X112145000Y-97331988D01*
X112145000Y-96434364D01*
X112144999Y-96434364D01*
X111931513Y-96491567D01*
X111931507Y-96491570D01*
X111717422Y-96591399D01*
X111717420Y-96591400D01*
X111523926Y-96726886D01*
X111401865Y-96848947D01*
X111340542Y-96882431D01*
X111270850Y-96877447D01*
X111214917Y-96835575D01*
X111198002Y-96804598D01*
X111179852Y-96755936D01*
X111148796Y-96672669D01*
X111148795Y-96672668D01*
X111148793Y-96672664D01*
X111062547Y-96557455D01*
X111062544Y-96557452D01*
X110947335Y-96471206D01*
X110947328Y-96471202D01*
X110812482Y-96420908D01*
X110812483Y-96420908D01*
X110752883Y-96414501D01*
X110752881Y-96414500D01*
X110752873Y-96414500D01*
X110752865Y-96414500D01*
X110679500Y-96414500D01*
X110612461Y-96394815D01*
X110566706Y-96342011D01*
X110555500Y-96290500D01*
X110555500Y-95181004D01*
X110528581Y-95045677D01*
X110528580Y-95045676D01*
X110528580Y-95045672D01*
X110528578Y-95045667D01*
X110497568Y-94970801D01*
X110490099Y-94901332D01*
X110492354Y-94891257D01*
X110505635Y-94841692D01*
X110525468Y-94615000D01*
X110505635Y-94388308D01*
X110446739Y-94168504D01*
X110350568Y-93962266D01*
X110220047Y-93775861D01*
X110220045Y-93775858D01*
X110059141Y-93614954D01*
X109872734Y-93484432D01*
X109872730Y-93484430D01*
X109857022Y-93477105D01*
X109804583Y-93430931D01*
X109785433Y-93363737D01*
X109805650Y-93296857D01*
X109857028Y-93252340D01*
X109872481Y-93245134D01*
X109945471Y-93194024D01*
X109266447Y-92515000D01*
X109272661Y-92515000D01*
X109374394Y-92487741D01*
X109465606Y-92435080D01*
X109540080Y-92360606D01*
X109592741Y-92269394D01*
X109620000Y-92167661D01*
X109620000Y-92161447D01*
X110299024Y-92840471D01*
X110350136Y-92767478D01*
X110446264Y-92561331D01*
X110446269Y-92561317D01*
X110505139Y-92341610D01*
X110505141Y-92341599D01*
X110524966Y-92115002D01*
X110524966Y-92114997D01*
X110505141Y-91888400D01*
X110505139Y-91888389D01*
X110446269Y-91668682D01*
X110446264Y-91668668D01*
X110350136Y-91462521D01*
X110350132Y-91462513D01*
X110299025Y-91389526D01*
X109620000Y-92068551D01*
X109620000Y-92062339D01*
X109592741Y-91960606D01*
X109540080Y-91869394D01*
X109465606Y-91794920D01*
X109374394Y-91742259D01*
X109272661Y-91715000D01*
X109266448Y-91715000D01*
X109945472Y-91035974D01*
X109872478Y-90984863D01*
X109666331Y-90888735D01*
X109666317Y-90888730D01*
X109446610Y-90829860D01*
X109446599Y-90829858D01*
X109220002Y-90810034D01*
X109219998Y-90810034D01*
X108993400Y-90829858D01*
X108993389Y-90829860D01*
X108773682Y-90888730D01*
X108773673Y-90888734D01*
X108567516Y-90984866D01*
X108567512Y-90984868D01*
X108494526Y-91035973D01*
X108494526Y-91035974D01*
X109173553Y-91715000D01*
X109167339Y-91715000D01*
X109065606Y-91742259D01*
X108974394Y-91794920D01*
X108899920Y-91869394D01*
X108847259Y-91960606D01*
X108820000Y-92062339D01*
X108820000Y-92068552D01*
X108140974Y-91389526D01*
X108140973Y-91389526D01*
X108089868Y-91462512D01*
X108089866Y-91462516D01*
X107993734Y-91668673D01*
X107993730Y-91668682D01*
X107934860Y-91888389D01*
X107934858Y-91888400D01*
X107915034Y-92114997D01*
X107915034Y-92115002D01*
X107934858Y-92341599D01*
X107934860Y-92341610D01*
X107993730Y-92561317D01*
X107993735Y-92561331D01*
X108089863Y-92767478D01*
X108140974Y-92840472D01*
X108820000Y-92161446D01*
X108820000Y-92167661D01*
X108847259Y-92269394D01*
X108899920Y-92360606D01*
X108974394Y-92435080D01*
X109065606Y-92487741D01*
X109167339Y-92515000D01*
X109173553Y-92515000D01*
X108494526Y-93194025D01*
X108567513Y-93245132D01*
X108567515Y-93245133D01*
X108582973Y-93252341D01*
X108635413Y-93298513D01*
X108654566Y-93365706D01*
X108634351Y-93432587D01*
X108582979Y-93477104D01*
X108567270Y-93484429D01*
X108567265Y-93484432D01*
X108380858Y-93614954D01*
X108219954Y-93775858D01*
X108089432Y-93962265D01*
X108089431Y-93962267D01*
X107993261Y-94168502D01*
X107993258Y-94168511D01*
X107934366Y-94388302D01*
X107934364Y-94388313D01*
X107914532Y-94614998D01*
X107914532Y-94615001D01*
X107934364Y-94841686D01*
X107934366Y-94841697D01*
X107993258Y-95061488D01*
X107993261Y-95061497D01*
X108089431Y-95267732D01*
X108089432Y-95267734D01*
X108219954Y-95454141D01*
X108380858Y-95615045D01*
X108380861Y-95615047D01*
X108567266Y-95745568D01*
X108773504Y-95841739D01*
X108993308Y-95900635D01*
X109041307Y-95904834D01*
X109106376Y-95930286D01*
X109147355Y-95986877D01*
X109154500Y-96028362D01*
X109154500Y-96290500D01*
X109134815Y-96357539D01*
X109082011Y-96403294D01*
X109030502Y-96414500D01*
X108957130Y-96414500D01*
X108957123Y-96414501D01*
X108897516Y-96420908D01*
X108762671Y-96471202D01*
X108762664Y-96471206D01*
X108647455Y-96557452D01*
X108647452Y-96557455D01*
X108561206Y-96672664D01*
X108561202Y-96672671D01*
X108510908Y-96807517D01*
X108504501Y-96867116D01*
X108504500Y-96867135D01*
X108504500Y-98662870D01*
X108504501Y-98662876D01*
X108510908Y-98722483D01*
X108561202Y-98857328D01*
X108561206Y-98857335D01*
X108647452Y-98972544D01*
X108647455Y-98972547D01*
X108762664Y-99058793D01*
X108762671Y-99058797D01*
X108897517Y-99109091D01*
X108897516Y-99109091D01*
X108904444Y-99109835D01*
X108957127Y-99115500D01*
X110752872Y-99115499D01*
X110812483Y-99109091D01*
X110947331Y-99058796D01*
X111062546Y-98972546D01*
X111148796Y-98857331D01*
X111159091Y-98829730D01*
X111168874Y-98803498D01*
X111198002Y-98725401D01*
X111239872Y-98669468D01*
X111305337Y-98645050D01*
X111373610Y-98659901D01*
X111401865Y-98681053D01*
X111523917Y-98803105D01*
X111717421Y-98938600D01*
X111931507Y-99038429D01*
X111931516Y-99038433D01*
X112145000Y-99095634D01*
X112145000Y-98198012D01*
X112202007Y-98230925D01*
X112329174Y-98265000D01*
X112460826Y-98265000D01*
X112587993Y-98230925D01*
X112645000Y-98198012D01*
X112645000Y-99095633D01*
X112858483Y-99038433D01*
X112858492Y-99038429D01*
X113072578Y-98938600D01*
X113266082Y-98803105D01*
X113433105Y-98636082D01*
X113563119Y-98450405D01*
X113617696Y-98406781D01*
X113687195Y-98399588D01*
X113749549Y-98431110D01*
X113766269Y-98450405D01*
X113896505Y-98636401D01*
X114063599Y-98803495D01*
X114160384Y-98871265D01*
X114257165Y-98939032D01*
X114257167Y-98939033D01*
X114257170Y-98939035D01*
X114471337Y-99038903D01*
X114699592Y-99100063D01*
X114876034Y-99115500D01*
X114934999Y-99120659D01*
X114935000Y-99120659D01*
X114935001Y-99120659D01*
X114993966Y-99115500D01*
X115170408Y-99100063D01*
X115398663Y-99038903D01*
X115612830Y-98939035D01*
X115806401Y-98803495D01*
X115973495Y-98636401D01*
X116109035Y-98442830D01*
X116208903Y-98228663D01*
X116270063Y-98000408D01*
X116290659Y-97765000D01*
X116270063Y-97529592D01*
X116208903Y-97301337D01*
X116109035Y-97087171D01*
X116103731Y-97079595D01*
X115973494Y-96893597D01*
X115806404Y-96726508D01*
X115806401Y-96726505D01*
X115806396Y-96726501D01*
X115806393Y-96726499D01*
X115688376Y-96643861D01*
X115644751Y-96589284D01*
X115635500Y-96542287D01*
X115635500Y-96028362D01*
X115655185Y-95961323D01*
X115707989Y-95915568D01*
X115748691Y-95904834D01*
X115796692Y-95900635D01*
X116016496Y-95841739D01*
X116222734Y-95745568D01*
X116409139Y-95615047D01*
X116570047Y-95454139D01*
X116700568Y-95267734D01*
X116796739Y-95061496D01*
X116855635Y-94841692D01*
X116875468Y-94615000D01*
X116855635Y-94388308D01*
X116796739Y-94168504D01*
X116700568Y-93962266D01*
X116570047Y-93775861D01*
X116570045Y-93775858D01*
X116409141Y-93614954D01*
X116222734Y-93484432D01*
X116222730Y-93484430D01*
X116207022Y-93477105D01*
X116154583Y-93430931D01*
X116135433Y-93363737D01*
X116155650Y-93296857D01*
X116207028Y-93252340D01*
X116222481Y-93245134D01*
X116295471Y-93194024D01*
X115616447Y-92515000D01*
X115622661Y-92515000D01*
X115724394Y-92487741D01*
X115815606Y-92435080D01*
X115890080Y-92360606D01*
X115942741Y-92269394D01*
X115970000Y-92167661D01*
X115970000Y-92161447D01*
X116649024Y-92840471D01*
X116700136Y-92767478D01*
X116796264Y-92561331D01*
X116796269Y-92561317D01*
X116855139Y-92341610D01*
X116855141Y-92341599D01*
X116874966Y-92115002D01*
X116874966Y-92114997D01*
X116855141Y-91888400D01*
X116855139Y-91888389D01*
X116796269Y-91668682D01*
X116796264Y-91668668D01*
X116700136Y-91462521D01*
X116700132Y-91462513D01*
X116649025Y-91389526D01*
X115970000Y-92068551D01*
X115970000Y-92062339D01*
X115942741Y-91960606D01*
X115890080Y-91869394D01*
X115815606Y-91794920D01*
X115724394Y-91742259D01*
X115622661Y-91715000D01*
X115616448Y-91715000D01*
X116295472Y-91035974D01*
X116222480Y-90984864D01*
X116121244Y-90937657D01*
X116068805Y-90891485D01*
X116049653Y-90824291D01*
X116069869Y-90757410D01*
X116121243Y-90712893D01*
X116222734Y-90665568D01*
X116409139Y-90535047D01*
X116570047Y-90374139D01*
X116700568Y-90187734D01*
X116727618Y-90129724D01*
X116773790Y-90077285D01*
X116840983Y-90058133D01*
X116907865Y-90078348D01*
X116952382Y-90129725D01*
X116979429Y-90187728D01*
X116979432Y-90187734D01*
X117109954Y-90374141D01*
X117270858Y-90535045D01*
X117270861Y-90535047D01*
X117457266Y-90665568D01*
X117663504Y-90761739D01*
X117883308Y-90820635D01*
X118045230Y-90834801D01*
X118109998Y-90840468D01*
X118110000Y-90840468D01*
X118110002Y-90840468D01*
X118166807Y-90835498D01*
X118336692Y-90820635D01*
X118556496Y-90761739D01*
X118762734Y-90665568D01*
X118949139Y-90535047D01*
X119110047Y-90374139D01*
X119240568Y-90187734D01*
X119267618Y-90129724D01*
X119313790Y-90077285D01*
X119380983Y-90058133D01*
X119447865Y-90078348D01*
X119492382Y-90129725D01*
X119519429Y-90187728D01*
X119519432Y-90187734D01*
X119649954Y-90374141D01*
X119810858Y-90535045D01*
X119810861Y-90535047D01*
X119997266Y-90665568D01*
X120203504Y-90761739D01*
X120423308Y-90820635D01*
X120585230Y-90834801D01*
X120649998Y-90840468D01*
X120650000Y-90840468D01*
X120650002Y-90840468D01*
X120706807Y-90835498D01*
X120876692Y-90820635D01*
X121096496Y-90761739D01*
X121302734Y-90665568D01*
X121489139Y-90535047D01*
X121650047Y-90374139D01*
X121780568Y-90187734D01*
X121807618Y-90129724D01*
X121853790Y-90077285D01*
X121920983Y-90058133D01*
X121987865Y-90078348D01*
X122032382Y-90129725D01*
X122059429Y-90187728D01*
X122059432Y-90187734D01*
X122189954Y-90374141D01*
X122350858Y-90535045D01*
X122350861Y-90535047D01*
X122537266Y-90665568D01*
X122743504Y-90761739D01*
X122963308Y-90820635D01*
X123125230Y-90834801D01*
X123189998Y-90840468D01*
X123190000Y-90840468D01*
X123190002Y-90840468D01*
X123246807Y-90835498D01*
X123416692Y-90820635D01*
X123636496Y-90761739D01*
X123842734Y-90665568D01*
X124029139Y-90535047D01*
X124190047Y-90374139D01*
X124320568Y-90187734D01*
X124416739Y-89981496D01*
X124475635Y-89761692D01*
X124495468Y-89535000D01*
X124475635Y-89308308D01*
X124416739Y-89088504D01*
X124320568Y-88882266D01*
X124190047Y-88695861D01*
X124190045Y-88695858D01*
X124029141Y-88534954D01*
X123842734Y-88404432D01*
X123842732Y-88404431D01*
X123636497Y-88308261D01*
X123636488Y-88308258D01*
X123416697Y-88249366D01*
X123416693Y-88249365D01*
X123416692Y-88249365D01*
X123416691Y-88249364D01*
X123416686Y-88249364D01*
X123190002Y-88229532D01*
X123189998Y-88229532D01*
X122963313Y-88249364D01*
X122963302Y-88249366D01*
X122743511Y-88308258D01*
X122743502Y-88308261D01*
X122537267Y-88404431D01*
X122537265Y-88404432D01*
X122350858Y-88534954D01*
X122189954Y-88695858D01*
X122059432Y-88882265D01*
X122059431Y-88882267D01*
X122032382Y-88940275D01*
X121986209Y-88992714D01*
X121919016Y-89011866D01*
X121852135Y-88991650D01*
X121807618Y-88940275D01*
X121780686Y-88882520D01*
X121780568Y-88882266D01*
X121650047Y-88695861D01*
X121650045Y-88695858D01*
X121489141Y-88534954D01*
X121302734Y-88404432D01*
X121302732Y-88404431D01*
X121096497Y-88308261D01*
X121096488Y-88308258D01*
X120876697Y-88249366D01*
X120876693Y-88249365D01*
X120876692Y-88249365D01*
X120876691Y-88249364D01*
X120876686Y-88249364D01*
X120650002Y-88229532D01*
X120649996Y-88229532D01*
X120605894Y-88233390D01*
X120537394Y-88219623D01*
X120487212Y-88171007D01*
X120471279Y-88102978D01*
X120494655Y-88037135D01*
X120507400Y-88022188D01*
X122269771Y-86259819D01*
X122331094Y-86226334D01*
X122357452Y-86223500D01*
X126201145Y-86223500D01*
X126267117Y-86242506D01*
X126317059Y-86273887D01*
X126396478Y-86323789D01*
X126566745Y-86383368D01*
X126566750Y-86383369D01*
X126745996Y-86403565D01*
X126746000Y-86403565D01*
X126746004Y-86403565D01*
X126925249Y-86383369D01*
X126925252Y-86383368D01*
X126925255Y-86383368D01*
X127095522Y-86323789D01*
X127248262Y-86227816D01*
X127375816Y-86100262D01*
X127377768Y-86097155D01*
X129460000Y-86097155D01*
X129460000Y-86745000D01*
X130376988Y-86745000D01*
X130344075Y-86802007D01*
X130310000Y-86929174D01*
X130310000Y-87060826D01*
X130344075Y-87187993D01*
X130376988Y-87245000D01*
X129460000Y-87245000D01*
X129460000Y-87892844D01*
X129466401Y-87952372D01*
X129466403Y-87952379D01*
X129516645Y-88087086D01*
X129516649Y-88087093D01*
X129602809Y-88202187D01*
X129602812Y-88202190D01*
X129717906Y-88288350D01*
X129717913Y-88288354D01*
X129849986Y-88337614D01*
X129905920Y-88379485D01*
X129930337Y-88444949D01*
X129915486Y-88513222D01*
X129894335Y-88541477D01*
X129771886Y-88663926D01*
X129636400Y-88857420D01*
X129636399Y-88857422D01*
X129536570Y-89071507D01*
X129536567Y-89071513D01*
X129479364Y-89284999D01*
X129479364Y-89285000D01*
X130376988Y-89285000D01*
X130344075Y-89342007D01*
X130310000Y-89469174D01*
X130310000Y-89600826D01*
X130344075Y-89727993D01*
X130376988Y-89785000D01*
X129479364Y-89785000D01*
X129536567Y-89998486D01*
X129536570Y-89998492D01*
X129636399Y-90212578D01*
X129771894Y-90406082D01*
X129938917Y-90573105D01*
X130132421Y-90708600D01*
X130346507Y-90808429D01*
X130346516Y-90808433D01*
X130560000Y-90865634D01*
X130560000Y-89968012D01*
X130617007Y-90000925D01*
X130744174Y-90035000D01*
X130875826Y-90035000D01*
X131002993Y-90000925D01*
X131060000Y-89968012D01*
X131060000Y-90865633D01*
X131273483Y-90808433D01*
X131273492Y-90808429D01*
X131487578Y-90708600D01*
X131681082Y-90573105D01*
X131848105Y-90406082D01*
X131983600Y-90212578D01*
X132083429Y-89998492D01*
X132083432Y-89998486D01*
X132140636Y-89785000D01*
X131243012Y-89785000D01*
X131275925Y-89727993D01*
X131310000Y-89600826D01*
X131310000Y-89469174D01*
X131275925Y-89342007D01*
X131243012Y-89285000D01*
X132140636Y-89285000D01*
X132140635Y-89284999D01*
X132083432Y-89071513D01*
X132083429Y-89071507D01*
X131983600Y-88857422D01*
X131983599Y-88857420D01*
X131848113Y-88663926D01*
X131848108Y-88663920D01*
X131725665Y-88541477D01*
X131692180Y-88480154D01*
X131697164Y-88410462D01*
X131739036Y-88354529D01*
X131770013Y-88337614D01*
X131902086Y-88288354D01*
X131902093Y-88288350D01*
X132017187Y-88202190D01*
X132017190Y-88202187D01*
X132103350Y-88087093D01*
X132103354Y-88087086D01*
X132153596Y-87952379D01*
X132153598Y-87952372D01*
X132159999Y-87892844D01*
X132160000Y-87892827D01*
X132160000Y-87245000D01*
X131243012Y-87245000D01*
X131275925Y-87187993D01*
X131310000Y-87060826D01*
X131310000Y-86929174D01*
X131275925Y-86802007D01*
X131243012Y-86745000D01*
X132160000Y-86745000D01*
X132160000Y-86097172D01*
X132159999Y-86097155D01*
X132153598Y-86037627D01*
X132153596Y-86037620D01*
X132103354Y-85902913D01*
X132103350Y-85902906D01*
X132017190Y-85787812D01*
X132017187Y-85787809D01*
X131902093Y-85701649D01*
X131902086Y-85701645D01*
X131767379Y-85651403D01*
X131767372Y-85651401D01*
X131707844Y-85645000D01*
X131060000Y-85645000D01*
X131060000Y-86561988D01*
X131002993Y-86529075D01*
X130875826Y-86495000D01*
X130744174Y-86495000D01*
X130617007Y-86529075D01*
X130560000Y-86561988D01*
X130560000Y-85645000D01*
X129912155Y-85645000D01*
X129852627Y-85651401D01*
X129852620Y-85651403D01*
X129717913Y-85701645D01*
X129717906Y-85701649D01*
X129602812Y-85787809D01*
X129602809Y-85787812D01*
X129516649Y-85902906D01*
X129516645Y-85902913D01*
X129466403Y-86037620D01*
X129466401Y-86037627D01*
X129460000Y-86097155D01*
X127377768Y-86097155D01*
X127471789Y-85947522D01*
X127531368Y-85777255D01*
X127531369Y-85777249D01*
X127551565Y-85598003D01*
X127551565Y-85597996D01*
X127531369Y-85418750D01*
X127531368Y-85418745D01*
X127471788Y-85248476D01*
X127375815Y-85095737D01*
X127248262Y-84968184D01*
X127248256Y-84968179D01*
X127185096Y-84928493D01*
X127138805Y-84876159D01*
X127128157Y-84807105D01*
X127156532Y-84743257D01*
X127214922Y-84704885D01*
X127251068Y-84699500D01*
X127823607Y-84699500D01*
X127823608Y-84699499D01*
X127944452Y-84675463D01*
X128058286Y-84628311D01*
X128160733Y-84559858D01*
X128247858Y-84472733D01*
X128316311Y-84370286D01*
X128363463Y-84256452D01*
X128387500Y-84135606D01*
X128387500Y-81920960D01*
X128407185Y-81853921D01*
X128459989Y-81808166D01*
X128470546Y-81803918D01*
X128594324Y-81760606D01*
X128619522Y-81751789D01*
X128772262Y-81655816D01*
X128899816Y-81528262D01*
X128995789Y-81375522D01*
X129055368Y-81205255D01*
X129055369Y-81205249D01*
X129075565Y-81026003D01*
X129075565Y-81025996D01*
X129055369Y-80846750D01*
X129055368Y-80846745D01*
X129001984Y-80694182D01*
X128995789Y-80676478D01*
X128899816Y-80523738D01*
X128772262Y-80396184D01*
X128702614Y-80352421D01*
X128619523Y-80300211D01*
X128449254Y-80240631D01*
X128449249Y-80240630D01*
X128270004Y-80220435D01*
X128269996Y-80220435D01*
X128090750Y-80240630D01*
X128090745Y-80240631D01*
X127920476Y-80300211D01*
X127767737Y-80396184D01*
X127640184Y-80523737D01*
X127544210Y-80676478D01*
X127484630Y-80846750D01*
X127479326Y-80893825D01*
X127452258Y-80958239D01*
X127443788Y-80967621D01*
X127363269Y-81048140D01*
X127363267Y-81048142D01*
X127335551Y-81075858D01*
X127276144Y-81135264D01*
X127244368Y-81182819D01*
X127244367Y-81182818D01*
X127207689Y-81237711D01*
X127207685Y-81237718D01*
X127174347Y-81318206D01*
X127174347Y-81318207D01*
X127160537Y-81351548D01*
X127160535Y-81351554D01*
X127148517Y-81411967D01*
X127148518Y-81411968D01*
X127137972Y-81464995D01*
X127137970Y-81465006D01*
X127136501Y-81472388D01*
X127136500Y-81472399D01*
X127136500Y-83324500D01*
X127116815Y-83391539D01*
X127064011Y-83437294D01*
X127012500Y-83448500D01*
X123423646Y-83448500D01*
X123356607Y-83428815D01*
X123310852Y-83376011D01*
X123300908Y-83306853D01*
X123329933Y-83243297D01*
X123388711Y-83205523D01*
X123412838Y-83200972D01*
X123416692Y-83200635D01*
X123636496Y-83141739D01*
X123842734Y-83045568D01*
X124029139Y-82915047D01*
X124190047Y-82754139D01*
X124320568Y-82567734D01*
X124416739Y-82361496D01*
X124475635Y-82141692D01*
X124495468Y-81915000D01*
X124475635Y-81688308D01*
X124416739Y-81468504D01*
X124320568Y-81262266D01*
X124190047Y-81075861D01*
X124190045Y-81075858D01*
X124029141Y-80914954D01*
X123842734Y-80784432D01*
X123842732Y-80784431D01*
X123636497Y-80688261D01*
X123636488Y-80688258D01*
X123416697Y-80629366D01*
X123416693Y-80629365D01*
X123416692Y-80629365D01*
X123416691Y-80629364D01*
X123416686Y-80629364D01*
X123190002Y-80609532D01*
X123189998Y-80609532D01*
X122963313Y-80629364D01*
X122963302Y-80629366D01*
X122743511Y-80688258D01*
X122743502Y-80688261D01*
X122537267Y-80784431D01*
X122537265Y-80784432D01*
X122350858Y-80914954D01*
X122189954Y-81075858D01*
X122059432Y-81262265D01*
X122059431Y-81262267D01*
X122032382Y-81320275D01*
X121986209Y-81372714D01*
X121919016Y-81391866D01*
X121852135Y-81371650D01*
X121807618Y-81320275D01*
X121780686Y-81262520D01*
X121780568Y-81262266D01*
X121650047Y-81075861D01*
X121650045Y-81075858D01*
X121489141Y-80914954D01*
X121302734Y-80784432D01*
X121302732Y-80784431D01*
X121096497Y-80688261D01*
X121096488Y-80688258D01*
X120876697Y-80629366D01*
X120876693Y-80629365D01*
X120876692Y-80629365D01*
X120876691Y-80629364D01*
X120876686Y-80629364D01*
X120650002Y-80609532D01*
X120649998Y-80609532D01*
X120423313Y-80629364D01*
X120423302Y-80629366D01*
X120203511Y-80688258D01*
X120203502Y-80688261D01*
X119997267Y-80784431D01*
X119997265Y-80784432D01*
X119810858Y-80914954D01*
X119649954Y-81075858D01*
X119519432Y-81262265D01*
X119519431Y-81262267D01*
X119492382Y-81320275D01*
X119446209Y-81372714D01*
X119379016Y-81391866D01*
X119312135Y-81371650D01*
X119267618Y-81320275D01*
X119240686Y-81262520D01*
X119240568Y-81262266D01*
X119110047Y-81075861D01*
X119110045Y-81075858D01*
X118949141Y-80914954D01*
X118762734Y-80784432D01*
X118762732Y-80784431D01*
X118556497Y-80688261D01*
X118556488Y-80688258D01*
X118336697Y-80629366D01*
X118336693Y-80629365D01*
X118336692Y-80629365D01*
X118336691Y-80629364D01*
X118336686Y-80629364D01*
X118110002Y-80609532D01*
X118109998Y-80609532D01*
X117883313Y-80629364D01*
X117883302Y-80629366D01*
X117663511Y-80688258D01*
X117663502Y-80688261D01*
X117457267Y-80784431D01*
X117457265Y-80784432D01*
X117270858Y-80914954D01*
X117109954Y-81075858D01*
X116979432Y-81262265D01*
X116979431Y-81262267D01*
X116952382Y-81320275D01*
X116906209Y-81372714D01*
X116839016Y-81391866D01*
X116772135Y-81371650D01*
X116727618Y-81320275D01*
X116700686Y-81262520D01*
X116700568Y-81262266D01*
X116570047Y-81075861D01*
X116570045Y-81075858D01*
X116409141Y-80914954D01*
X116222734Y-80784432D01*
X116222732Y-80784431D01*
X116016497Y-80688261D01*
X116016488Y-80688258D01*
X115796697Y-80629366D01*
X115796693Y-80629365D01*
X115796692Y-80629365D01*
X115796691Y-80629364D01*
X115796686Y-80629364D01*
X115570002Y-80609532D01*
X115569998Y-80609532D01*
X115343313Y-80629364D01*
X115343302Y-80629366D01*
X115123511Y-80688258D01*
X115123502Y-80688261D01*
X114917267Y-80784431D01*
X114917265Y-80784432D01*
X114730858Y-80914954D01*
X114569954Y-81075858D01*
X114439433Y-81262264D01*
X114439432Y-81262266D01*
X114439315Y-81262518D01*
X114412106Y-81320867D01*
X114365933Y-81373306D01*
X114298739Y-81392457D01*
X114231858Y-81372241D01*
X114187342Y-81320865D01*
X114160135Y-81262520D01*
X114160134Y-81262518D01*
X114029657Y-81076179D01*
X113868820Y-80915342D01*
X113682482Y-80784865D01*
X113476328Y-80688734D01*
X113280000Y-80636127D01*
X113280000Y-81599314D01*
X113275606Y-81594920D01*
X113184394Y-81542259D01*
X113082661Y-81515000D01*
X112977339Y-81515000D01*
X112875606Y-81542259D01*
X112784394Y-81594920D01*
X112780000Y-81599314D01*
X112780000Y-80636127D01*
X112583671Y-80688734D01*
X112377517Y-80784865D01*
X112191179Y-80915342D01*
X112030342Y-81076179D01*
X111899867Y-81262515D01*
X111872657Y-81320867D01*
X111826484Y-81373306D01*
X111759290Y-81392457D01*
X111692409Y-81372241D01*
X111647893Y-81320865D01*
X111620685Y-81262518D01*
X111620568Y-81262266D01*
X111490047Y-81075861D01*
X111490045Y-81075858D01*
X111329141Y-80914954D01*
X111142734Y-80784432D01*
X111142732Y-80784431D01*
X110936497Y-80688261D01*
X110936488Y-80688258D01*
X110716697Y-80629366D01*
X110716693Y-80629365D01*
X110716692Y-80629365D01*
X110716691Y-80629364D01*
X110716686Y-80629364D01*
X110490002Y-80609532D01*
X110489998Y-80609532D01*
X110263313Y-80629364D01*
X110263302Y-80629366D01*
X110043511Y-80688258D01*
X110043502Y-80688261D01*
X109837267Y-80784431D01*
X109837265Y-80784432D01*
X109650858Y-80914954D01*
X109489954Y-81075858D01*
X109359432Y-81262265D01*
X109359431Y-81262267D01*
X109332382Y-81320275D01*
X109286209Y-81372714D01*
X109219016Y-81391866D01*
X109152135Y-81371650D01*
X109107618Y-81320275D01*
X109080686Y-81262520D01*
X109080568Y-81262266D01*
X108950047Y-81075861D01*
X108950045Y-81075858D01*
X108789141Y-80914954D01*
X108602734Y-80784432D01*
X108602732Y-80784431D01*
X108396497Y-80688261D01*
X108396488Y-80688258D01*
X108176697Y-80629366D01*
X108176693Y-80629365D01*
X108176692Y-80629365D01*
X108176691Y-80629364D01*
X108176686Y-80629364D01*
X107950002Y-80609532D01*
X107949998Y-80609532D01*
X107723313Y-80629364D01*
X107723302Y-80629366D01*
X107503511Y-80688258D01*
X107503502Y-80688261D01*
X107297267Y-80784431D01*
X107297265Y-80784432D01*
X107110858Y-80914954D01*
X106949954Y-81075858D01*
X106819432Y-81262265D01*
X106819431Y-81262267D01*
X106792382Y-81320275D01*
X106746209Y-81372714D01*
X106679016Y-81391866D01*
X106612135Y-81371650D01*
X106567618Y-81320275D01*
X106540686Y-81262520D01*
X106540568Y-81262266D01*
X106410047Y-81075861D01*
X106410045Y-81075858D01*
X106249141Y-80914954D01*
X106062734Y-80784432D01*
X106062732Y-80784431D01*
X105856497Y-80688261D01*
X105856488Y-80688258D01*
X105636697Y-80629366D01*
X105636693Y-80629365D01*
X105636692Y-80629365D01*
X105636691Y-80629364D01*
X105636686Y-80629364D01*
X105410002Y-80609532D01*
X105409998Y-80609532D01*
X105183313Y-80629364D01*
X105183302Y-80629366D01*
X104963511Y-80688258D01*
X104963502Y-80688261D01*
X104757267Y-80784431D01*
X104757265Y-80784432D01*
X104570858Y-80914954D01*
X104409954Y-81075858D01*
X104279432Y-81262265D01*
X104279431Y-81262267D01*
X104252382Y-81320275D01*
X104206209Y-81372714D01*
X104139016Y-81391866D01*
X104072135Y-81371650D01*
X104027618Y-81320275D01*
X104000686Y-81262520D01*
X104000568Y-81262266D01*
X103870047Y-81075861D01*
X103870045Y-81075858D01*
X103709141Y-80914954D01*
X103522734Y-80784432D01*
X103522732Y-80784431D01*
X103316497Y-80688261D01*
X103316488Y-80688258D01*
X103096697Y-80629366D01*
X103096693Y-80629365D01*
X103096692Y-80629365D01*
X103096691Y-80629364D01*
X103096686Y-80629364D01*
X102870002Y-80609532D01*
X102869998Y-80609532D01*
X102643313Y-80629364D01*
X102643302Y-80629366D01*
X102423511Y-80688258D01*
X102423502Y-80688261D01*
X102217267Y-80784431D01*
X102217265Y-80784432D01*
X102030858Y-80914954D01*
X101869954Y-81075858D01*
X101739432Y-81262265D01*
X101739431Y-81262267D01*
X101712382Y-81320275D01*
X101666209Y-81372714D01*
X101599016Y-81391866D01*
X101532135Y-81371650D01*
X101487618Y-81320275D01*
X101460686Y-81262520D01*
X101460568Y-81262266D01*
X101330047Y-81075861D01*
X101330045Y-81075858D01*
X101169141Y-80914954D01*
X100982734Y-80784432D01*
X100982732Y-80784431D01*
X100776497Y-80688261D01*
X100776488Y-80688258D01*
X100556697Y-80629366D01*
X100556693Y-80629365D01*
X100556692Y-80629365D01*
X100556691Y-80629364D01*
X100556686Y-80629364D01*
X100330002Y-80609532D01*
X100329998Y-80609532D01*
X100103313Y-80629364D01*
X100103302Y-80629366D01*
X99883511Y-80688258D01*
X99883502Y-80688261D01*
X99677267Y-80784431D01*
X99677265Y-80784432D01*
X99490858Y-80914954D01*
X99329954Y-81075858D01*
X99199432Y-81262265D01*
X99199431Y-81262267D01*
X99172382Y-81320275D01*
X99126209Y-81372714D01*
X99059016Y-81391866D01*
X98992135Y-81371650D01*
X98947618Y-81320275D01*
X98920686Y-81262520D01*
X98920568Y-81262266D01*
X98790047Y-81075861D01*
X98790045Y-81075858D01*
X98629141Y-80914954D01*
X98442734Y-80784432D01*
X98442732Y-80784431D01*
X98236497Y-80688261D01*
X98236488Y-80688258D01*
X98016697Y-80629366D01*
X98016693Y-80629365D01*
X98016692Y-80629365D01*
X98016691Y-80629364D01*
X98016686Y-80629364D01*
X97790002Y-80609532D01*
X97789998Y-80609532D01*
X97563313Y-80629364D01*
X97563302Y-80629366D01*
X97343511Y-80688258D01*
X97343502Y-80688261D01*
X97137267Y-80784431D01*
X97137265Y-80784432D01*
X96950858Y-80914954D01*
X96789954Y-81075858D01*
X96659432Y-81262265D01*
X96659431Y-81262267D01*
X96632382Y-81320275D01*
X96586209Y-81372714D01*
X96519016Y-81391866D01*
X96452135Y-81371650D01*
X96407618Y-81320275D01*
X96380686Y-81262520D01*
X96380568Y-81262266D01*
X96250047Y-81075861D01*
X96250045Y-81075858D01*
X96089141Y-80914954D01*
X95902734Y-80784432D01*
X95902732Y-80784431D01*
X95696497Y-80688261D01*
X95696488Y-80688258D01*
X95476697Y-80629366D01*
X95476693Y-80629365D01*
X95476692Y-80629365D01*
X95476691Y-80629364D01*
X95476686Y-80629364D01*
X95250002Y-80609532D01*
X95249998Y-80609532D01*
X95023313Y-80629364D01*
X95023302Y-80629366D01*
X94803511Y-80688258D01*
X94803502Y-80688261D01*
X94597267Y-80784431D01*
X94597265Y-80784432D01*
X94410858Y-80914954D01*
X94249954Y-81075858D01*
X94119432Y-81262265D01*
X94119431Y-81262267D01*
X94092382Y-81320275D01*
X94046209Y-81372714D01*
X93979016Y-81391866D01*
X93912135Y-81371650D01*
X93867618Y-81320275D01*
X93840686Y-81262520D01*
X93840568Y-81262266D01*
X93710047Y-81075861D01*
X93710045Y-81075858D01*
X93549141Y-80914954D01*
X93362734Y-80784432D01*
X93362732Y-80784431D01*
X93156497Y-80688261D01*
X93156488Y-80688258D01*
X92936697Y-80629366D01*
X92936693Y-80629365D01*
X92936692Y-80629365D01*
X92936691Y-80629364D01*
X92936686Y-80629364D01*
X92710002Y-80609532D01*
X92709998Y-80609532D01*
X92483313Y-80629364D01*
X92483302Y-80629366D01*
X92263511Y-80688258D01*
X92263502Y-80688261D01*
X92057267Y-80784431D01*
X92057265Y-80784432D01*
X91870858Y-80914954D01*
X91709954Y-81075858D01*
X91579432Y-81262265D01*
X91579431Y-81262267D01*
X91552382Y-81320275D01*
X91506209Y-81372714D01*
X91439016Y-81391866D01*
X91372135Y-81371650D01*
X91327618Y-81320275D01*
X91300686Y-81262520D01*
X91300568Y-81262266D01*
X91170047Y-81075861D01*
X91170045Y-81075858D01*
X91009141Y-80914954D01*
X90822734Y-80784432D01*
X90822732Y-80784431D01*
X90616497Y-80688261D01*
X90616488Y-80688258D01*
X90396697Y-80629366D01*
X90396693Y-80629365D01*
X90396692Y-80629365D01*
X90396691Y-80629364D01*
X90396686Y-80629364D01*
X90170002Y-80609532D01*
X90169998Y-80609532D01*
X89943313Y-80629364D01*
X89943302Y-80629366D01*
X89723511Y-80688258D01*
X89723502Y-80688261D01*
X89517267Y-80784431D01*
X89517265Y-80784432D01*
X89330858Y-80914954D01*
X89169954Y-81075858D01*
X89039432Y-81262265D01*
X89039431Y-81262267D01*
X88943261Y-81468502D01*
X88943258Y-81468511D01*
X88884366Y-81688302D01*
X88884364Y-81688313D01*
X88864532Y-81914998D01*
X88864532Y-81915001D01*
X88884364Y-82141686D01*
X88884366Y-82141697D01*
X88943258Y-82361488D01*
X88943261Y-82361497D01*
X89039431Y-82567732D01*
X89039432Y-82567734D01*
X89169954Y-82754141D01*
X89330858Y-82915045D01*
X89330861Y-82915047D01*
X89517266Y-83045568D01*
X89723504Y-83141739D01*
X89943308Y-83200635D01*
X90105230Y-83214801D01*
X90169998Y-83220468D01*
X90170000Y-83220468D01*
X90170002Y-83220468D01*
X90226673Y-83215509D01*
X90396692Y-83200635D01*
X90616496Y-83141739D01*
X90822734Y-83045568D01*
X91009139Y-82915047D01*
X91170047Y-82754139D01*
X91300568Y-82567734D01*
X91327618Y-82509724D01*
X91373790Y-82457285D01*
X91440983Y-82438133D01*
X91507865Y-82458348D01*
X91552382Y-82509725D01*
X91579429Y-82567728D01*
X91579432Y-82567734D01*
X91709954Y-82754141D01*
X91870858Y-82915045D01*
X91870861Y-82915047D01*
X92057266Y-83045568D01*
X92263504Y-83141739D01*
X92483308Y-83200635D01*
X92645230Y-83214801D01*
X92709998Y-83220468D01*
X92710000Y-83220468D01*
X92710002Y-83220468D01*
X92766673Y-83215509D01*
X92936692Y-83200635D01*
X93156496Y-83141739D01*
X93362734Y-83045568D01*
X93549139Y-82915047D01*
X93710047Y-82754139D01*
X93840568Y-82567734D01*
X93867618Y-82509724D01*
X93913790Y-82457285D01*
X93980983Y-82438133D01*
X94047865Y-82458348D01*
X94092382Y-82509725D01*
X94119429Y-82567728D01*
X94119432Y-82567734D01*
X94249954Y-82754141D01*
X94410858Y-82915045D01*
X94410861Y-82915047D01*
X94597266Y-83045568D01*
X94803504Y-83141739D01*
X95023308Y-83200635D01*
X95185230Y-83214801D01*
X95249998Y-83220468D01*
X95250000Y-83220468D01*
X95250002Y-83220468D01*
X95306673Y-83215509D01*
X95476692Y-83200635D01*
X95696496Y-83141739D01*
X95902734Y-83045568D01*
X96089139Y-82915047D01*
X96250047Y-82754139D01*
X96380568Y-82567734D01*
X96407618Y-82509724D01*
X96453790Y-82457285D01*
X96520983Y-82438133D01*
X96587865Y-82458348D01*
X96632382Y-82509725D01*
X96659429Y-82567728D01*
X96659432Y-82567734D01*
X96789954Y-82754141D01*
X96950858Y-82915045D01*
X96950861Y-82915047D01*
X97137266Y-83045568D01*
X97343504Y-83141739D01*
X97563308Y-83200635D01*
X97725230Y-83214801D01*
X97789998Y-83220468D01*
X97790000Y-83220468D01*
X97790002Y-83220468D01*
X97846673Y-83215509D01*
X98016692Y-83200635D01*
X98236496Y-83141739D01*
X98442734Y-83045568D01*
X98629139Y-82915047D01*
X98790047Y-82754139D01*
X98920568Y-82567734D01*
X98947618Y-82509724D01*
X98993790Y-82457285D01*
X99060983Y-82438133D01*
X99127865Y-82458348D01*
X99172382Y-82509725D01*
X99199429Y-82567728D01*
X99199432Y-82567734D01*
X99329954Y-82754141D01*
X99490858Y-82915045D01*
X99490861Y-82915047D01*
X99677266Y-83045568D01*
X99883504Y-83141739D01*
X100103308Y-83200635D01*
X100265230Y-83214801D01*
X100329998Y-83220468D01*
X100330000Y-83220468D01*
X100330002Y-83220468D01*
X100386673Y-83215509D01*
X100556692Y-83200635D01*
X100776496Y-83141739D01*
X100982734Y-83045568D01*
X101169139Y-82915047D01*
X101330047Y-82754139D01*
X101460568Y-82567734D01*
X101487618Y-82509724D01*
X101533790Y-82457285D01*
X101600983Y-82438133D01*
X101667865Y-82458348D01*
X101712382Y-82509725D01*
X101739429Y-82567728D01*
X101739432Y-82567734D01*
X101869954Y-82754141D01*
X102030858Y-82915045D01*
X102030861Y-82915047D01*
X102217266Y-83045568D01*
X102423504Y-83141739D01*
X102643308Y-83200635D01*
X102805230Y-83214801D01*
X102869998Y-83220468D01*
X102870000Y-83220468D01*
X102870002Y-83220468D01*
X102926673Y-83215509D01*
X103096692Y-83200635D01*
X103316496Y-83141739D01*
X103522734Y-83045568D01*
X103709139Y-82915047D01*
X103870047Y-82754139D01*
X104000568Y-82567734D01*
X104027618Y-82509724D01*
X104073790Y-82457285D01*
X104140983Y-82438133D01*
X104207865Y-82458348D01*
X104252382Y-82509725D01*
X104279429Y-82567728D01*
X104279432Y-82567734D01*
X104409954Y-82754141D01*
X104570858Y-82915045D01*
X104570861Y-82915047D01*
X104757266Y-83045568D01*
X104963504Y-83141739D01*
X105183308Y-83200635D01*
X105345230Y-83214801D01*
X105409998Y-83220468D01*
X105410000Y-83220468D01*
X105410002Y-83220468D01*
X105466673Y-83215509D01*
X105636692Y-83200635D01*
X105856496Y-83141739D01*
X106062734Y-83045568D01*
X106249139Y-82915047D01*
X106410047Y-82754139D01*
X106540568Y-82567734D01*
X106567618Y-82509724D01*
X106613790Y-82457285D01*
X106680983Y-82438133D01*
X106747865Y-82458348D01*
X106792382Y-82509725D01*
X106819429Y-82567728D01*
X106819432Y-82567734D01*
X106949954Y-82754141D01*
X107110858Y-82915045D01*
X107110861Y-82915047D01*
X107297266Y-83045568D01*
X107503504Y-83141739D01*
X107723308Y-83200635D01*
X107885230Y-83214801D01*
X107949998Y-83220468D01*
X107950000Y-83220468D01*
X107950002Y-83220468D01*
X108006673Y-83215509D01*
X108176692Y-83200635D01*
X108396496Y-83141739D01*
X108602734Y-83045568D01*
X108789139Y-82915047D01*
X108950047Y-82754139D01*
X109080568Y-82567734D01*
X109107618Y-82509724D01*
X109153790Y-82457285D01*
X109220983Y-82438133D01*
X109287865Y-82458348D01*
X109332382Y-82509725D01*
X109359429Y-82567728D01*
X109359432Y-82567734D01*
X109489954Y-82754141D01*
X109650858Y-82915045D01*
X109650861Y-82915047D01*
X109837266Y-83045568D01*
X110043504Y-83141739D01*
X110263308Y-83200635D01*
X110425230Y-83214801D01*
X110489998Y-83220468D01*
X110490000Y-83220468D01*
X110490002Y-83220468D01*
X110546673Y-83215509D01*
X110716692Y-83200635D01*
X110936496Y-83141739D01*
X111142734Y-83045568D01*
X111329139Y-82915047D01*
X111490047Y-82754139D01*
X111620568Y-82567734D01*
X111647895Y-82509129D01*
X111694064Y-82456695D01*
X111761257Y-82437542D01*
X111828139Y-82457757D01*
X111872657Y-82509133D01*
X111899865Y-82567482D01*
X112030342Y-82753820D01*
X112191179Y-82914657D01*
X112377517Y-83045134D01*
X112583673Y-83141265D01*
X112583682Y-83141269D01*
X112779999Y-83193872D01*
X112780000Y-83193871D01*
X112780000Y-82230686D01*
X112784394Y-82235080D01*
X112875606Y-82287741D01*
X112977339Y-82315000D01*
X113082661Y-82315000D01*
X113184394Y-82287741D01*
X113275606Y-82235080D01*
X113280000Y-82230686D01*
X113280000Y-83193872D01*
X113476317Y-83141269D01*
X113476326Y-83141265D01*
X113682482Y-83045134D01*
X113868820Y-82914657D01*
X114029657Y-82753820D01*
X114160132Y-82567484D01*
X114187341Y-82509134D01*
X114233513Y-82456695D01*
X114300707Y-82437542D01*
X114367588Y-82457757D01*
X114412106Y-82509133D01*
X114439431Y-82567732D01*
X114439432Y-82567734D01*
X114569954Y-82754141D01*
X114730858Y-82915045D01*
X114730861Y-82915047D01*
X114917266Y-83045568D01*
X115123504Y-83141739D01*
X115343308Y-83200635D01*
X115505230Y-83214801D01*
X115569998Y-83220468D01*
X115570000Y-83220468D01*
X115570002Y-83220468D01*
X115626673Y-83215509D01*
X115796692Y-83200635D01*
X116016496Y-83141739D01*
X116222734Y-83045568D01*
X116409139Y-82915047D01*
X116570047Y-82754139D01*
X116700568Y-82567734D01*
X116727618Y-82509724D01*
X116773790Y-82457285D01*
X116840983Y-82438133D01*
X116907865Y-82458348D01*
X116952382Y-82509725D01*
X116979429Y-82567728D01*
X116979432Y-82567734D01*
X117109954Y-82754141D01*
X117270858Y-82915045D01*
X117270861Y-82915047D01*
X117457266Y-83045568D01*
X117663504Y-83141739D01*
X117883308Y-83200635D01*
X118045230Y-83214801D01*
X118109998Y-83220468D01*
X118110000Y-83220468D01*
X118110002Y-83220468D01*
X118166673Y-83215509D01*
X118336692Y-83200635D01*
X118556496Y-83141739D01*
X118762734Y-83045568D01*
X118949139Y-82915047D01*
X119110047Y-82754139D01*
X119240568Y-82567734D01*
X119267618Y-82509724D01*
X119313790Y-82457285D01*
X119380983Y-82438133D01*
X119447865Y-82458348D01*
X119492382Y-82509725D01*
X119519429Y-82567728D01*
X119519432Y-82567734D01*
X119649954Y-82754141D01*
X119810858Y-82915045D01*
X119810861Y-82915047D01*
X119997266Y-83045568D01*
X120203504Y-83141739D01*
X120423308Y-83200635D01*
X120585230Y-83214801D01*
X120649998Y-83220468D01*
X120650000Y-83220468D01*
X120650002Y-83220468D01*
X120706673Y-83215509D01*
X120876692Y-83200635D01*
X121096496Y-83141739D01*
X121302734Y-83045568D01*
X121489139Y-82915047D01*
X121650047Y-82754139D01*
X121780568Y-82567734D01*
X121807618Y-82509724D01*
X121853790Y-82457285D01*
X121920983Y-82438133D01*
X121987865Y-82458348D01*
X122032382Y-82509725D01*
X122059429Y-82567728D01*
X122059432Y-82567734D01*
X122189954Y-82754141D01*
X122350858Y-82915045D01*
X122350861Y-82915047D01*
X122537266Y-83045568D01*
X122743504Y-83141739D01*
X122963308Y-83200635D01*
X122967161Y-83200972D01*
X123032230Y-83226424D01*
X123073209Y-83283015D01*
X123077087Y-83352777D01*
X123042633Y-83413561D01*
X122980786Y-83446069D01*
X122956354Y-83448500D01*
X120969389Y-83448500D01*
X120908971Y-83460518D01*
X120865743Y-83469116D01*
X120848546Y-83472537D01*
X120734716Y-83519687D01*
X120734707Y-83519692D01*
X120632268Y-83588140D01*
X120588705Y-83631703D01*
X120545142Y-83675267D01*
X120545139Y-83675270D01*
X115984822Y-88235586D01*
X115923499Y-88269071D01*
X115865049Y-88267680D01*
X115796699Y-88249367D01*
X115796702Y-88249367D01*
X115796692Y-88249365D01*
X115796689Y-88249364D01*
X115796686Y-88249364D01*
X115570001Y-88229532D01*
X115569998Y-88229532D01*
X115343313Y-88249364D01*
X115343302Y-88249366D01*
X115123511Y-88308258D01*
X115123502Y-88308261D01*
X114917267Y-88404431D01*
X114917265Y-88404432D01*
X114730858Y-88534954D01*
X114569954Y-88695858D01*
X114439432Y-88882265D01*
X114439431Y-88882267D01*
X114412382Y-88940275D01*
X114366209Y-88992714D01*
X114299016Y-89011866D01*
X114232135Y-88991650D01*
X114187618Y-88940275D01*
X114160686Y-88882520D01*
X114160568Y-88882266D01*
X114030047Y-88695861D01*
X114030045Y-88695858D01*
X113869141Y-88534954D01*
X113682734Y-88404432D01*
X113682732Y-88404431D01*
X113476497Y-88308261D01*
X113476488Y-88308258D01*
X113256697Y-88249366D01*
X113256693Y-88249365D01*
X113256692Y-88249365D01*
X113256691Y-88249364D01*
X113256686Y-88249364D01*
X113030002Y-88229532D01*
X113029998Y-88229532D01*
X112803313Y-88249364D01*
X112803302Y-88249366D01*
X112583511Y-88308258D01*
X112583502Y-88308261D01*
X112377267Y-88404431D01*
X112377265Y-88404432D01*
X112190858Y-88534954D01*
X112029954Y-88695858D01*
X111899432Y-88882265D01*
X111899431Y-88882267D01*
X111872382Y-88940275D01*
X111826209Y-88992714D01*
X111759016Y-89011866D01*
X111692135Y-88991650D01*
X111647618Y-88940275D01*
X111620686Y-88882520D01*
X111620568Y-88882266D01*
X111490047Y-88695861D01*
X111490045Y-88695858D01*
X111329141Y-88534954D01*
X111142734Y-88404432D01*
X111142732Y-88404431D01*
X110936497Y-88308261D01*
X110936488Y-88308258D01*
X110716697Y-88249366D01*
X110716693Y-88249365D01*
X110716692Y-88249365D01*
X110716691Y-88249364D01*
X110716686Y-88249364D01*
X110490002Y-88229532D01*
X110489998Y-88229532D01*
X110263313Y-88249364D01*
X110263302Y-88249366D01*
X110043511Y-88308258D01*
X110043502Y-88308261D01*
X109837267Y-88404431D01*
X109837265Y-88404432D01*
X109650858Y-88534954D01*
X109489954Y-88695858D01*
X109375054Y-88859955D01*
X109359432Y-88882266D01*
X109359315Y-88882518D01*
X109332106Y-88940867D01*
X109285933Y-88993306D01*
X109218739Y-89012457D01*
X109151858Y-88992241D01*
X109107342Y-88940865D01*
X109080135Y-88882520D01*
X109080134Y-88882518D01*
X108949657Y-88696179D01*
X108788820Y-88535342D01*
X108602482Y-88404865D01*
X108396328Y-88308734D01*
X108200000Y-88256127D01*
X108200000Y-89219314D01*
X108195606Y-89214920D01*
X108104394Y-89162259D01*
X108002661Y-89135000D01*
X107897339Y-89135000D01*
X107795606Y-89162259D01*
X107704394Y-89214920D01*
X107700000Y-89219314D01*
X107700000Y-88256127D01*
X107503671Y-88308734D01*
X107297517Y-88404865D01*
X107111179Y-88535342D01*
X106950342Y-88696179D01*
X106819867Y-88882515D01*
X106792657Y-88940867D01*
X106746484Y-88993306D01*
X106679290Y-89012457D01*
X106612409Y-88992241D01*
X106567893Y-88940865D01*
X106540685Y-88882518D01*
X106540568Y-88882266D01*
X106410047Y-88695861D01*
X106410045Y-88695858D01*
X106249141Y-88534954D01*
X106062734Y-88404432D01*
X106062732Y-88404431D01*
X105856497Y-88308261D01*
X105856488Y-88308258D01*
X105636697Y-88249366D01*
X105636693Y-88249365D01*
X105636692Y-88249365D01*
X105636691Y-88249364D01*
X105636686Y-88249364D01*
X105410002Y-88229532D01*
X105409998Y-88229532D01*
X105183313Y-88249364D01*
X105183302Y-88249366D01*
X104963511Y-88308258D01*
X104963502Y-88308261D01*
X104757267Y-88404431D01*
X104757265Y-88404432D01*
X104570858Y-88534954D01*
X104409954Y-88695858D01*
X104279432Y-88882265D01*
X104279431Y-88882267D01*
X104252382Y-88940275D01*
X104206209Y-88992714D01*
X104139016Y-89011866D01*
X104072135Y-88991650D01*
X104027618Y-88940275D01*
X104000686Y-88882520D01*
X104000568Y-88882266D01*
X103870047Y-88695861D01*
X103870045Y-88695858D01*
X103709141Y-88534954D01*
X103522734Y-88404432D01*
X103522732Y-88404431D01*
X103316497Y-88308261D01*
X103316488Y-88308258D01*
X103096697Y-88249366D01*
X103096693Y-88249365D01*
X103096692Y-88249365D01*
X103096691Y-88249364D01*
X103096686Y-88249364D01*
X102870002Y-88229532D01*
X102869998Y-88229532D01*
X102643313Y-88249364D01*
X102643302Y-88249366D01*
X102423511Y-88308258D01*
X102423502Y-88308261D01*
X102217267Y-88404431D01*
X102217265Y-88404432D01*
X102030858Y-88534954D01*
X101869954Y-88695858D01*
X101739432Y-88882265D01*
X101739431Y-88882267D01*
X101712382Y-88940275D01*
X101666209Y-88992714D01*
X101599016Y-89011866D01*
X101532135Y-88991650D01*
X101487618Y-88940275D01*
X101460686Y-88882520D01*
X101460568Y-88882266D01*
X101330047Y-88695861D01*
X101330045Y-88695858D01*
X101169141Y-88534954D01*
X100982734Y-88404432D01*
X100982732Y-88404431D01*
X100776497Y-88308261D01*
X100776488Y-88308258D01*
X100556697Y-88249366D01*
X100556693Y-88249365D01*
X100556692Y-88249365D01*
X100556691Y-88249364D01*
X100556686Y-88249364D01*
X100330002Y-88229532D01*
X100329998Y-88229532D01*
X100103313Y-88249364D01*
X100103302Y-88249366D01*
X99883511Y-88308258D01*
X99883502Y-88308261D01*
X99677267Y-88404431D01*
X99677265Y-88404432D01*
X99490858Y-88534954D01*
X99329954Y-88695858D01*
X99199432Y-88882265D01*
X99199431Y-88882267D01*
X99172382Y-88940275D01*
X99126209Y-88992714D01*
X99059016Y-89011866D01*
X98992135Y-88991650D01*
X98947618Y-88940275D01*
X98920686Y-88882520D01*
X98920568Y-88882266D01*
X98790047Y-88695861D01*
X98790045Y-88695858D01*
X98629141Y-88534954D01*
X98442734Y-88404432D01*
X98442732Y-88404431D01*
X98236497Y-88308261D01*
X98236488Y-88308258D01*
X98016697Y-88249366D01*
X98016693Y-88249365D01*
X98016692Y-88249365D01*
X98016691Y-88249364D01*
X98016686Y-88249364D01*
X97790002Y-88229532D01*
X97789998Y-88229532D01*
X97563313Y-88249364D01*
X97563302Y-88249366D01*
X97343511Y-88308258D01*
X97343502Y-88308261D01*
X97137267Y-88404431D01*
X97137265Y-88404432D01*
X96950858Y-88534954D01*
X96789954Y-88695858D01*
X96659432Y-88882265D01*
X96659431Y-88882267D01*
X96632382Y-88940275D01*
X96586209Y-88992714D01*
X96519016Y-89011866D01*
X96452135Y-88991650D01*
X96407618Y-88940275D01*
X96380686Y-88882520D01*
X96380568Y-88882266D01*
X96250047Y-88695861D01*
X96250045Y-88695858D01*
X96089141Y-88534954D01*
X95902734Y-88404432D01*
X95902732Y-88404431D01*
X95696497Y-88308261D01*
X95696488Y-88308258D01*
X95476697Y-88249366D01*
X95476693Y-88249365D01*
X95476692Y-88249365D01*
X95476691Y-88249364D01*
X95476686Y-88249364D01*
X95250002Y-88229532D01*
X95249998Y-88229532D01*
X95023313Y-88249364D01*
X95023302Y-88249366D01*
X94803511Y-88308258D01*
X94803502Y-88308261D01*
X94597267Y-88404431D01*
X94597265Y-88404432D01*
X94410858Y-88534954D01*
X94249954Y-88695858D01*
X94119432Y-88882265D01*
X94119431Y-88882267D01*
X94092382Y-88940275D01*
X94046209Y-88992714D01*
X93979016Y-89011866D01*
X93912135Y-88991650D01*
X93867618Y-88940275D01*
X93840686Y-88882520D01*
X93840568Y-88882266D01*
X93710047Y-88695861D01*
X93710045Y-88695858D01*
X93549141Y-88534954D01*
X93362734Y-88404432D01*
X93362732Y-88404431D01*
X93156497Y-88308261D01*
X93156488Y-88308258D01*
X92936697Y-88249366D01*
X92936693Y-88249365D01*
X92936692Y-88249365D01*
X92936691Y-88249364D01*
X92936686Y-88249364D01*
X92710002Y-88229532D01*
X92709998Y-88229532D01*
X92483313Y-88249364D01*
X92483302Y-88249366D01*
X92263511Y-88308258D01*
X92263502Y-88308261D01*
X92057267Y-88404431D01*
X92057265Y-88404432D01*
X91870858Y-88534954D01*
X91709954Y-88695858D01*
X91692725Y-88720464D01*
X91638147Y-88764088D01*
X91568648Y-88771280D01*
X91506294Y-88739757D01*
X91470882Y-88679526D01*
X91467861Y-88662591D01*
X91464091Y-88627516D01*
X91413797Y-88492671D01*
X91413793Y-88492664D01*
X91327547Y-88377455D01*
X91327544Y-88377452D01*
X91212335Y-88291206D01*
X91212328Y-88291202D01*
X91077482Y-88240908D01*
X91077483Y-88240908D01*
X91017883Y-88234501D01*
X91017881Y-88234500D01*
X91017873Y-88234500D01*
X91017865Y-88234500D01*
X90994500Y-88234500D01*
X90927461Y-88214815D01*
X90881706Y-88162011D01*
X90870500Y-88110500D01*
X90870500Y-86037004D01*
X90870499Y-86037002D01*
X90843581Y-85901677D01*
X90843579Y-85901670D01*
X90840522Y-85894290D01*
X90840519Y-85894282D01*
X90793390Y-85780502D01*
X90793383Y-85780486D01*
X90793369Y-85780452D01*
X90790775Y-85774189D01*
X90714114Y-85659458D01*
X90616542Y-85561886D01*
X88483471Y-83428815D01*
X86334819Y-81280162D01*
X86301334Y-81218839D01*
X86298500Y-81192481D01*
X86298500Y-80957004D01*
X86271581Y-80821677D01*
X86271580Y-80821676D01*
X86271580Y-80821672D01*
X86256155Y-80784432D01*
X86218778Y-80694195D01*
X86218771Y-80694182D01*
X86142114Y-80579458D01*
X86142111Y-80579454D01*
X86044545Y-80481888D01*
X86044541Y-80481885D01*
X85929817Y-80405228D01*
X85929804Y-80405221D01*
X85802332Y-80352421D01*
X85802322Y-80352418D01*
X85666995Y-80325500D01*
X85666993Y-80325500D01*
X75557519Y-80325500D01*
X75490480Y-80305815D01*
X75469838Y-80289181D01*
X73285655Y-78104998D01*
X109224532Y-78104998D01*
X109224532Y-78105001D01*
X109244364Y-78331686D01*
X109244366Y-78331697D01*
X109303258Y-78551488D01*
X109303261Y-78551497D01*
X109399431Y-78757732D01*
X109399432Y-78757734D01*
X109529954Y-78944141D01*
X109690858Y-79105045D01*
X109690861Y-79105047D01*
X109877266Y-79235568D01*
X110083504Y-79331739D01*
X110303308Y-79390635D01*
X110465230Y-79404801D01*
X110529998Y-79410468D01*
X110530000Y-79410468D01*
X110530002Y-79410468D01*
X110586673Y-79405509D01*
X110756692Y-79390635D01*
X110976496Y-79331739D01*
X111182734Y-79235568D01*
X111369139Y-79105047D01*
X111530047Y-78944139D01*
X111660568Y-78757734D01*
X111667893Y-78742024D01*
X111714064Y-78689586D01*
X111781257Y-78670433D01*
X111848138Y-78690648D01*
X111892657Y-78742024D01*
X111899864Y-78757480D01*
X111950974Y-78830472D01*
X112630000Y-78151446D01*
X112630000Y-78157661D01*
X112657259Y-78259394D01*
X112709920Y-78350606D01*
X112784394Y-78425080D01*
X112875606Y-78477741D01*
X112977339Y-78505000D01*
X112983553Y-78505000D01*
X112304526Y-79184025D01*
X112377513Y-79235132D01*
X112377521Y-79235136D01*
X112583668Y-79331264D01*
X112583682Y-79331269D01*
X112803389Y-79390139D01*
X112803400Y-79390141D01*
X113029998Y-79409966D01*
X113030002Y-79409966D01*
X113256599Y-79390141D01*
X113256610Y-79390139D01*
X113476317Y-79331269D01*
X113476331Y-79331264D01*
X113682478Y-79235136D01*
X113755471Y-79184024D01*
X113076447Y-78505000D01*
X113082661Y-78505000D01*
X113184394Y-78477741D01*
X113275606Y-78425080D01*
X113350080Y-78350606D01*
X113402741Y-78259394D01*
X113430000Y-78157661D01*
X113430000Y-78151447D01*
X114109024Y-78830471D01*
X114160136Y-78757478D01*
X114256264Y-78551331D01*
X114256269Y-78551317D01*
X114315139Y-78331610D01*
X114315141Y-78331599D01*
X114334966Y-78105002D01*
X114334966Y-78104997D01*
X114315141Y-77878400D01*
X114315139Y-77878389D01*
X114256269Y-77658682D01*
X114256264Y-77658668D01*
X114160136Y-77452521D01*
X114160132Y-77452513D01*
X114109025Y-77379526D01*
X113430000Y-78058551D01*
X113430000Y-78052339D01*
X113402741Y-77950606D01*
X113350080Y-77859394D01*
X113275606Y-77784920D01*
X113184394Y-77732259D01*
X113082661Y-77705000D01*
X113076448Y-77705000D01*
X113755472Y-77025974D01*
X113682478Y-76974863D01*
X113476331Y-76878735D01*
X113476317Y-76878730D01*
X113256610Y-76819860D01*
X113256599Y-76819858D01*
X113030002Y-76800034D01*
X113029998Y-76800034D01*
X112803400Y-76819858D01*
X112803389Y-76819860D01*
X112583682Y-76878730D01*
X112583673Y-76878734D01*
X112377516Y-76974866D01*
X112377512Y-76974868D01*
X112304526Y-77025973D01*
X112304526Y-77025974D01*
X112983553Y-77705000D01*
X112977339Y-77705000D01*
X112875606Y-77732259D01*
X112784394Y-77784920D01*
X112709920Y-77859394D01*
X112657259Y-77950606D01*
X112630000Y-78052339D01*
X112630000Y-78058552D01*
X111950974Y-77379526D01*
X111950973Y-77379526D01*
X111899868Y-77452512D01*
X111899867Y-77452514D01*
X111892656Y-77467979D01*
X111846482Y-77520417D01*
X111779288Y-77539567D01*
X111712407Y-77519350D01*
X111667893Y-77467976D01*
X111660568Y-77452266D01*
X111539420Y-77279247D01*
X111530045Y-77265858D01*
X111369141Y-77104954D01*
X111182734Y-76974432D01*
X111182732Y-76974431D01*
X110976497Y-76878261D01*
X110976488Y-76878258D01*
X110756697Y-76819366D01*
X110756693Y-76819365D01*
X110756692Y-76819365D01*
X110756691Y-76819364D01*
X110756686Y-76819364D01*
X110530002Y-76799532D01*
X110529998Y-76799532D01*
X110303313Y-76819364D01*
X110303302Y-76819366D01*
X110083511Y-76878258D01*
X110083502Y-76878261D01*
X109877267Y-76974431D01*
X109877265Y-76974432D01*
X109690858Y-77104954D01*
X109529954Y-77265858D01*
X109399432Y-77452265D01*
X109399431Y-77452267D01*
X109303261Y-77658502D01*
X109303258Y-77658511D01*
X109244366Y-77878302D01*
X109244364Y-77878313D01*
X109224532Y-78104998D01*
X73285655Y-78104998D01*
X72959187Y-77778530D01*
X72925702Y-77717207D01*
X72930686Y-77647515D01*
X72972558Y-77591582D01*
X72990322Y-77581223D01*
X72990098Y-77580809D01*
X73213228Y-77460057D01*
X73213231Y-77460055D01*
X73260056Y-77423609D01*
X72560234Y-76723787D01*
X72602292Y-76712518D01*
X72727708Y-76640110D01*
X72830110Y-76537708D01*
X72902518Y-76412292D01*
X72913787Y-76370235D01*
X73613434Y-77069882D01*
X73713731Y-76916369D01*
X73813587Y-76688717D01*
X73874612Y-76447738D01*
X73874614Y-76447729D01*
X73895141Y-76200005D01*
X73895141Y-76199999D01*
X74994357Y-76199999D01*
X74994357Y-76200000D01*
X75014884Y-76421535D01*
X75014885Y-76421537D01*
X75075769Y-76635523D01*
X75075775Y-76635538D01*
X75174938Y-76834683D01*
X75174943Y-76834691D01*
X75309020Y-77012238D01*
X75473437Y-77162123D01*
X75473439Y-77162125D01*
X75662595Y-77279245D01*
X75662596Y-77279245D01*
X75662599Y-77279247D01*
X75870060Y-77359618D01*
X76088757Y-77400500D01*
X76088759Y-77400500D01*
X76311241Y-77400500D01*
X76311243Y-77400500D01*
X76529940Y-77359618D01*
X76737401Y-77279247D01*
X76926562Y-77162124D01*
X77090981Y-77012236D01*
X77225058Y-76834689D01*
X77232689Y-76819365D01*
X77324224Y-76635538D01*
X77324223Y-76635538D01*
X77324229Y-76635528D01*
X77385115Y-76421536D01*
X77405643Y-76200000D01*
X77405642Y-76199994D01*
X77405642Y-76199993D01*
X79239700Y-76199993D01*
X79239700Y-76200006D01*
X79258864Y-76431297D01*
X79258866Y-76431308D01*
X79315842Y-76656300D01*
X79409075Y-76868848D01*
X79536016Y-77063147D01*
X79536019Y-77063151D01*
X79536021Y-77063153D01*
X79693216Y-77233913D01*
X79693219Y-77233915D01*
X79693222Y-77233918D01*
X79876365Y-77376464D01*
X79876371Y-77376468D01*
X79876374Y-77376470D01*
X80080497Y-77486936D01*
X80174916Y-77519350D01*
X80300015Y-77562297D01*
X80300017Y-77562297D01*
X80300019Y-77562298D01*
X80528951Y-77600500D01*
X80528952Y-77600500D01*
X80761048Y-77600500D01*
X80761049Y-77600500D01*
X80989981Y-77562298D01*
X81209503Y-77486936D01*
X81413626Y-77376470D01*
X81596784Y-77233913D01*
X81753979Y-77063153D01*
X81880924Y-76868849D01*
X81974157Y-76656300D01*
X82026400Y-76450000D01*
X83913505Y-76450000D01*
X83966239Y-76635349D01*
X84065368Y-76834425D01*
X84199391Y-77011900D01*
X84363738Y-77161721D01*
X84552820Y-77278797D01*
X84552822Y-77278798D01*
X84760195Y-77359135D01*
X84840000Y-77374052D01*
X85340000Y-77374052D01*
X85419804Y-77359135D01*
X85627177Y-77278798D01*
X85627179Y-77278797D01*
X85816261Y-77161721D01*
X85980608Y-77011900D01*
X86114631Y-76834425D01*
X86213760Y-76635349D01*
X86266495Y-76450000D01*
X85340000Y-76450000D01*
X85340000Y-77374052D01*
X84840000Y-77374052D01*
X84840000Y-76450000D01*
X83913505Y-76450000D01*
X82026400Y-76450000D01*
X82031134Y-76431305D01*
X82031135Y-76431297D01*
X82050300Y-76200006D01*
X82050300Y-76199993D01*
X82046483Y-76153922D01*
X84740000Y-76153922D01*
X84740000Y-76246078D01*
X84763852Y-76335095D01*
X84809930Y-76414905D01*
X84875095Y-76480070D01*
X84954905Y-76526148D01*
X85043922Y-76550000D01*
X85136078Y-76550000D01*
X85225095Y-76526148D01*
X85304905Y-76480070D01*
X85370070Y-76414905D01*
X85416148Y-76335095D01*
X85440000Y-76246078D01*
X85440000Y-76153922D01*
X85416148Y-76064905D01*
X85370070Y-75985095D01*
X85334975Y-75950000D01*
X85340000Y-75950000D01*
X86266495Y-75950000D01*
X86213760Y-75764650D01*
X86114631Y-75565574D01*
X85980608Y-75388099D01*
X85816261Y-75238278D01*
X85627179Y-75121202D01*
X85627177Y-75121201D01*
X85419799Y-75040864D01*
X85340000Y-75025946D01*
X85340000Y-75950000D01*
X85334975Y-75950000D01*
X85304905Y-75919930D01*
X85225095Y-75873852D01*
X85136078Y-75850000D01*
X85043922Y-75850000D01*
X84954905Y-75873852D01*
X84875095Y-75919930D01*
X84809930Y-75985095D01*
X84763852Y-76064905D01*
X84740000Y-76153922D01*
X82046483Y-76153922D01*
X82031135Y-75968702D01*
X82031133Y-75968691D01*
X82026400Y-75950000D01*
X83913505Y-75950000D01*
X84840000Y-75950000D01*
X84840000Y-75025946D01*
X84760200Y-75040864D01*
X84552822Y-75121201D01*
X84552820Y-75121202D01*
X84363738Y-75238278D01*
X84199391Y-75388099D01*
X84065368Y-75565574D01*
X83966239Y-75764650D01*
X83913505Y-75950000D01*
X82026400Y-75950000D01*
X81974157Y-75743699D01*
X81880924Y-75531151D01*
X81753983Y-75336852D01*
X81753980Y-75336849D01*
X81753979Y-75336847D01*
X81659195Y-75233884D01*
X81628275Y-75171232D01*
X81636135Y-75101806D01*
X81680283Y-75047651D01*
X81707095Y-75033722D01*
X81787326Y-75003798D01*
X81787326Y-75003797D01*
X81787331Y-75003796D01*
X81902546Y-74917546D01*
X81988796Y-74802331D01*
X82039091Y-74667483D01*
X82045500Y-74607873D01*
X82045499Y-72712128D01*
X82039091Y-72652517D01*
X81988796Y-72517669D01*
X81988795Y-72517668D01*
X81988793Y-72517664D01*
X81902547Y-72402455D01*
X81902544Y-72402452D01*
X81787335Y-72316206D01*
X81787328Y-72316202D01*
X81652482Y-72265908D01*
X81652483Y-72265908D01*
X81592883Y-72259501D01*
X81592881Y-72259500D01*
X81592873Y-72259500D01*
X81592864Y-72259500D01*
X79697129Y-72259500D01*
X79697123Y-72259501D01*
X79637516Y-72265908D01*
X79502671Y-72316202D01*
X79502664Y-72316206D01*
X79387455Y-72402452D01*
X79387452Y-72402455D01*
X79301206Y-72517664D01*
X79301202Y-72517671D01*
X79250908Y-72652517D01*
X79244501Y-72712116D01*
X79244501Y-72712123D01*
X79244500Y-72712135D01*
X79244500Y-74607870D01*
X79244501Y-74607876D01*
X79250908Y-74667483D01*
X79301202Y-74802328D01*
X79301206Y-74802335D01*
X79387452Y-74917544D01*
X79387455Y-74917547D01*
X79502664Y-75003793D01*
X79502673Y-75003798D01*
X79582904Y-75033722D01*
X79638838Y-75075593D01*
X79663256Y-75141057D01*
X79648405Y-75209330D01*
X79630802Y-75233886D01*
X79536019Y-75336849D01*
X79409075Y-75531151D01*
X79315842Y-75743699D01*
X79258866Y-75968691D01*
X79258864Y-75968702D01*
X79239700Y-76199993D01*
X77405642Y-76199993D01*
X77385115Y-75978464D01*
X77385114Y-75978462D01*
X77377659Y-75952261D01*
X77324229Y-75764472D01*
X77324224Y-75764461D01*
X77225061Y-75565316D01*
X77225056Y-75565308D01*
X77090979Y-75387761D01*
X76926562Y-75237876D01*
X76926560Y-75237874D01*
X76737404Y-75120754D01*
X76737398Y-75120752D01*
X76529940Y-75040382D01*
X76311243Y-74999500D01*
X76088757Y-74999500D01*
X75870060Y-75040382D01*
X75818130Y-75060500D01*
X75662601Y-75120752D01*
X75662595Y-75120754D01*
X75473439Y-75237874D01*
X75473437Y-75237876D01*
X75309020Y-75387761D01*
X75174943Y-75565308D01*
X75174938Y-75565316D01*
X75075775Y-75764461D01*
X75075769Y-75764476D01*
X75014885Y-75978462D01*
X75014884Y-75978464D01*
X74994357Y-76199999D01*
X73895141Y-76199999D01*
X73895141Y-76199994D01*
X73874614Y-75952270D01*
X73874612Y-75952261D01*
X73813587Y-75711282D01*
X73713731Y-75483630D01*
X73613434Y-75330116D01*
X72913787Y-76029764D01*
X72902518Y-75987708D01*
X72830110Y-75862292D01*
X72727708Y-75759890D01*
X72602292Y-75687482D01*
X72560235Y-75676212D01*
X73260057Y-74976390D01*
X73260056Y-74976389D01*
X73213229Y-74939943D01*
X72994614Y-74821635D01*
X72994603Y-74821630D01*
X72759493Y-74740916D01*
X72514293Y-74700000D01*
X72265707Y-74700000D01*
X72020506Y-74740916D01*
X71785396Y-74821630D01*
X71785390Y-74821632D01*
X71566761Y-74939949D01*
X71519942Y-74976388D01*
X71519942Y-74976390D01*
X72219765Y-75676212D01*
X72177708Y-75687482D01*
X72052292Y-75759890D01*
X71949890Y-75862292D01*
X71877482Y-75987708D01*
X71866212Y-76029765D01*
X71166564Y-75330116D01*
X71066268Y-75483630D01*
X71016608Y-75596844D01*
X70971651Y-75650329D01*
X70904915Y-75671019D01*
X70837588Y-75652344D01*
X70815371Y-75634714D01*
X67375092Y-72194435D01*
X67341607Y-72133112D01*
X67342567Y-72076316D01*
X67375108Y-71947821D01*
X67375109Y-71947812D01*
X67395643Y-71700005D01*
X67395643Y-71699994D01*
X70884357Y-71699994D01*
X70884357Y-71700005D01*
X70904890Y-71947812D01*
X70904892Y-71947824D01*
X70965936Y-72188881D01*
X71065826Y-72416606D01*
X71201833Y-72624782D01*
X71201836Y-72624785D01*
X71370256Y-72807738D01*
X71566491Y-72960474D01*
X71785190Y-73078828D01*
X72020386Y-73159571D01*
X72265665Y-73200500D01*
X72514335Y-73200500D01*
X72759614Y-73159571D01*
X72994810Y-73078828D01*
X73213509Y-72960474D01*
X73409744Y-72807738D01*
X73578164Y-72624785D01*
X73714173Y-72416607D01*
X73814063Y-72188881D01*
X73875108Y-71947821D01*
X73875109Y-71947812D01*
X73895643Y-71700005D01*
X73895643Y-71699994D01*
X73875109Y-71452187D01*
X73875107Y-71452175D01*
X73814063Y-71211118D01*
X73774094Y-71119999D01*
X74994357Y-71119999D01*
X74994357Y-71120000D01*
X75014884Y-71341535D01*
X75014885Y-71341537D01*
X75075769Y-71555523D01*
X75075775Y-71555538D01*
X75174938Y-71754683D01*
X75174943Y-71754691D01*
X75309020Y-71932238D01*
X75473437Y-72082123D01*
X75473439Y-72082125D01*
X75662595Y-72199245D01*
X75662596Y-72199245D01*
X75662599Y-72199247D01*
X75870060Y-72279618D01*
X76088757Y-72320500D01*
X76088759Y-72320500D01*
X76311241Y-72320500D01*
X76311243Y-72320500D01*
X76529940Y-72279618D01*
X76737401Y-72199247D01*
X76926562Y-72082124D01*
X77090981Y-71932236D01*
X77225058Y-71754689D01*
X77324229Y-71555528D01*
X77385115Y-71341536D01*
X77405643Y-71120000D01*
X77405643Y-71119999D01*
X83884357Y-71119999D01*
X83884357Y-71120000D01*
X83904884Y-71341535D01*
X83904885Y-71341537D01*
X83965769Y-71555523D01*
X83965775Y-71555538D01*
X84064938Y-71754683D01*
X84064943Y-71754691D01*
X84199020Y-71932238D01*
X84363437Y-72082123D01*
X84363439Y-72082125D01*
X84552595Y-72199245D01*
X84552596Y-72199245D01*
X84552599Y-72199247D01*
X84760060Y-72279618D01*
X84978757Y-72320500D01*
X84978759Y-72320500D01*
X85201241Y-72320500D01*
X85201243Y-72320500D01*
X85419940Y-72279618D01*
X85627401Y-72199247D01*
X85816562Y-72082124D01*
X85980981Y-71932236D01*
X86115058Y-71754689D01*
X86214229Y-71555528D01*
X86275115Y-71341536D01*
X86295643Y-71120000D01*
X86275115Y-70898464D01*
X86214229Y-70684472D01*
X86168314Y-70592262D01*
X86115061Y-70485316D01*
X86115056Y-70485308D01*
X85980979Y-70307761D01*
X85816562Y-70157876D01*
X85816560Y-70157874D01*
X85627404Y-70040754D01*
X85627398Y-70040752D01*
X85419940Y-69960382D01*
X85201243Y-69919500D01*
X84978757Y-69919500D01*
X84760060Y-69960382D01*
X84628864Y-70011207D01*
X84552601Y-70040752D01*
X84552595Y-70040754D01*
X84363439Y-70157874D01*
X84363437Y-70157876D01*
X84199020Y-70307761D01*
X84064943Y-70485308D01*
X84064938Y-70485316D01*
X83965775Y-70684461D01*
X83965769Y-70684476D01*
X83904885Y-70898462D01*
X83904884Y-70898464D01*
X83884357Y-71119999D01*
X77405643Y-71119999D01*
X77385115Y-70898464D01*
X77324229Y-70684472D01*
X77278314Y-70592262D01*
X77225061Y-70485316D01*
X77225056Y-70485308D01*
X77090979Y-70307761D01*
X76926562Y-70157876D01*
X76926560Y-70157874D01*
X76737404Y-70040754D01*
X76737398Y-70040752D01*
X76529940Y-69960382D01*
X76311243Y-69919500D01*
X76088757Y-69919500D01*
X75870060Y-69960382D01*
X75738864Y-70011207D01*
X75662601Y-70040752D01*
X75662595Y-70040754D01*
X75473439Y-70157874D01*
X75473437Y-70157876D01*
X75309020Y-70307761D01*
X75174943Y-70485308D01*
X75174938Y-70485316D01*
X75075775Y-70684461D01*
X75075769Y-70684476D01*
X75014885Y-70898462D01*
X75014884Y-70898464D01*
X74994357Y-71119999D01*
X73774094Y-71119999D01*
X73714173Y-70983393D01*
X73578166Y-70775217D01*
X73556557Y-70751744D01*
X73409744Y-70592262D01*
X73213509Y-70439526D01*
X73213507Y-70439525D01*
X73213506Y-70439524D01*
X72994811Y-70321172D01*
X72994802Y-70321169D01*
X72759616Y-70240429D01*
X72514335Y-70199500D01*
X72265665Y-70199500D01*
X72020383Y-70240429D01*
X71785197Y-70321169D01*
X71785188Y-70321172D01*
X71566493Y-70439524D01*
X71370257Y-70592261D01*
X71201833Y-70775217D01*
X71065826Y-70983393D01*
X70965936Y-71211118D01*
X70904892Y-71452175D01*
X70904890Y-71452187D01*
X70884357Y-71699994D01*
X67395643Y-71699994D01*
X67375109Y-71452187D01*
X67375107Y-71452175D01*
X67314063Y-71211118D01*
X67214173Y-70983393D01*
X67078166Y-70775217D01*
X67056557Y-70751744D01*
X66909744Y-70592262D01*
X66713509Y-70439526D01*
X66713507Y-70439525D01*
X66713506Y-70439524D01*
X66494811Y-70321172D01*
X66494802Y-70321169D01*
X66259616Y-70240429D01*
X66014335Y-70199500D01*
X65765665Y-70199500D01*
X65520383Y-70240429D01*
X65285197Y-70321169D01*
X65285188Y-70321172D01*
X65066493Y-70439524D01*
X64870257Y-70592261D01*
X64701833Y-70775217D01*
X64565826Y-70983393D01*
X64465936Y-71211118D01*
X64404892Y-71452175D01*
X64404890Y-71452187D01*
X64384357Y-71699994D01*
X64000500Y-71699994D01*
X64000500Y-64507135D01*
X64689500Y-64507135D01*
X64689500Y-66302870D01*
X64689501Y-66302876D01*
X64695908Y-66362483D01*
X64746202Y-66497328D01*
X64746206Y-66497335D01*
X64832452Y-66612544D01*
X64832455Y-66612547D01*
X64947664Y-66698793D01*
X64947671Y-66698797D01*
X65082517Y-66749091D01*
X65082516Y-66749091D01*
X65089444Y-66749835D01*
X65142127Y-66755500D01*
X66937872Y-66755499D01*
X66997483Y-66749091D01*
X67132331Y-66698796D01*
X67247546Y-66612546D01*
X67333796Y-66497331D01*
X67382810Y-66365916D01*
X67424681Y-66309984D01*
X67490145Y-66285566D01*
X67558418Y-66300417D01*
X67586673Y-66321569D01*
X67708599Y-66443495D01*
X67805384Y-66511265D01*
X67902165Y-66579032D01*
X67902167Y-66579033D01*
X67902170Y-66579035D01*
X68116337Y-66678903D01*
X68344592Y-66740063D01*
X68521034Y-66755500D01*
X68579999Y-66760659D01*
X68580000Y-66760659D01*
X68580001Y-66760659D01*
X68638966Y-66755500D01*
X68815408Y-66740063D01*
X69043663Y-66678903D01*
X69257830Y-66579035D01*
X69451401Y-66443495D01*
X69618495Y-66276401D01*
X69748730Y-66090405D01*
X69803307Y-66046781D01*
X69872805Y-66039587D01*
X69935160Y-66071110D01*
X69951879Y-66090405D01*
X70081890Y-66276078D01*
X70248917Y-66443105D01*
X70442421Y-66578600D01*
X70656507Y-66678429D01*
X70656516Y-66678433D01*
X70870000Y-66735634D01*
X70870000Y-65838012D01*
X70927007Y-65870925D01*
X71054174Y-65905000D01*
X71185826Y-65905000D01*
X71312993Y-65870925D01*
X71370000Y-65838012D01*
X71370000Y-66735633D01*
X71583483Y-66678433D01*
X71583492Y-66678429D01*
X71797578Y-66578600D01*
X71991082Y-66443105D01*
X72158105Y-66276082D01*
X72288119Y-66090405D01*
X72342696Y-66046781D01*
X72412195Y-66039588D01*
X72474549Y-66071110D01*
X72491269Y-66090405D01*
X72621505Y-66276401D01*
X72788599Y-66443495D01*
X72885384Y-66511265D01*
X72982165Y-66579032D01*
X72982167Y-66579033D01*
X72982170Y-66579035D01*
X73196337Y-66678903D01*
X73424592Y-66740063D01*
X73601034Y-66755500D01*
X73659999Y-66760659D01*
X73660000Y-66760659D01*
X73660001Y-66760659D01*
X73718966Y-66755500D01*
X73895408Y-66740063D01*
X74123663Y-66678903D01*
X74337830Y-66579035D01*
X74531401Y-66443495D01*
X74698495Y-66276401D01*
X74828425Y-66090842D01*
X74883002Y-66047217D01*
X74952500Y-66040023D01*
X75014855Y-66071546D01*
X75031575Y-66090842D01*
X75161500Y-66276395D01*
X75161505Y-66276401D01*
X75328599Y-66443495D01*
X75425384Y-66511265D01*
X75522165Y-66579032D01*
X75522167Y-66579033D01*
X75522170Y-66579035D01*
X75736337Y-66678903D01*
X75964592Y-66740063D01*
X76141034Y-66755500D01*
X76199999Y-66760659D01*
X76200000Y-66760659D01*
X76200001Y-66760659D01*
X76258966Y-66755500D01*
X76435408Y-66740063D01*
X76663663Y-66678903D01*
X76877830Y-66579035D01*
X77071401Y-66443495D01*
X77238495Y-66276401D01*
X77374035Y-66082830D01*
X77473903Y-65868663D01*
X77535063Y-65640408D01*
X77555659Y-65405000D01*
X77555659Y-65404999D01*
X88814341Y-65404999D01*
X88814341Y-65405000D01*
X88834936Y-65640403D01*
X88834938Y-65640413D01*
X88896094Y-65868655D01*
X88896096Y-65868659D01*
X88896097Y-65868663D01*
X88975801Y-66039588D01*
X88995965Y-66082830D01*
X88995967Y-66082834D01*
X89104281Y-66237521D01*
X89131505Y-66276401D01*
X89298599Y-66443495D01*
X89395384Y-66511265D01*
X89492165Y-66579032D01*
X89492167Y-66579033D01*
X89492170Y-66579035D01*
X89706337Y-66678903D01*
X89934592Y-66740063D01*
X90111034Y-66755500D01*
X90169999Y-66760659D01*
X90170000Y-66760659D01*
X90170001Y-66760659D01*
X90228966Y-66755500D01*
X90405408Y-66740063D01*
X90633663Y-66678903D01*
X90847830Y-66579035D01*
X91041401Y-66443495D01*
X91208495Y-66276401D01*
X91338425Y-66090842D01*
X91393002Y-66047217D01*
X91462500Y-66040023D01*
X91524855Y-66071546D01*
X91541575Y-66090842D01*
X91671500Y-66276395D01*
X91671505Y-66276401D01*
X91838599Y-66443495D01*
X91935384Y-66511265D01*
X92032165Y-66579032D01*
X92032167Y-66579033D01*
X92032170Y-66579035D01*
X92246337Y-66678903D01*
X92474592Y-66740063D01*
X92651034Y-66755500D01*
X92709999Y-66760659D01*
X92710000Y-66760659D01*
X92710001Y-66760659D01*
X92768966Y-66755500D01*
X92945408Y-66740063D01*
X93173663Y-66678903D01*
X93387830Y-66579035D01*
X93581401Y-66443495D01*
X93748495Y-66276401D01*
X93878425Y-66090842D01*
X93933002Y-66047217D01*
X94002500Y-66040023D01*
X94064855Y-66071546D01*
X94081575Y-66090842D01*
X94211500Y-66276395D01*
X94211505Y-66276401D01*
X94378599Y-66443495D01*
X94475384Y-66511265D01*
X94572165Y-66579032D01*
X94572167Y-66579033D01*
X94572170Y-66579035D01*
X94786337Y-66678903D01*
X95014592Y-66740063D01*
X95191034Y-66755500D01*
X95249999Y-66760659D01*
X95250000Y-66760659D01*
X95250001Y-66760659D01*
X95308966Y-66755500D01*
X95485408Y-66740063D01*
X95713663Y-66678903D01*
X95927830Y-66579035D01*
X96121401Y-66443495D01*
X96288495Y-66276401D01*
X96418425Y-66090842D01*
X96473002Y-66047217D01*
X96542500Y-66040023D01*
X96604855Y-66071546D01*
X96621575Y-66090842D01*
X96751500Y-66276395D01*
X96751505Y-66276401D01*
X96918599Y-66443495D01*
X97015384Y-66511265D01*
X97112165Y-66579032D01*
X97112167Y-66579033D01*
X97112170Y-66579035D01*
X97326337Y-66678903D01*
X97554592Y-66740063D01*
X97731034Y-66755500D01*
X97789999Y-66760659D01*
X97790000Y-66760659D01*
X97790001Y-66760659D01*
X97848966Y-66755500D01*
X98025408Y-66740063D01*
X98253663Y-66678903D01*
X98467830Y-66579035D01*
X98661401Y-66443495D01*
X98828495Y-66276401D01*
X98958425Y-66090842D01*
X99013002Y-66047217D01*
X99082500Y-66040023D01*
X99144855Y-66071546D01*
X99161575Y-66090842D01*
X99291500Y-66276395D01*
X99291505Y-66276401D01*
X99458599Y-66443495D01*
X99555384Y-66511265D01*
X99652165Y-66579032D01*
X99652167Y-66579033D01*
X99652170Y-66579035D01*
X99866337Y-66678903D01*
X100094592Y-66740063D01*
X100271034Y-66755500D01*
X100329999Y-66760659D01*
X100330000Y-66760659D01*
X100330001Y-66760659D01*
X100388966Y-66755500D01*
X100565408Y-66740063D01*
X100793663Y-66678903D01*
X101007830Y-66579035D01*
X101201401Y-66443495D01*
X101368495Y-66276401D01*
X101498425Y-66090842D01*
X101553002Y-66047217D01*
X101622500Y-66040023D01*
X101684855Y-66071546D01*
X101701575Y-66090842D01*
X101831500Y-66276395D01*
X101831505Y-66276401D01*
X101998599Y-66443495D01*
X102095384Y-66511265D01*
X102192165Y-66579032D01*
X102192167Y-66579033D01*
X102192170Y-66579035D01*
X102406337Y-66678903D01*
X102634592Y-66740063D01*
X102811034Y-66755500D01*
X102869999Y-66760659D01*
X102870000Y-66760659D01*
X102870001Y-66760659D01*
X102928966Y-66755500D01*
X103105408Y-66740063D01*
X103333663Y-66678903D01*
X103547830Y-66579035D01*
X103741401Y-66443495D01*
X103908495Y-66276401D01*
X104038425Y-66090842D01*
X104093002Y-66047217D01*
X104162500Y-66040023D01*
X104224855Y-66071546D01*
X104241575Y-66090842D01*
X104371500Y-66276395D01*
X104371505Y-66276401D01*
X104538599Y-66443495D01*
X104635384Y-66511265D01*
X104732165Y-66579032D01*
X104732167Y-66579033D01*
X104732170Y-66579035D01*
X104946337Y-66678903D01*
X105174592Y-66740063D01*
X105351034Y-66755500D01*
X105409999Y-66760659D01*
X105410000Y-66760659D01*
X105410001Y-66760659D01*
X105468966Y-66755500D01*
X105645408Y-66740063D01*
X105873663Y-66678903D01*
X106087830Y-66579035D01*
X106281401Y-66443495D01*
X106403329Y-66321566D01*
X106464648Y-66288084D01*
X106534340Y-66293068D01*
X106590274Y-66334939D01*
X106607189Y-66365917D01*
X106656202Y-66497328D01*
X106656206Y-66497335D01*
X106742452Y-66612544D01*
X106742455Y-66612547D01*
X106857664Y-66698793D01*
X106857671Y-66698797D01*
X106992517Y-66749091D01*
X106992516Y-66749091D01*
X106999444Y-66749835D01*
X107052127Y-66755500D01*
X108847872Y-66755499D01*
X108907483Y-66749091D01*
X109042331Y-66698796D01*
X109157546Y-66612546D01*
X109243796Y-66497331D01*
X109294091Y-66362483D01*
X109300500Y-66302873D01*
X109300499Y-65404999D01*
X111674341Y-65404999D01*
X111674341Y-65405000D01*
X111694936Y-65640403D01*
X111694938Y-65640413D01*
X111756094Y-65868655D01*
X111756096Y-65868659D01*
X111756097Y-65868663D01*
X111835801Y-66039588D01*
X111855965Y-66082830D01*
X111855967Y-66082834D01*
X111964281Y-66237521D01*
X111991505Y-66276401D01*
X112158599Y-66443495D01*
X112255384Y-66511265D01*
X112352165Y-66579032D01*
X112352167Y-66579033D01*
X112352170Y-66579035D01*
X112566337Y-66678903D01*
X112794592Y-66740063D01*
X112971034Y-66755500D01*
X113029999Y-66760659D01*
X113030000Y-66760659D01*
X113030001Y-66760659D01*
X113088966Y-66755500D01*
X113265408Y-66740063D01*
X113493663Y-66678903D01*
X113707830Y-66579035D01*
X113901401Y-66443495D01*
X114068495Y-66276401D01*
X114198425Y-66090842D01*
X114253002Y-66047217D01*
X114322500Y-66040023D01*
X114384855Y-66071546D01*
X114401575Y-66090842D01*
X114531500Y-66276395D01*
X114531505Y-66276401D01*
X114698599Y-66443495D01*
X114795384Y-66511265D01*
X114892165Y-66579032D01*
X114892167Y-66579033D01*
X114892170Y-66579035D01*
X115106337Y-66678903D01*
X115334592Y-66740063D01*
X115511034Y-66755500D01*
X115569999Y-66760659D01*
X115570000Y-66760659D01*
X115570001Y-66760659D01*
X115628966Y-66755500D01*
X115805408Y-66740063D01*
X116033663Y-66678903D01*
X116247830Y-66579035D01*
X116441401Y-66443495D01*
X116608495Y-66276401D01*
X116738425Y-66090842D01*
X116793002Y-66047217D01*
X116862500Y-66040023D01*
X116924855Y-66071546D01*
X116941575Y-66090842D01*
X117071500Y-66276395D01*
X117071505Y-66276401D01*
X117238599Y-66443495D01*
X117335384Y-66511265D01*
X117432165Y-66579032D01*
X117432167Y-66579033D01*
X117432170Y-66579035D01*
X117646337Y-66678903D01*
X117874592Y-66740063D01*
X118051034Y-66755500D01*
X118109999Y-66760659D01*
X118110000Y-66760659D01*
X118110001Y-66760659D01*
X118168966Y-66755500D01*
X118345408Y-66740063D01*
X118573663Y-66678903D01*
X118787830Y-66579035D01*
X118981401Y-66443495D01*
X119148495Y-66276401D01*
X119278425Y-66090842D01*
X119333002Y-66047217D01*
X119402500Y-66040023D01*
X119464855Y-66071546D01*
X119481575Y-66090842D01*
X119611500Y-66276395D01*
X119611505Y-66276401D01*
X119778599Y-66443495D01*
X119875384Y-66511265D01*
X119972165Y-66579032D01*
X119972167Y-66579033D01*
X119972170Y-66579035D01*
X120186337Y-66678903D01*
X120414592Y-66740063D01*
X120591034Y-66755500D01*
X120649999Y-66760659D01*
X120650000Y-66760659D01*
X120650001Y-66760659D01*
X120708966Y-66755500D01*
X120885408Y-66740063D01*
X121113663Y-66678903D01*
X121327830Y-66579035D01*
X121521401Y-66443495D01*
X121688495Y-66276401D01*
X121818425Y-66090842D01*
X121873002Y-66047217D01*
X121942500Y-66040023D01*
X122004855Y-66071546D01*
X122021575Y-66090842D01*
X122151500Y-66276395D01*
X122151505Y-66276401D01*
X122318599Y-66443495D01*
X122415384Y-66511265D01*
X122512165Y-66579032D01*
X122512167Y-66579033D01*
X122512170Y-66579035D01*
X122726337Y-66678903D01*
X122954592Y-66740063D01*
X123131034Y-66755500D01*
X123189999Y-66760659D01*
X123190000Y-66760659D01*
X123190001Y-66760659D01*
X123248966Y-66755500D01*
X123425408Y-66740063D01*
X123653663Y-66678903D01*
X123867830Y-66579035D01*
X124061401Y-66443495D01*
X124228495Y-66276401D01*
X124358425Y-66090842D01*
X124413002Y-66047217D01*
X124482500Y-66040023D01*
X124544855Y-66071546D01*
X124561575Y-66090842D01*
X124691500Y-66276395D01*
X124691505Y-66276401D01*
X124858599Y-66443495D01*
X124955384Y-66511265D01*
X125052165Y-66579032D01*
X125052167Y-66579033D01*
X125052170Y-66579035D01*
X125266337Y-66678903D01*
X125494592Y-66740063D01*
X125671034Y-66755500D01*
X125729999Y-66760659D01*
X125730000Y-66760659D01*
X125730001Y-66760659D01*
X125788966Y-66755500D01*
X125965408Y-66740063D01*
X126193663Y-66678903D01*
X126407830Y-66579035D01*
X126601401Y-66443495D01*
X126768495Y-66276401D01*
X126898425Y-66090842D01*
X126953002Y-66047217D01*
X127022500Y-66040023D01*
X127084855Y-66071546D01*
X127101575Y-66090842D01*
X127231500Y-66276395D01*
X127231505Y-66276401D01*
X127398599Y-66443495D01*
X127495384Y-66511265D01*
X127592165Y-66579032D01*
X127592167Y-66579033D01*
X127592170Y-66579035D01*
X127806337Y-66678903D01*
X128034592Y-66740063D01*
X128211034Y-66755500D01*
X128269999Y-66760659D01*
X128270000Y-66760659D01*
X128270001Y-66760659D01*
X128328966Y-66755500D01*
X128505408Y-66740063D01*
X128733663Y-66678903D01*
X128947830Y-66579035D01*
X129141401Y-66443495D01*
X129263329Y-66321566D01*
X129324648Y-66288084D01*
X129394340Y-66293068D01*
X129450274Y-66334939D01*
X129467189Y-66365917D01*
X129516202Y-66497328D01*
X129516206Y-66497335D01*
X129602452Y-66612544D01*
X129602455Y-66612547D01*
X129717664Y-66698793D01*
X129717671Y-66698797D01*
X129852517Y-66749091D01*
X129852516Y-66749091D01*
X129859444Y-66749835D01*
X129912127Y-66755500D01*
X131707872Y-66755499D01*
X131767483Y-66749091D01*
X131902331Y-66698796D01*
X132017546Y-66612546D01*
X132103796Y-66497331D01*
X132154091Y-66362483D01*
X132160500Y-66302873D01*
X132160499Y-64507128D01*
X132154091Y-64447517D01*
X132152810Y-64444083D01*
X132103797Y-64312671D01*
X132103793Y-64312664D01*
X132017547Y-64197455D01*
X132017544Y-64197452D01*
X131902335Y-64111206D01*
X131902328Y-64111202D01*
X131767482Y-64060908D01*
X131767483Y-64060908D01*
X131707883Y-64054501D01*
X131707881Y-64054500D01*
X131707873Y-64054500D01*
X131707864Y-64054500D01*
X129912129Y-64054500D01*
X129912123Y-64054501D01*
X129852516Y-64060908D01*
X129717671Y-64111202D01*
X129717664Y-64111206D01*
X129602455Y-64197452D01*
X129602452Y-64197455D01*
X129516206Y-64312664D01*
X129516203Y-64312669D01*
X129467189Y-64444083D01*
X129425317Y-64500016D01*
X129359853Y-64524433D01*
X129291580Y-64509581D01*
X129263326Y-64488430D01*
X129141402Y-64366506D01*
X129141395Y-64366501D01*
X128947834Y-64230967D01*
X128947830Y-64230965D01*
X128947828Y-64230964D01*
X128733663Y-64131097D01*
X128733659Y-64131096D01*
X128733655Y-64131094D01*
X128505413Y-64069938D01*
X128505403Y-64069936D01*
X128270001Y-64049341D01*
X128269999Y-64049341D01*
X128034596Y-64069936D01*
X128034586Y-64069938D01*
X127806344Y-64131094D01*
X127806335Y-64131098D01*
X127592171Y-64230964D01*
X127592169Y-64230965D01*
X127398597Y-64366505D01*
X127231505Y-64533597D01*
X127101575Y-64719158D01*
X127046998Y-64762783D01*
X126977500Y-64769977D01*
X126915145Y-64738454D01*
X126898425Y-64719158D01*
X126768494Y-64533597D01*
X126601402Y-64366506D01*
X126601395Y-64366501D01*
X126407834Y-64230967D01*
X126407830Y-64230965D01*
X126407828Y-64230964D01*
X126193663Y-64131097D01*
X126193659Y-64131096D01*
X126193655Y-64131094D01*
X125965413Y-64069938D01*
X125965403Y-64069936D01*
X125730001Y-64049341D01*
X125729999Y-64049341D01*
X125494596Y-64069936D01*
X125494586Y-64069938D01*
X125266344Y-64131094D01*
X125266335Y-64131098D01*
X125052171Y-64230964D01*
X125052169Y-64230965D01*
X124858597Y-64366505D01*
X124691505Y-64533597D01*
X124561575Y-64719158D01*
X124506998Y-64762783D01*
X124437500Y-64769977D01*
X124375145Y-64738454D01*
X124358425Y-64719158D01*
X124228494Y-64533597D01*
X124061402Y-64366506D01*
X124061395Y-64366501D01*
X123867834Y-64230967D01*
X123867830Y-64230965D01*
X123867828Y-64230964D01*
X123653663Y-64131097D01*
X123653659Y-64131096D01*
X123653655Y-64131094D01*
X123425413Y-64069938D01*
X123425403Y-64069936D01*
X123190001Y-64049341D01*
X123189999Y-64049341D01*
X122954596Y-64069936D01*
X122954586Y-64069938D01*
X122726344Y-64131094D01*
X122726335Y-64131098D01*
X122512171Y-64230964D01*
X122512169Y-64230965D01*
X122318597Y-64366505D01*
X122151505Y-64533597D01*
X122021575Y-64719158D01*
X121966998Y-64762783D01*
X121897500Y-64769977D01*
X121835145Y-64738454D01*
X121818425Y-64719158D01*
X121688494Y-64533597D01*
X121521402Y-64366506D01*
X121521395Y-64366501D01*
X121327834Y-64230967D01*
X121327830Y-64230965D01*
X121327828Y-64230964D01*
X121113663Y-64131097D01*
X121113659Y-64131096D01*
X121113655Y-64131094D01*
X120885413Y-64069938D01*
X120885403Y-64069936D01*
X120650001Y-64049341D01*
X120649999Y-64049341D01*
X120414596Y-64069936D01*
X120414586Y-64069938D01*
X120186344Y-64131094D01*
X120186335Y-64131098D01*
X119972171Y-64230964D01*
X119972169Y-64230965D01*
X119778597Y-64366505D01*
X119611505Y-64533597D01*
X119481575Y-64719158D01*
X119426998Y-64762783D01*
X119357500Y-64769977D01*
X119295145Y-64738454D01*
X119278425Y-64719158D01*
X119148494Y-64533597D01*
X118981402Y-64366506D01*
X118981395Y-64366501D01*
X118787834Y-64230967D01*
X118787830Y-64230965D01*
X118787828Y-64230964D01*
X118573663Y-64131097D01*
X118573659Y-64131096D01*
X118573655Y-64131094D01*
X118345413Y-64069938D01*
X118345403Y-64069936D01*
X118110001Y-64049341D01*
X118109999Y-64049341D01*
X117874596Y-64069936D01*
X117874586Y-64069938D01*
X117646344Y-64131094D01*
X117646335Y-64131098D01*
X117432171Y-64230964D01*
X117432169Y-64230965D01*
X117238597Y-64366505D01*
X117071505Y-64533597D01*
X116941575Y-64719158D01*
X116886998Y-64762783D01*
X116817500Y-64769977D01*
X116755145Y-64738454D01*
X116738425Y-64719158D01*
X116608494Y-64533597D01*
X116441402Y-64366506D01*
X116441395Y-64366501D01*
X116247834Y-64230967D01*
X116247830Y-64230965D01*
X116247828Y-64230964D01*
X116033663Y-64131097D01*
X116033659Y-64131096D01*
X116033655Y-64131094D01*
X115805413Y-64069938D01*
X115805403Y-64069936D01*
X115570001Y-64049341D01*
X115569999Y-64049341D01*
X115334596Y-64069936D01*
X115334586Y-64069938D01*
X115106344Y-64131094D01*
X115106335Y-64131098D01*
X114892171Y-64230964D01*
X114892169Y-64230965D01*
X114698597Y-64366505D01*
X114531505Y-64533597D01*
X114401575Y-64719158D01*
X114346998Y-64762783D01*
X114277500Y-64769977D01*
X114215145Y-64738454D01*
X114198425Y-64719158D01*
X114068494Y-64533597D01*
X113901402Y-64366506D01*
X113901395Y-64366501D01*
X113707834Y-64230967D01*
X113707830Y-64230965D01*
X113707828Y-64230964D01*
X113493663Y-64131097D01*
X113493659Y-64131096D01*
X113493655Y-64131094D01*
X113265413Y-64069938D01*
X113265403Y-64069936D01*
X113030001Y-64049341D01*
X113029999Y-64049341D01*
X112794596Y-64069936D01*
X112794586Y-64069938D01*
X112566344Y-64131094D01*
X112566335Y-64131098D01*
X112352171Y-64230964D01*
X112352169Y-64230965D01*
X112158597Y-64366505D01*
X111991505Y-64533597D01*
X111855965Y-64727169D01*
X111855964Y-64727171D01*
X111756098Y-64941335D01*
X111756094Y-64941344D01*
X111694938Y-65169586D01*
X111694936Y-65169596D01*
X111674341Y-65404999D01*
X109300499Y-65404999D01*
X109300499Y-64507128D01*
X109294091Y-64447517D01*
X109292810Y-64444083D01*
X109243797Y-64312671D01*
X109243793Y-64312664D01*
X109157547Y-64197455D01*
X109157544Y-64197452D01*
X109042335Y-64111206D01*
X109042328Y-64111202D01*
X108907482Y-64060908D01*
X108907483Y-64060908D01*
X108847883Y-64054501D01*
X108847881Y-64054500D01*
X108847873Y-64054500D01*
X108847864Y-64054500D01*
X107052129Y-64054500D01*
X107052123Y-64054501D01*
X106992516Y-64060908D01*
X106857671Y-64111202D01*
X106857664Y-64111206D01*
X106742455Y-64197452D01*
X106742452Y-64197455D01*
X106656206Y-64312664D01*
X106656203Y-64312669D01*
X106607189Y-64444083D01*
X106565317Y-64500016D01*
X106499853Y-64524433D01*
X106431580Y-64509581D01*
X106403326Y-64488430D01*
X106281402Y-64366506D01*
X106281395Y-64366501D01*
X106087834Y-64230967D01*
X106087830Y-64230965D01*
X106087828Y-64230964D01*
X105873663Y-64131097D01*
X105873659Y-64131096D01*
X105873655Y-64131094D01*
X105645413Y-64069938D01*
X105645403Y-64069936D01*
X105410001Y-64049341D01*
X105409999Y-64049341D01*
X105174596Y-64069936D01*
X105174586Y-64069938D01*
X104946344Y-64131094D01*
X104946335Y-64131098D01*
X104732171Y-64230964D01*
X104732169Y-64230965D01*
X104538597Y-64366505D01*
X104371505Y-64533597D01*
X104241575Y-64719158D01*
X104186998Y-64762783D01*
X104117500Y-64769977D01*
X104055145Y-64738454D01*
X104038425Y-64719158D01*
X103908494Y-64533597D01*
X103741402Y-64366506D01*
X103741395Y-64366501D01*
X103547834Y-64230967D01*
X103547830Y-64230965D01*
X103547828Y-64230964D01*
X103333663Y-64131097D01*
X103333659Y-64131096D01*
X103333655Y-64131094D01*
X103105413Y-64069938D01*
X103105403Y-64069936D01*
X102870001Y-64049341D01*
X102869999Y-64049341D01*
X102634596Y-64069936D01*
X102634586Y-64069938D01*
X102406344Y-64131094D01*
X102406335Y-64131098D01*
X102192171Y-64230964D01*
X102192169Y-64230965D01*
X101998597Y-64366505D01*
X101831505Y-64533597D01*
X101701575Y-64719158D01*
X101646998Y-64762783D01*
X101577500Y-64769977D01*
X101515145Y-64738454D01*
X101498425Y-64719158D01*
X101368494Y-64533597D01*
X101201402Y-64366506D01*
X101201395Y-64366501D01*
X101007834Y-64230967D01*
X101007830Y-64230965D01*
X101007828Y-64230964D01*
X100793663Y-64131097D01*
X100793659Y-64131096D01*
X100793655Y-64131094D01*
X100565413Y-64069938D01*
X100565403Y-64069936D01*
X100330001Y-64049341D01*
X100329999Y-64049341D01*
X100094596Y-64069936D01*
X100094586Y-64069938D01*
X99866344Y-64131094D01*
X99866335Y-64131098D01*
X99652171Y-64230964D01*
X99652169Y-64230965D01*
X99458597Y-64366505D01*
X99291505Y-64533597D01*
X99161575Y-64719158D01*
X99106998Y-64762783D01*
X99037500Y-64769977D01*
X98975145Y-64738454D01*
X98958425Y-64719158D01*
X98828494Y-64533597D01*
X98661402Y-64366506D01*
X98661395Y-64366501D01*
X98467834Y-64230967D01*
X98467830Y-64230965D01*
X98467828Y-64230964D01*
X98253663Y-64131097D01*
X98253659Y-64131096D01*
X98253655Y-64131094D01*
X98025413Y-64069938D01*
X98025403Y-64069936D01*
X97790001Y-64049341D01*
X97789999Y-64049341D01*
X97554596Y-64069936D01*
X97554586Y-64069938D01*
X97326344Y-64131094D01*
X97326335Y-64131098D01*
X97112171Y-64230964D01*
X97112169Y-64230965D01*
X96918597Y-64366505D01*
X96751505Y-64533597D01*
X96621575Y-64719158D01*
X96566998Y-64762783D01*
X96497500Y-64769977D01*
X96435145Y-64738454D01*
X96418425Y-64719158D01*
X96288494Y-64533597D01*
X96121402Y-64366506D01*
X96121395Y-64366501D01*
X95927834Y-64230967D01*
X95927830Y-64230965D01*
X95927828Y-64230964D01*
X95713663Y-64131097D01*
X95713659Y-64131096D01*
X95713655Y-64131094D01*
X95485413Y-64069938D01*
X95485403Y-64069936D01*
X95250001Y-64049341D01*
X95249999Y-64049341D01*
X95014596Y-64069936D01*
X95014586Y-64069938D01*
X94786344Y-64131094D01*
X94786335Y-64131098D01*
X94572171Y-64230964D01*
X94572169Y-64230965D01*
X94378597Y-64366505D01*
X94211505Y-64533597D01*
X94081575Y-64719158D01*
X94026998Y-64762783D01*
X93957500Y-64769977D01*
X93895145Y-64738454D01*
X93878425Y-64719158D01*
X93748494Y-64533597D01*
X93581402Y-64366506D01*
X93581395Y-64366501D01*
X93387834Y-64230967D01*
X93387830Y-64230965D01*
X93387828Y-64230964D01*
X93173663Y-64131097D01*
X93173659Y-64131096D01*
X93173655Y-64131094D01*
X92945413Y-64069938D01*
X92945403Y-64069936D01*
X92710001Y-64049341D01*
X92709999Y-64049341D01*
X92474596Y-64069936D01*
X92474586Y-64069938D01*
X92246344Y-64131094D01*
X92246335Y-64131098D01*
X92032171Y-64230964D01*
X92032169Y-64230965D01*
X91838597Y-64366505D01*
X91671505Y-64533597D01*
X91541575Y-64719158D01*
X91486998Y-64762783D01*
X91417500Y-64769977D01*
X91355145Y-64738454D01*
X91338425Y-64719158D01*
X91208494Y-64533597D01*
X91041402Y-64366506D01*
X91041395Y-64366501D01*
X90847834Y-64230967D01*
X90847830Y-64230965D01*
X90847828Y-64230964D01*
X90633663Y-64131097D01*
X90633659Y-64131096D01*
X90633655Y-64131094D01*
X90405413Y-64069938D01*
X90405403Y-64069936D01*
X90170001Y-64049341D01*
X90169999Y-64049341D01*
X89934596Y-64069936D01*
X89934586Y-64069938D01*
X89706344Y-64131094D01*
X89706335Y-64131098D01*
X89492171Y-64230964D01*
X89492169Y-64230965D01*
X89298597Y-64366505D01*
X89131505Y-64533597D01*
X88995965Y-64727169D01*
X88995964Y-64727171D01*
X88896098Y-64941335D01*
X88896094Y-64941344D01*
X88834938Y-65169586D01*
X88834936Y-65169596D01*
X88814341Y-65404999D01*
X77555659Y-65404999D01*
X77535063Y-65169592D01*
X77473903Y-64941337D01*
X77374035Y-64727171D01*
X77368731Y-64719595D01*
X77238494Y-64533597D01*
X77071402Y-64366506D01*
X77071395Y-64366501D01*
X76877834Y-64230967D01*
X76877830Y-64230965D01*
X76877828Y-64230964D01*
X76663663Y-64131097D01*
X76663659Y-64131096D01*
X76663655Y-64131094D01*
X76435413Y-64069938D01*
X76435403Y-64069936D01*
X76200001Y-64049341D01*
X76199999Y-64049341D01*
X75964596Y-64069936D01*
X75964586Y-64069938D01*
X75736344Y-64131094D01*
X75736335Y-64131098D01*
X75522171Y-64230964D01*
X75522169Y-64230965D01*
X75328597Y-64366505D01*
X75161505Y-64533597D01*
X75031575Y-64719158D01*
X74976998Y-64762783D01*
X74907500Y-64769977D01*
X74845145Y-64738454D01*
X74828425Y-64719158D01*
X74698494Y-64533597D01*
X74531402Y-64366506D01*
X74531395Y-64366501D01*
X74337834Y-64230967D01*
X74337830Y-64230965D01*
X74337828Y-64230964D01*
X74123663Y-64131097D01*
X74123659Y-64131096D01*
X74123655Y-64131094D01*
X73895413Y-64069938D01*
X73895403Y-64069936D01*
X73660001Y-64049341D01*
X73659999Y-64049341D01*
X73424596Y-64069936D01*
X73424586Y-64069938D01*
X73196344Y-64131094D01*
X73196335Y-64131098D01*
X72982171Y-64230964D01*
X72982169Y-64230965D01*
X72788597Y-64366505D01*
X72621508Y-64533594D01*
X72491269Y-64719595D01*
X72436692Y-64763219D01*
X72367193Y-64770412D01*
X72304839Y-64738890D01*
X72288119Y-64719594D01*
X72158113Y-64533926D01*
X72158108Y-64533920D01*
X71991082Y-64366894D01*
X71797578Y-64231399D01*
X71583492Y-64131570D01*
X71583486Y-64131567D01*
X71370000Y-64074364D01*
X71370000Y-64971988D01*
X71312993Y-64939075D01*
X71185826Y-64905000D01*
X71054174Y-64905000D01*
X70927007Y-64939075D01*
X70870000Y-64971988D01*
X70870000Y-64074364D01*
X70869999Y-64074364D01*
X70656513Y-64131567D01*
X70656507Y-64131570D01*
X70442422Y-64231399D01*
X70442420Y-64231400D01*
X70248926Y-64366886D01*
X70248920Y-64366891D01*
X70081891Y-64533920D01*
X70081890Y-64533922D01*
X69951880Y-64719595D01*
X69897303Y-64763219D01*
X69827804Y-64770412D01*
X69765450Y-64738890D01*
X69748730Y-64719594D01*
X69618494Y-64533597D01*
X69451402Y-64366506D01*
X69451395Y-64366501D01*
X69257834Y-64230967D01*
X69257830Y-64230965D01*
X69257828Y-64230964D01*
X69043663Y-64131097D01*
X69043659Y-64131096D01*
X69043655Y-64131094D01*
X68815413Y-64069938D01*
X68815403Y-64069936D01*
X68580001Y-64049341D01*
X68579999Y-64049341D01*
X68344596Y-64069936D01*
X68344586Y-64069938D01*
X68116344Y-64131094D01*
X68116335Y-64131098D01*
X67902171Y-64230964D01*
X67902169Y-64230965D01*
X67708600Y-64366503D01*
X67586673Y-64488430D01*
X67525350Y-64521914D01*
X67455658Y-64516930D01*
X67399725Y-64475058D01*
X67382810Y-64444081D01*
X67333797Y-64312671D01*
X67333793Y-64312664D01*
X67247547Y-64197455D01*
X67247544Y-64197452D01*
X67132335Y-64111206D01*
X67132328Y-64111202D01*
X66997482Y-64060908D01*
X66997483Y-64060908D01*
X66937883Y-64054501D01*
X66937881Y-64054500D01*
X66937873Y-64054500D01*
X66937864Y-64054500D01*
X65142129Y-64054500D01*
X65142123Y-64054501D01*
X65082516Y-64060908D01*
X64947671Y-64111202D01*
X64947664Y-64111206D01*
X64832455Y-64197452D01*
X64832452Y-64197455D01*
X64746206Y-64312664D01*
X64746202Y-64312671D01*
X64695908Y-64447517D01*
X64689501Y-64507116D01*
X64689501Y-64507123D01*
X64689500Y-64507135D01*
X64000500Y-64507135D01*
X64000500Y-62346500D01*
X64020185Y-62279461D01*
X64072989Y-62233706D01*
X64124500Y-62222500D01*
X133360500Y-62222500D01*
X133427539Y-62242185D01*
G37*
%TD.AperFunction*%
%TD*%
M02*
